<svg width="45" height="30" viewBox="0 0 45 30" fill="none" xmlns="http://www.w3.org/2000/svg">
<path d="M27.7151 10.232C27.7149 9.76117 27.6142 9.34514 27.4106 8.98819C27.2106 8.63699 26.911 8.34271 26.5093 8.11003C23.1927 6.19767 19.8728 4.29115 16.5573 2.37683C15.6635 1.86079 14.7968 1.87971 13.9096 2.40315C12.5895 3.18159 5.98019 6.96821 4.0107 8.10896C3.19961 8.5786 2.80493 9.29719 2.80473 10.2311C2.80347 14.077 2.80473 17.9229 2.80347 21.7688C2.80347 22.2292 2.90006 22.6373 3.09472 22.9889C3.29484 23.3506 3.59857 23.653 4.00963 23.8909C5.97921 25.0316 12.5894 28.818 13.9092 29.5967C14.7968 30.1204 15.6635 30.1392 16.5576 29.623C19.8732 27.7086 23.1932 25.8021 26.5103 23.8897C26.9214 23.6519 27.2251 23.3493 27.4252 22.9879C27.6196 22.6362 27.7164 22.2283 27.7164 21.7677C27.7164 21.7677 27.7164 14.078 27.7151 10.232Z" fill="#390091"/>
<path d="M22.4828 13.3357V14.6491H23.7962V13.3357H24.4529V14.6491H25.7662V15.3058H24.4529V16.6191H25.7662V17.2757H24.4529V18.5891H23.7962V17.2757H22.4828V18.5891H21.8261V17.2757H20.5128V16.6191H21.8261V15.3058H20.5128V14.6491H21.8261V13.3357H22.4828ZM23.7962 15.3057H22.4828V16.6191H23.7962V15.3058V15.3057Z" fill="white"/>
<path d="M15.3248 6.73972C18.7505 6.73972 21.7413 8.60013 23.3433 11.3655L23.3277 11.3389L19.2971 13.6596C18.5031 12.3151 17.0474 11.4077 15.3774 11.389L15.3247 11.3887C12.7782 11.3887 10.7137 13.4532 10.7137 15.9998C10.7128 16.8024 10.9225 17.5912 11.3218 18.2875C12.1166 19.6751 13.6108 20.6109 15.3248 20.6109C17.0494 20.6109 18.5521 19.6632 19.3428 18.2608L19.3236 18.2944L23.3481 20.6258C21.7636 23.3678 18.8138 25.2225 15.4279 25.2594L15.3248 25.26C11.8883 25.26 8.88902 23.3881 7.29101 20.6081C6.51091 19.251 6.06458 17.6776 6.06458 15.9998C6.06458 10.8856 10.2104 6.73962 15.3247 6.73962L15.3248 6.73972Z" fill="white"/>
</svg>
