<svg width="170" height="30" viewBox="0 0 170 30" fill="none" xmlns="http://www.w3.org/2000/svg">
<path d="M152.715 10.232C152.715 9.76117 152.614 9.34514 152.411 8.98819C152.211 8.63699 151.911 8.34271 151.509 8.11003C148.193 6.19767 144.873 4.29115 141.557 2.37683C140.663 1.86079 139.797 1.87971 138.91 2.40315C137.589 3.18159 130.98 6.96821 129.011 8.10896C128.2 8.5786 127.805 9.29719 127.805 10.2311C127.803 14.077 127.805 17.9229 127.803 21.7688C127.803 22.2292 127.9 22.6373 128.095 22.9889C128.295 23.3506 128.599 23.653 129.01 23.8909C130.979 25.0316 137.589 28.818 138.909 29.5967C139.797 30.1204 140.663 30.1392 141.558 29.623C144.873 27.7086 148.193 25.8021 151.51 23.8897C151.921 23.6519 152.225 23.3493 152.425 22.9879C152.62 22.6362 152.716 22.2283 152.716 21.7677C152.716 21.7677 152.716 14.078 152.715 10.232Z" fill="#390091"/>
<path d="M147.483 13.3357V14.6491H148.796V13.3357H149.453V14.6491H150.766V15.3058H149.453V16.6191H150.766V17.2757H149.453V18.5891H148.796V17.2757H147.483V18.5891H146.826V17.2757H145.513V16.6191H146.826V15.3058H145.513V14.6491H146.826V13.3357H147.483ZM148.796 15.3057H147.483V16.6191H148.796V15.3058V15.3057Z" fill="white"/>
<path d="M140.325 6.73972C143.75 6.73972 146.741 8.60013 148.343 11.3655L148.328 11.3389L144.297 13.6596C143.503 12.3151 142.047 11.4077 140.377 11.389L140.325 11.3887C137.778 11.3887 135.714 13.4532 135.714 15.9998C135.713 16.8024 135.923 17.5912 136.322 18.2875C137.117 19.6751 138.611 20.6109 140.325 20.6109C142.049 20.6109 143.552 19.6632 144.343 18.2608L144.324 18.2944L148.348 20.6258C146.764 23.3678 143.814 25.2225 140.428 25.2594L140.325 25.26C136.888 25.26 133.889 23.3881 132.291 20.6081C131.511 19.251 131.065 17.6776 131.065 15.9998C131.065 10.8856 135.21 6.73962 140.325 6.73962L140.325 6.73972Z" fill="white"/>
<circle cx="101" cy="15" r="5" fill="black" fill-opacity="0.5"/>
</svg>
