<svg width="100" height="30" viewBox="0 0 100 30" fill="none" xmlns="http://www.w3.org/2000/svg">
<path d="M82.7151 10.232C82.7149 9.76117 82.6142 9.34514 82.4106 8.98819C82.2106 8.63699 81.911 8.34271 81.5093 8.11003C78.1927 6.19767 74.8728 4.29115 71.5573 2.37683C70.6635 1.86079 69.7968 1.87971 68.9096 2.40315C67.5895 3.18159 60.9802 6.96821 59.0107 8.10896C58.1996 8.5786 57.8049 9.29719 57.8047 10.2311C57.8035 14.077 57.8047 17.9229 57.8035 21.7688C57.8035 22.2292 57.9001 22.6373 58.0947 22.9889C58.2948 23.3506 58.5986 23.653 59.0096 23.8909C60.9792 25.0316 67.5894 28.818 68.9092 29.5967C69.7968 30.1204 70.6635 30.1392 71.5576 29.623C74.8732 27.7086 78.1932 25.8021 81.5103 23.8897C81.9214 23.6519 82.2251 23.3493 82.4252 22.9879C82.6196 22.6362 82.7164 22.2283 82.7164 21.7677C82.7164 21.7677 82.7164 14.078 82.7151 10.232Z" fill="#390091"/>
<path d="M77.4828 13.3357V14.6491H78.7962V13.3357H79.4529V14.6491H80.7662V15.3058H79.4529V16.6191H80.7662V17.2757H79.4529V18.5891H78.7962V17.2757H77.4828V18.5891H76.8261V17.2757H75.5128V16.6191H76.8261V15.3058H75.5128V14.6491H76.8261V13.3357H77.4828ZM78.7962 15.3057H77.4828V16.6191H78.7962V15.3058V15.3057Z" fill="white"/>
<path d="M70.3248 6.73972C73.7505 6.73972 76.7413 8.60013 78.3433 11.3655L78.3277 11.3389L74.2971 13.6596C73.5031 12.3151 72.0474 11.4077 70.3774 11.389L70.3247 11.3887C67.7782 11.3887 65.7137 13.4532 65.7137 15.9998C65.7128 16.8024 65.9225 17.5912 66.3218 18.2875C67.1166 19.6751 68.6108 20.6109 70.3248 20.6109C72.0494 20.6109 73.5521 19.6632 74.3428 18.2608L74.3236 18.2944L78.3481 20.6258C76.7636 23.3678 73.8138 25.2225 70.4279 25.2594L70.3248 25.26C66.8883 25.26 63.889 23.3881 62.291 20.6081C61.5109 19.251 61.0646 17.6776 61.0646 15.9998C61.0646 10.8856 65.2104 6.73962 70.3247 6.73962L70.3248 6.73972Z" fill="white"/>
</svg>
