<svg width="30" height="30" viewBox="0 0 30 30" fill="none" xmlns="http://www.w3.org/2000/svg">
<path d="M27.7151 9.23197C27.7149 8.76117 27.6142 8.34514 27.4106 7.98819C27.2106 7.63699 26.911 7.34271 26.5093 7.11003C23.1927 5.19767 19.8728 3.29115 16.5573 1.37683C15.6635 0.860795 14.7968 0.879705 13.9096 1.40315C12.5895 2.18159 5.98019 5.96821 4.0107 7.10896C3.19961 7.5786 2.80493 8.29719 2.80473 9.2311C2.80347 13.077 2.80473 16.9229 2.80347 20.7688C2.80347 21.2292 2.90006 21.6373 3.09472 21.9889C3.29484 22.3506 3.59857 22.653 4.00963 22.8909C5.97921 24.0316 12.5894 27.818 13.9092 28.5967C14.7968 29.1204 15.6635 29.1392 16.5576 28.623C19.8732 26.7086 23.1932 24.8021 26.5103 22.8897C26.9214 22.6519 27.2251 22.3493 27.4252 21.9879C27.6196 21.6362 27.7164 21.2283 27.7164 20.7677C27.7164 20.7677 27.7164 13.078 27.7151 9.23197Z" fill="#390091"/>
<path d="M22.4828 12.3357V13.6491H23.7962V12.3357H24.4529V13.6491H25.7662V14.3058H24.4529V15.6191H25.7662V16.2757H24.4529V17.5891H23.7962V16.2757H22.4828V17.5891H21.8261V16.2757H20.5128V15.6191H21.8261V14.3058H20.5128V13.6491H21.8261V12.3357H22.4828ZM23.7962 14.3057H22.4828V15.6191H23.7962V14.3058V14.3057Z" fill="white"/>
<path d="M15.3248 5.73972C18.7505 5.73972 21.7413 7.60013 23.3433 10.3655L23.3277 10.3389L19.2971 12.6596C18.5031 11.3151 17.0474 10.4077 15.3774 10.389L15.3247 10.3887C12.7782 10.3887 10.7137 12.4532 10.7137 14.9998C10.7128 15.8024 10.9225 16.5912 11.3218 17.2875C12.1166 18.6751 13.6108 19.6109 15.3248 19.6109C17.0494 19.6109 18.5521 18.6632 19.3428 17.2608L19.3236 17.2944L23.3481 19.6258C21.7636 22.3678 18.8138 24.2225 15.4279 24.2594L15.3248 24.26C11.8883 24.26 8.88902 22.3881 7.29101 19.6081C6.51091 18.251 6.06458 16.6776 6.06458 14.9998C6.06458 9.88564 10.2104 5.73962 15.3247 5.73962L15.3248 5.73972Z" fill="white"/>
</svg>
