<svg width="100" height="30" viewBox="0 0 100 30" fill="none" xmlns="http://www.w3.org/2000/svg">
<path d="M75 20C77.7614 20 80 17.7614 80 15C80 12.2386 77.7614 10 75 10C72.2386 10 70 12.2386 70 15C70 17.7614 72.2386 20 75 20Z" fill="#19BCFE"/>
<path fill-rule="evenodd" clip-rule="evenodd" d="M65 30C66.3261 30 67.5979 29.4732 68.5355 28.5355C69.4732 27.5979 70 26.3261 70 25V20H65C63.6739 20 62.4021 20.5268 61.4645 21.4645C60.5268 22.4021 60 23.6739 60 25C60 26.3261 60.5268 27.5979 61.4645 28.5355C62.4021 29.4732 63.6739 30 65 30V30Z" fill="#09CF83"/>
<path fill-rule="evenodd" clip-rule="evenodd" d="M65 20H70V10H65C63.6739 10 62.4021 10.5268 61.4645 11.4645C60.5268 12.4021 60 13.6739 60 15C60 16.3261 60.5268 17.5979 61.4645 18.5355C62.4021 19.4732 63.6739 20 65 20V20Z" fill="#A259FF"/>
<path fill-rule="evenodd" clip-rule="evenodd" d="M65 10H70V0H65C63.6739 0 62.4021 0.526784 61.4645 1.46447C60.5268 2.40215 60 3.67392 60 5C60 6.32608 60.5268 7.59785 61.4645 8.53553C62.4021 9.47322 63.6739 10 65 10V10Z" fill="#F24E1E"/>
<path fill-rule="evenodd" clip-rule="evenodd" d="M75 10H70V0H75C76.3261 0 77.5979 0.526784 78.5355 1.46447C79.4732 2.40215 80 3.67392 80 5C80 6.32608 79.4732 7.59785 78.5355 8.53553C77.5979 9.47322 76.3261 10 75 10Z" fill="#FF7262"/>
</svg>
