<svg width="100" height="30" viewBox="0 0 100 30" fill="none" xmlns="http://www.w3.org/2000/svg">
<path d="M59.0999 24.1493L59.2815 23.896L67.8515 7.63868L67.8697 7.46664L64.0923 0.37128C64.0231 0.24153 63.9149 0.136809 63.783 0.0719328C63.651 0.00705645 63.502 -0.0146906 63.357 0.00976811C63.2121 0.0342269 63.0784 0.103653 62.9751 0.208225C62.8717 0.312797 62.8039 0.447219 62.7811 0.592476L59.0999 24.1493Z" fill="#FFC24A"/>
<path d="M59.2068 23.957L59.3436 23.6898L67.8249 7.60129L64.0571 0.478145C63.9949 0.354268 63.8943 0.253858 63.7703 0.191958C63.6463 0.130059 63.5056 0.110002 63.3693 0.134793C63.2329 0.159584 63.1083 0.227889 63.014 0.329473C62.9197 0.431057 62.8609 0.560452 62.8464 0.698273L59.2068 23.957Z" fill="#FFA712"/>
<path d="M70.6234 12.833L73.4359 9.94786L70.6224 4.58253C70.5604 4.46706 70.4684 4.37054 70.3559 4.30326C70.2435 4.23597 70.1149 4.20044 69.9839 4.20044C69.8529 4.20044 69.7243 4.23597 69.6118 4.30326C69.4994 4.37054 69.4073 4.46706 69.3454 4.58253L67.8419 7.44846V7.69316L70.6234 12.833Z" fill="#F4BD62"/>
<path d="M70.5733 12.7155L73.3078 9.91584L70.5733 4.70118C70.5285 4.5883 70.452 4.49078 70.3531 4.42037C70.2542 4.34997 70.137 4.30968 70.0157 4.30437C69.8944 4.29907 69.7741 4.32896 69.6694 4.39045C69.5647 4.45195 69.48 4.54242 69.4256 4.65095L67.9146 7.5671L67.8698 7.71564L70.5733 12.7155Z" fill="#FFA50E"/>
<path d="M59.1019 24.1504L59.1842 24.067L59.4823 23.9463L70.446 13.0232L70.5849 12.645L67.8504 7.43243L59.1019 24.1504V24.1504Z" fill="#F6820C"/>
<path d="M70.9739 29.6589L80.8989 24.1247L78.0629 6.67375C78.0425 6.55074 77.9887 6.4357 77.9073 6.34127C77.8259 6.24684 77.72 6.17667 77.6013 6.13847C77.4826 6.10027 77.3557 6.09551 77.2345 6.12471C77.1132 6.15392 77.0024 6.21596 76.9141 6.30403L59.0999 24.1493L68.966 29.6578C69.2728 29.829 69.6182 29.9188 69.9694 29.9188C70.3207 29.9188 70.6661 29.829 70.9728 29.6578" fill="#FDE068"/>
<path d="M80.8081 24.0788L77.9956 6.75925C77.9906 6.64158 77.9509 6.52804 77.8814 6.43298C77.8118 6.33792 77.7157 6.26562 77.605 6.22524C77.4944 6.18485 77.3743 6.17819 77.2599 6.20611C77.1455 6.23402 77.0419 6.29525 76.9623 6.38204L59.2068 24.1162L68.964 29.5659C69.2683 29.7357 69.6109 29.8248 69.9594 29.8248C70.3078 29.8248 70.6505 29.7357 70.9547 29.5659L80.8081 24.0788Z" fill="#FCCA3F"/>
<path d="M70.9739 29.4922C70.6672 29.6633 70.3218 29.7532 69.9705 29.7532C69.6193 29.7532 69.2738 29.6633 68.9671 29.4922L59.1811 24.0659L59.0999 24.1493L68.966 29.6578C69.2728 29.829 69.6182 29.9188 69.9694 29.9188C70.3207 29.9188 70.6661 29.829 70.9728 29.6578L80.8989 24.1247L80.8743 23.9751L70.9739 29.4922Z" fill="#EEAB37"/>
</svg>
