<svg width="30" height="30" viewBox="0 0 30 30" fill="none" xmlns="http://www.w3.org/2000/svg">
<g clip-path="url(#clip0_200_694)">
<path d="M4.09985 24.0834L4.28151 23.8301L12.8515 7.57277L12.8697 7.40073L9.09225 0.305362C9.0231 0.175612 8.9149 0.0708911 8.78296 0.00601481C8.65102 -0.0588615 8.50201 -0.0806086 8.35703 -0.0561499C8.21205 -0.0316911 8.07843 0.0377351 7.97508 0.142307C7.87172 0.246879 7.80387 0.381301 7.78111 0.526558L4.09985 24.0834Z" fill="#FFC24A"/>
<path d="M4.20679 23.891L4.34356 23.6239L12.8249 7.53538L9.05707 0.412227C8.99493 0.28835 8.89433 0.18794 8.77034 0.12604C8.64634 0.0641408 8.50563 0.044084 8.36928 0.0688751C8.23293 0.0936663 8.10828 0.161971 8.01401 0.263555C7.91974 0.365139 7.86092 0.494534 7.84637 0.632355L4.20679 23.891Z" fill="#FFA712"/>
<path d="M15.6234 12.7671L18.4359 9.88194L15.6224 4.51661C15.5604 4.40114 15.4684 4.30462 15.3559 4.23734C15.2435 4.17006 15.1149 4.13452 14.9839 4.13452C14.8529 4.13452 14.7243 4.17006 14.6118 4.23734C14.4994 4.30462 14.4073 4.40114 14.3454 4.51661L12.8419 7.38254V7.62724L15.6234 12.7671Z" fill="#F4BD62"/>
<path d="M15.5733 12.6496L18.3078 9.84992L15.5733 4.63526C15.5285 4.52238 15.452 4.42486 15.3531 4.35446C15.2542 4.28405 15.137 4.24376 15.0157 4.23846C14.8944 4.23315 14.7741 4.26304 14.6694 4.32454C14.5647 4.38603 14.48 4.4765 14.4256 4.58503L12.9146 7.50119L12.8698 7.64972L15.5733 12.6496Z" fill="#FFA50E"/>
<path d="M4.10193 24.0844L4.18421 24.0011L4.48234 23.8803L15.446 12.9573L15.5849 12.579L12.8504 7.36652L4.10193 24.0844V24.0844Z" fill="#F6820C"/>
<path d="M15.9739 29.593L25.8989 24.0588L23.0629 6.60784C23.0425 6.48482 22.9887 6.36978 22.9073 6.27535C22.8259 6.18092 22.72 6.11075 22.6013 6.07255C22.4826 6.03435 22.3557 6.02959 22.2345 6.05879C22.1132 6.088 22.0024 6.15004 21.9141 6.23811L4.09985 24.0834L13.966 29.5919C14.2728 29.7631 14.6182 29.8529 14.9694 29.8529C15.3207 29.8529 15.6661 29.7631 15.9728 29.5919" fill="#FDE068"/>
<path d="M25.8081 24.0129L22.9956 6.69333C22.9906 6.57567 22.9509 6.46212 22.8814 6.36706C22.8118 6.272 22.7157 6.1997 22.605 6.15932C22.4944 6.11893 22.3743 6.11228 22.2599 6.14019C22.1455 6.1681 22.0419 6.22933 21.9623 6.31612L4.20679 24.0503L13.964 29.5C14.2683 29.6698 14.6109 29.7589 14.9594 29.7589C15.3078 29.7589 15.6505 29.6698 15.9547 29.5L25.8081 24.0129Z" fill="#FCCA3F"/>
<path d="M15.9739 29.4263C15.6672 29.5974 15.3218 29.6873 14.9705 29.6873C14.6193 29.6873 14.2738 29.5974 13.9671 29.4263L4.18107 24L4.09985 24.0834L13.966 29.5919C14.2728 29.763 14.6182 29.8529 14.9694 29.8529C15.3207 29.8529 15.6661 29.763 15.9728 29.5919L25.8989 24.0588L25.8743 23.9092L15.9739 29.4263Z" fill="#EEAB37"/>
</g>
<defs>
<clipPath id="clip0_200_694">
<rect width="30" height="30" fill="white"/>
</clipPath>
</defs>
</svg>
