<svg width="30" height="30" viewBox="0 0 30 30" fill="none" xmlns="http://www.w3.org/2000/svg">
<path d="M4.09985 24.1493L4.28151 23.896L12.8515 7.63868L12.8697 7.46664L9.09225 0.37128C9.0231 0.24153 8.9149 0.136809 8.78296 0.0719328C8.65102 0.00705645 8.50201 -0.0146906 8.35703 0.00976811C8.21205 0.0342269 8.07843 0.103653 7.97508 0.208225C7.87172 0.312797 7.80387 0.447219 7.78111 0.592476L4.09985 24.1493Z" fill="#FFC24A"/>
<path d="M4.20679 23.957L4.34356 23.6898L12.8249 7.60129L9.05707 0.478145C8.99493 0.354268 8.89433 0.253858 8.77034 0.191958C8.64634 0.130059 8.50563 0.110002 8.36928 0.134793C8.23293 0.159584 8.10828 0.227889 8.01401 0.329473C7.91974 0.431057 7.86092 0.560452 7.84637 0.698273L4.20679 23.957Z" fill="#FFA712"/>
<path d="M15.6234 12.833L18.4359 9.94786L15.6224 4.58253C15.5604 4.46706 15.4684 4.37054 15.3559 4.30326C15.2435 4.23597 15.1149 4.20044 14.9839 4.20044C14.8529 4.20044 14.7243 4.23597 14.6118 4.30326C14.4994 4.37054 14.4073 4.46706 14.3454 4.58253L12.8419 7.44846V7.69316L15.6234 12.833Z" fill="#F4BD62"/>
<path d="M15.5733 12.7155L18.3078 9.91584L15.5733 4.70118C15.5285 4.5883 15.452 4.49078 15.3531 4.42037C15.2542 4.34997 15.137 4.30968 15.0157 4.30437C14.8944 4.29907 14.7741 4.32896 14.6694 4.39045C14.5647 4.45195 14.48 4.54242 14.4256 4.65095L12.9146 7.5671L12.8698 7.71564L15.5733 12.7155Z" fill="#FFA50E"/>
<path d="M4.10193 24.1504L4.18421 24.067L4.48234 23.9463L15.446 13.0232L15.5849 12.645L12.8504 7.43243L4.10193 24.1504V24.1504Z" fill="#F6820C"/>
<path d="M15.9739 29.6589L25.8989 24.1247L23.0629 6.67375C23.0425 6.55074 22.9887 6.4357 22.9073 6.34127C22.8259 6.24684 22.72 6.17667 22.6013 6.13847C22.4826 6.10027 22.3557 6.09551 22.2345 6.12471C22.1132 6.15392 22.0024 6.21596 21.9141 6.30403L4.09985 24.1493L13.966 29.6578C14.2728 29.829 14.6182 29.9188 14.9694 29.9188C15.3207 29.9188 15.6661 29.829 15.9728 29.6578" fill="#FDE068"/>
<path d="M25.8081 24.0788L22.9956 6.75925C22.9906 6.64158 22.9509 6.52804 22.8814 6.43298C22.8118 6.33792 22.7157 6.26562 22.605 6.22524C22.4944 6.18485 22.3743 6.17819 22.2599 6.20611C22.1455 6.23402 22.0419 6.29525 21.9623 6.38204L4.20679 24.1162L13.964 29.5659C14.2683 29.7357 14.6109 29.8248 14.9594 29.8248C15.3078 29.8248 15.6505 29.7357 15.9547 29.5659L25.8081 24.0788Z" fill="#FCCA3F"/>
<path d="M15.9739 29.4922C15.6672 29.6633 15.3218 29.7532 14.9705 29.7532C14.6193 29.7532 14.2738 29.6633 13.9671 29.4922L4.18107 24.0659L4.09985 24.1493L13.966 29.6578C14.2728 29.829 14.6182 29.9188 14.9694 29.9188C15.3207 29.9188 15.6661 29.829 15.9728 29.6578L25.8989 24.1247L25.8743 23.9751L15.9739 29.4922Z" fill="#EEAB37"/>
</svg>
