<svg width="170" height="30" viewBox="0 0 170 30" fill="none" xmlns="http://www.w3.org/2000/svg">
<path d="M129.1 24.1493L129.282 23.896L137.852 7.63868L137.87 7.46664L134.092 0.37128C134.023 0.24153 133.915 0.136809 133.783 0.0719328C133.651 0.00705645 133.502 -0.0146906 133.357 0.00976811C133.212 0.0342269 133.078 0.103653 132.975 0.208225C132.872 0.312797 132.804 0.447219 132.781 0.592476L129.1 24.1493Z" fill="#FFC24A"/>
<path d="M129.207 23.957L129.344 23.6898L137.825 7.60129L134.057 0.478145C133.995 0.354268 133.894 0.253858 133.77 0.191958C133.646 0.130059 133.506 0.110002 133.369 0.134793C133.233 0.159584 133.108 0.227889 133.014 0.329473C132.92 0.431057 132.861 0.560452 132.846 0.698273L129.207 23.957Z" fill="#FFA712"/>
<path d="M140.623 12.833L143.436 9.94786L140.622 4.58253C140.56 4.46706 140.468 4.37054 140.356 4.30326C140.243 4.23597 140.115 4.20044 139.984 4.20044C139.853 4.20044 139.724 4.23597 139.612 4.30326C139.499 4.37054 139.407 4.46706 139.345 4.58253L137.842 7.44846V7.69316L140.623 12.833Z" fill="#F4BD62"/>
<path d="M140.573 12.7155L143.308 9.91584L140.573 4.70118C140.528 4.5883 140.452 4.49078 140.353 4.42037C140.254 4.34997 140.137 4.30968 140.016 4.30437C139.894 4.29907 139.774 4.32896 139.669 4.39045C139.565 4.45195 139.48 4.54242 139.426 4.65095L137.915 7.5671L137.87 7.71564L140.573 12.7155Z" fill="#FFA50E"/>
<path d="M129.102 24.1504L129.184 24.067L129.482 23.9463L140.446 13.0232L140.585 12.645L137.85 7.43243L129.102 24.1504V24.1504Z" fill="#F6820C"/>
<path d="M140.974 29.6589L150.899 24.1247L148.063 6.67375C148.043 6.55074 147.989 6.4357 147.907 6.34127C147.826 6.24684 147.72 6.17667 147.601 6.13847C147.483 6.10027 147.356 6.09551 147.234 6.12471C147.113 6.15392 147.002 6.21596 146.914 6.30403L129.1 24.1493L138.966 29.6578C139.273 29.829 139.618 29.9188 139.969 29.9188C140.321 29.9188 140.666 29.829 140.973 29.6578" fill="#FDE068"/>
<path d="M150.808 24.0788L147.996 6.75925C147.991 6.64158 147.951 6.52804 147.881 6.43298C147.812 6.33792 147.716 6.26562 147.605 6.22524C147.494 6.18485 147.374 6.17819 147.26 6.20611C147.145 6.23402 147.042 6.29525 146.962 6.38204L129.207 24.1162L138.964 29.5659C139.268 29.7357 139.611 29.8248 139.959 29.8248C140.308 29.8248 140.65 29.7357 140.955 29.5659L150.808 24.0788Z" fill="#FCCA3F"/>
<path d="M140.974 29.4922C140.667 29.6633 140.322 29.7532 139.971 29.7532C139.619 29.7532 139.274 29.6633 138.967 29.4922L129.181 24.0659L129.1 24.1493L138.966 29.6578C139.273 29.829 139.618 29.9188 139.969 29.9188C140.321 29.9188 140.666 29.829 140.973 29.6578L150.899 24.1247L150.874 23.9751L140.974 29.4922Z" fill="#EEAB37"/>
<circle cx="101" cy="15" r="5" fill="black" fill-opacity="0.5"/>
</svg>
