<svg width="170" height="30" viewBox="0 0 170 30" fill="none" xmlns="http://www.w3.org/2000/svg">
<path d="M145 20C147.761 20 150 17.7614 150 15C150 12.2386 147.761 10 145 10C142.239 10 140 12.2386 140 15C140 17.7614 142.239 20 145 20Z" fill="#19BCFE"/>
<path fill-rule="evenodd" clip-rule="evenodd" d="M135 30C136.326 30 137.598 29.4732 138.536 28.5355C139.473 27.5979 140 26.3261 140 25V20H135C133.674 20 132.402 20.5268 131.464 21.4645C130.527 22.4021 130 23.6739 130 25C130 26.3261 130.527 27.5979 131.464 28.5355C132.402 29.4732 133.674 30 135 30V30Z" fill="#09CF83"/>
<path fill-rule="evenodd" clip-rule="evenodd" d="M135 20H140V10H135C133.674 10 132.402 10.5268 131.464 11.4645C130.527 12.4021 130 13.6739 130 15C130 16.3261 130.527 17.5979 131.464 18.5355C132.402 19.4732 133.674 20 135 20V20Z" fill="#A259FF"/>
<path fill-rule="evenodd" clip-rule="evenodd" d="M135 10H140V0H135C133.674 0 132.402 0.526784 131.464 1.46447C130.527 2.40215 130 3.67392 130 5C130 6.32608 130.527 7.59785 131.464 8.53553C132.402 9.47322 133.674 10 135 10V10Z" fill="#F24E1E"/>
<path fill-rule="evenodd" clip-rule="evenodd" d="M145 10H140V0H145C146.326 0 147.598 0.526784 148.536 1.46447C149.473 2.40215 150 3.67392 150 5C150 6.32608 149.473 7.59785 148.536 8.53553C147.598 9.47322 146.326 10 145 10Z" fill="#FF7262"/>
<circle cx="101" cy="15" r="5" fill="black" fill-opacity="0.5"/>
</svg>
