<svg width="170" height="30" viewBox="0 0 170 30" fill="none" xmlns="http://www.w3.org/2000/svg">
<path d="M135.99 29.7236C141.798 30.0954 150.717 29.5173 150.928 26.7692C150.928 26.7692 150.522 27.8111 146.128 28.6384C141.171 29.5712 135.057 29.4623 131.431 28.8645C131.431 28.8645 132.173 29.4789 135.99 29.7236" fill="#5382A1"/>
<path d="M148.885 25.3112C148.885 25.3112 149.797 26.0626 147.88 26.644C144.236 27.7479 132.713 28.0813 129.512 26.6879C128.362 26.1875 130.52 25.4927 131.198 25.3469C131.906 25.1934 132.311 25.222 132.311 25.222C131.031 24.3205 124.039 26.9922 128.759 27.7572C141.631 29.8447 152.224 26.8173 148.885 25.3112Z" fill="#5382A1"/>
<path d="M134.803 23.6539C134.803 23.6539 133.571 24.3705 135.68 24.613C138.236 24.9045 139.542 24.8628 142.358 24.3297C142.358 24.3297 143.099 24.794 144.133 25.1961C137.819 27.9019 129.844 25.0394 134.803 23.6539" fill="#5382A1"/>
<path d="M134.032 20.7347C134.032 20.7347 132.65 21.7579 134.761 21.9762C137.49 22.2578 139.646 22.2809 143.377 21.5625C143.377 21.5625 143.893 22.0856 144.704 22.3717C137.071 24.6037 128.569 22.5477 134.032 20.7347" fill="#5382A1"/>
<path d="M135.396 17.7515C135.396 17.7515 129.535 19.1437 133.32 19.6491C134.919 19.8631 138.105 19.8148 141.073 19.566C143.499 19.3615 145.935 18.9264 145.935 18.9264C145.935 18.9264 145.079 19.2927 144.46 19.7152C138.508 21.2807 127.01 20.5524 130.32 18.9512C133.12 17.598 135.396 17.7515 135.396 17.7515" fill="#5382A1"/>
<path d="M145.91 23.6286C151.961 20.4845 149.163 17.4631 147.211 17.8702C146.732 17.9698 146.519 18.056 146.519 18.056C146.519 18.056 146.696 17.7778 147.036 17.6573C150.899 16.2992 153.869 21.6628 145.789 23.7871C145.789 23.7872 145.882 23.7035 145.91 23.6286" fill="#5382A1"/>
<path d="M140.535 15.4204C142.091 17.2113 140.127 18.823 140.127 18.823C140.127 18.823 144.076 16.7839 142.262 14.2305C140.568 11.8495 139.269 10.6662 146.303 6.58704C146.303 6.58704 135.262 9.3444 140.535 15.4203" fill="#EC2025"/>
<path d="M142.262 9.33736e-05C142.262 9.33736e-05 145.613 3.35225 139.084 8.50663C133.849 12.6415 137.89 14.999 139.082 17.6926C136.026 14.9352 133.783 12.5078 135.288 10.2487C137.496 6.93233 143.614 5.32451 142.262 0" fill="#EC2025"/>
<circle cx="101" cy="15" r="5" fill="black" fill-opacity="0.5"/>
</svg>
