<svg width="30" height="30" viewBox="0 0 30 30" fill="none" xmlns="http://www.w3.org/2000/svg">
<path d="M10.9903 29.7236C16.7981 30.0954 25.7166 29.5173 25.9278 26.7692C25.9278 26.7692 25.5219 27.8111 21.128 28.6384C16.1709 29.5712 10.0571 29.4623 6.43091 28.8645C6.431 28.8645 7.17324 29.4789 10.9904 29.7236" fill="#5382A1"/>
<path d="M23.8849 25.3112C23.8849 25.3112 24.7969 26.0626 22.8805 26.644C19.2364 27.7479 7.7134 28.0813 4.51232 26.6879C3.36166 26.1875 5.51955 25.4927 6.1983 25.3469C6.90617 25.1934 7.31076 25.222 7.31076 25.222C6.03106 24.3205 -0.960657 26.9922 3.75935 27.7572C16.6313 29.8447 27.2237 26.8173 23.8849 25.3112Z" fill="#5382A1"/>
<path d="M9.8032 23.6539C9.8032 23.6539 8.57084 24.3705 10.6803 24.613C13.2358 24.9045 14.5419 24.8628 17.3582 24.3297C17.3582 24.3297 18.0986 24.794 19.1326 25.1961C12.8194 27.9019 4.84444 25.0394 9.8032 23.6539" fill="#5382A1"/>
<path d="M9.03174 20.7347C9.03174 20.7347 7.64951 21.7579 9.76053 21.9762C12.4904 22.2578 14.6463 22.2809 18.3768 21.5625C18.3768 21.5625 18.8928 22.0856 19.7041 22.3717C12.071 24.6037 3.56913 22.5477 9.03174 20.7347" fill="#5382A1"/>
<path d="M10.3958 17.7515C10.3958 17.7515 4.53453 19.1437 8.32022 19.6491C9.91861 19.8631 13.105 19.8148 16.0731 19.566C18.4988 19.3615 20.9345 18.9264 20.9345 18.9264C20.9345 18.9264 20.0792 19.2927 19.4604 19.7152C13.5083 21.2807 2.00995 20.5524 5.32018 18.9512C8.11965 17.598 10.3959 17.7515 10.3959 17.7515" fill="#5382A1"/>
<path d="M20.9101 23.6286C26.9608 20.4845 24.1632 17.4631 22.2106 17.8702C21.7319 17.9698 21.5186 18.056 21.5186 18.056C21.5186 18.056 21.6963 17.7778 22.0356 17.6573C25.8985 16.2992 28.8694 21.6628 20.7886 23.7871C20.7886 23.7872 20.8822 23.7035 20.9101 23.6286" fill="#5382A1"/>
<path d="M15.5353 15.4204C17.091 17.2113 15.1266 18.823 15.1266 18.823C15.1266 18.823 19.0765 16.7839 17.2625 14.2305C15.5683 11.8495 14.269 10.6662 21.3026 6.58704C21.3026 6.58704 10.2622 9.3444 15.5353 15.4203" fill="#EC2025"/>
<path d="M17.2623 9.33736e-05C17.2623 9.33736e-05 20.6133 3.35225 14.0841 8.50663C8.84853 12.6415 12.8903 14.999 14.082 17.6926C11.0258 14.9352 8.78298 12.5078 10.2877 10.2487C12.4961 6.93233 18.6143 5.32451 17.2623 0" fill="#EC2025"/>
</svg>
