<svg width="100" height="30" viewBox="0 0 100 30" fill="none" xmlns="http://www.w3.org/2000/svg">
<path d="M65.9903 29.7236C71.7981 30.0954 80.7166 29.5173 80.9278 26.7692C80.9278 26.7692 80.5219 27.8111 76.128 28.6384C71.1709 29.5712 65.0571 29.4623 61.4309 28.8645C61.431 28.8645 62.1732 29.4789 65.9904 29.7236" fill="#5382A1"/>
<path d="M78.8849 25.3112C78.8849 25.3112 79.7969 26.0626 77.8805 26.644C74.2364 27.7479 62.7134 28.0813 59.5123 26.6879C58.3617 26.1875 60.5196 25.4927 61.1983 25.3469C61.9062 25.1934 62.3108 25.222 62.3108 25.222C61.0311 24.3205 54.0393 26.9922 58.7593 27.7572C71.6313 29.8447 82.2237 26.8173 78.8849 25.3112Z" fill="#5382A1"/>
<path d="M64.8032 23.6539C64.8032 23.6539 63.5708 24.3705 65.6803 24.613C68.2358 24.9045 69.5419 24.8628 72.3582 24.3297C72.3582 24.3297 73.0986 24.794 74.1326 25.1961C67.8194 27.9019 59.8444 25.0394 64.8032 23.6539" fill="#5382A1"/>
<path d="M64.0317 20.7347C64.0317 20.7347 62.6495 21.7579 64.7605 21.9762C67.4904 22.2578 69.6463 22.2809 73.3768 21.5625C73.3768 21.5625 73.8928 22.0856 74.7041 22.3717C67.071 24.6037 58.5691 22.5477 64.0317 20.7347" fill="#5382A1"/>
<path d="M65.3958 17.7515C65.3958 17.7515 59.5345 19.1437 63.3202 19.6491C64.9186 19.8631 68.105 19.8148 71.0731 19.566C73.4988 19.3615 75.9345 18.9264 75.9345 18.9264C75.9345 18.9264 75.0792 19.2927 74.4604 19.7152C68.5083 21.2807 57.01 20.5524 60.3202 18.9512C63.1197 17.598 65.3959 17.7515 65.3959 17.7515" fill="#5382A1"/>
<path d="M75.9101 23.6286C81.9608 20.4845 79.1632 17.4631 77.2106 17.8702C76.7319 17.9698 76.5186 18.056 76.5186 18.056C76.5186 18.056 76.6963 17.7778 77.0356 17.6573C80.8985 16.2992 83.8694 21.6628 75.7886 23.7871C75.7886 23.7872 75.8822 23.7035 75.9101 23.6286" fill="#5382A1"/>
<path d="M70.5353 15.4204C72.091 17.2113 70.1266 18.823 70.1266 18.823C70.1266 18.823 74.0765 16.7839 72.2625 14.2305C70.5683 11.8495 69.269 10.6662 76.3026 6.58704C76.3026 6.58704 65.2622 9.3444 70.5353 15.4203" fill="#EC2025"/>
<path d="M72.2623 9.33736e-05C72.2623 9.33736e-05 75.6133 3.35225 69.0841 8.50663C63.8485 12.6415 67.8903 14.999 69.082 17.6926C66.0258 14.9352 63.783 12.5078 65.2877 10.2487C67.4961 6.93233 73.6143 5.32451 72.2623 0" fill="#EC2025"/>
</svg>
