<svg width="100" height="30" viewBox="0 0 100 30" fill="none" xmlns="http://www.w3.org/2000/svg">
<path d="M83.069 6.30345V25.7655C83.069 27.4854 81.4854 29.069 79.7655 29.069H60.3035C58.5836 29.069 57 27.4854 57 25.7655V6.30345C57 4.58358 58.5836 3.00001 60.3035 3.00001H79.7655C81.4854 3.00001 83.069 4.58358 83.069 6.30345Z" fill="#3670A0"/>
<path opacity="0.2" d="M61.0795 7.29312C60.2559 7.27564 59.8697 7.8451 60.0392 8.82677C60.094 9.14318 60.371 9.59507 60.9685 10.3445C61.6329 11.177 61.9002 11.6315 62.1897 12.4189C62.6461 13.6602 62.8571 14.0765 63.2279 14.4645C63.516 14.7659 63.516 14.7668 63.3225 15.3815C63.0224 16.3347 62.9603 18.2453 63.2012 19.1437C63.5617 20.4883 64.0054 21.0988 64.6239 21.0988C65.0657 21.0988 65.4277 20.7294 65.5573 20.1469C65.6022 19.945 65.6862 19.6563 65.7444 19.5055C65.8447 19.2452 65.8717 19.2653 66.2645 19.9064C66.4922 20.2779 66.9262 20.8312 67.2287 21.1358C67.9274 21.8395 68.8865 22.6323 68.9556 22.5646C68.9848 22.5361 68.7051 22.1207 68.3348 21.6395C67.9644 21.1583 67.2662 20.0407 66.7826 19.156C66.2185 18.1241 65.8355 17.547 65.7155 17.5462C65.3256 17.5436 64.962 18.1568 64.7513 19.1745C64.5086 20.3469 64.0811 20.1504 63.7337 18.7058C63.5335 17.8733 63.6378 16.7521 64.0112 15.7021C64.1811 15.2245 64.3196 14.7824 64.3196 14.7215C64.3196 14.6605 64.0487 14.1494 63.7172 13.5846C63.3856 13.0193 62.9961 12.2193 62.852 11.8057C62.5019 10.8015 62.3357 10.5088 61.6328 9.65518C60.9088 8.77667 60.8402 8.37068 61.417 8.37458C61.8649 8.37753 62.5878 8.67924 63.3145 9.16815C63.7746 9.47766 63.9305 9.5197 64.6693 9.5197C65.5971 9.5197 65.7965 9.5957 67.0829 10.4428C68.3929 11.3055 69.3694 12.1073 70.0455 12.8769C70.6459 13.5605 70.9739 14.1546 72.7407 17.7781C73.4189 19.169 74.0205 19.8405 74.85 20.1279C76.1314 20.572 76.5676 20.7733 77.1321 21.1785L77.7283 21.6061L77.3274 21.6842C77.106 21.7267 76.6238 21.796 76.2563 21.8384C75.4906 21.9269 74.9899 22.2445 74.9899 22.6423C74.9899 23.0906 76.5175 24.3741 78.049 25.2121C78.7848 25.6147 79.4927 26.0113 79.6217 26.0941C79.9648 26.3143 80.0577 26.2877 79.9691 25.9975C79.7836 25.3897 79.1557 24.7977 77.4116 23.5818C76.3885 22.8686 76.3779 22.8951 77.7446 22.7595C78.7183 22.6637 79.2099 22.4974 79.2099 22.2626C79.2099 22.1553 78.7152 21.5848 78.1099 20.9964C77.1626 20.0743 76.8426 19.8448 75.7994 19.3364C74.3784 18.6459 73.8605 18.0975 73.5332 16.9333C73.0447 15.1975 71.7311 13.1576 69.9848 11.4281C68.1827 9.64292 66.4617 8.65515 64.8849 8.50042C64.2439 8.43747 63.9123 8.34021 63.5807 8.1159C63.0195 7.7358 61.7158 7.30707 61.0791 7.2936L61.0795 7.29312ZM64.1983 10.453C64.0692 10.4447 63.9568 10.462 63.8796 10.5147C63.5919 10.7115 63.626 10.9516 63.9639 11.1006C64.1228 11.1707 64.3482 11.418 64.4656 11.6496C64.8604 12.4283 65.4654 11.9069 65.1954 11.0205C65.1103 10.741 64.5856 10.4779 64.1983 10.453V10.453Z" fill="black"/>
<path d="M61.0795 6.24038C60.2559 6.22291 59.8697 6.79237 60.0392 7.77403C60.094 8.09045 60.371 8.54265 60.9685 9.29126C61.6329 10.1235 61.9002 10.5782 62.1897 11.3655C62.6461 12.6066 62.8571 13.0234 63.2275 13.4108C63.5159 13.7129 63.5159 13.7139 63.3222 14.3286C63.0224 15.2812 62.9603 17.1917 63.2012 18.0907C63.5612 19.4348 64.0054 20.0453 64.6243 20.0453C65.0653 20.0453 65.4274 19.6759 65.5569 19.0938C65.6022 18.8917 65.6864 18.6033 65.7443 18.4527C65.8443 18.1917 65.8716 18.2117 66.2643 18.8527C66.4916 19.2243 66.9264 19.778 67.2284 20.0822C67.9274 20.7864 68.8863 21.579 68.9558 21.5116C68.9853 21.4832 68.7053 21.0674 68.3347 20.5864C67.9642 20.1053 67.2663 18.9875 66.7821 18.1033C66.2179 17.0707 65.8358 16.4938 65.7159 16.4928C65.3253 16.4907 64.9622 17.1033 64.7517 18.1212C64.5085 19.2938 64.0811 19.0969 63.7338 17.6528C63.5338 16.8202 63.638 15.6991 64.0117 14.6486C64.1811 14.1718 64.3201 13.7297 64.3201 13.6686C64.3201 13.6076 64.0485 13.096 63.7169 12.5318C63.3854 11.9666 62.9958 11.1666 62.8517 10.7529C62.5016 9.74873 62.3354 9.4561 61.6326 8.60254C60.9085 7.72382 60.84 7.31794 61.4167 7.32173C61.8646 7.32478 62.5875 7.62646 63.3138 8.11529C63.7748 8.42486 63.9306 8.46686 64.6696 8.46686C65.5969 8.46686 65.7958 8.54286 67.0832 9.39C68.3926 10.2529 69.3695 11.055 70.0452 11.8245C70.6452 12.5076 70.9736 13.1023 72.741 16.7254C73.4188 18.1159 74.0199 18.7875 74.8493 19.0748C76.1314 19.519 76.5672 19.7201 77.1314 20.1253L77.7282 20.5538L77.3272 20.6317C77.1061 20.6738 76.623 20.7432 76.2556 20.7853C75.4904 20.8738 74.9893 21.1916 74.9893 21.5895C74.9893 22.0379 76.5167 23.3211 78.0482 24.1589C78.785 24.5621 79.4924 24.9589 79.6219 25.041C79.965 25.2621 80.0576 25.2347 79.9692 24.9452C79.7829 24.3368 79.1556 23.7453 77.4114 22.5295C76.3883 21.8158 76.3777 21.8422 77.744 21.7064C78.7187 21.6095 79.2103 21.4432 79.2103 21.2095C79.2103 21.1022 78.7156 20.5317 78.1103 19.9432C77.163 19.0201 76.843 18.7917 75.7998 18.2833C74.3788 17.5928 73.8609 17.0444 73.5336 15.8802C73.0452 14.1434 71.7315 12.1045 69.9852 10.375C68.1832 8.58928 66.4621 7.60193 64.8853 7.4472C64.2443 7.38425 63.9127 7.28699 63.5812 7.06268C63.0199 6.68258 61.7163 6.25385 61.0795 6.24038V6.24038ZM64.198 9.40031C64.0696 9.392 63.9569 9.40873 63.8801 9.46242C63.5917 9.65925 63.6264 9.89925 63.9643 10.0477C64.1233 10.1182 64.3485 10.3656 64.4654 10.5971C64.8601 11.375 65.4653 10.854 65.1959 9.96767C65.1106 9.68873 64.5853 9.42558 64.198 9.40031V9.40031Z" fill="white"/>
<path opacity="0.1" d="M60.3038 3C58.5817 3 57 4.58171 57 6.30382V7.23486C57 5.51275 58.5817 3.93103 60.3038 3.93103H81.7659C82.4874 3.93103 83.0693 4.51275 83.0693 5.23486V4.30382C83.0693 3.58171 82.4874 3 81.7659 3H60.3038Z" fill="white"/>
<path opacity="0.2" d="M57 25.7655V26.6965C57 28.4181 58.5817 30 60.3038 30H79.7659C81.4874 30 83.0693 28.4181 83.0693 26.6965V25.7655C83.0693 27.4871 81.4874 29.069 79.7659 29.069H60.3038C58.5821 29.069 57 27.4871 57 25.7655Z" fill="black"/>
</svg>
