<svg width="30" height="30" viewBox="0 0 30 30" fill="none" xmlns="http://www.w3.org/2000/svg">
<path d="M28.069 2.80345V26.2655C28.069 26.9854 27.4854 27.569 26.7655 27.569H3.30345C2.58358 27.569 2.00001 26.9854 2.00001 26.2655V2.80345C2.00001 2.08358 2.58358 1.50001 3.30345 1.50001H26.7655C27.4854 1.50001 28.069 2.08358 28.069 2.80345Z" fill="#3670A0"/>
<path opacity="0.2" d="M6.28929 5.76362C5.48869 5.74664 5.1133 6.30016 5.27813 7.25433C5.33133 7.56189 5.60062 8.00112 6.18135 8.72959C6.82718 9.53879 7.08697 9.98058 7.36839 10.7459C7.81203 11.9525 8.01709 12.3571 8.37754 12.7342C8.65754 13.0272 8.65757 13.028 8.46946 13.6255C8.1778 14.552 8.11743 16.4091 8.35157 17.2824C8.70197 18.5893 9.13326 19.1828 9.73444 19.1828C10.1638 19.1828 10.5157 18.8237 10.6417 18.2575C10.6853 18.0612 10.767 17.7807 10.8235 17.6341C10.9211 17.3811 10.9472 17.4006 11.3291 18.0237C11.5504 18.3849 11.9723 18.9227 12.2663 19.2188C12.9455 19.9027 13.8776 20.6733 13.9449 20.6076C13.9732 20.5798 13.7013 20.176 13.3414 19.7083C12.9814 19.2406 12.3028 18.1543 11.8327 17.2943C11.2843 16.2914 10.9121 15.7304 10.7955 15.7296C10.4165 15.7271 10.0631 16.3231 9.85829 17.3123C9.62239 18.4519 9.20681 18.2609 8.86912 16.8567C8.67453 16.0476 8.77595 14.9578 9.13889 13.9372C9.30399 13.4729 9.43864 13.0433 9.43864 12.984C9.43864 12.9248 9.17537 12.428 8.85313 11.8789C8.53084 11.3295 8.15218 10.5519 8.01211 10.1498C7.67182 9.17375 7.51026 8.88931 6.82711 8.05955C6.1233 7.20564 6.05669 6.81102 6.61727 6.8148C7.05265 6.81768 7.7553 7.11094 8.46168 7.58616C8.90889 7.887 9.06045 7.92786 9.77855 7.92786C10.6804 7.92786 10.8742 8.00173 12.1246 8.8251C13.3979 9.66364 14.3471 10.443 15.0042 11.1911C15.5878 11.8555 15.9066 12.433 17.624 15.955C18.2832 17.307 18.8679 17.9597 19.6742 18.2391C20.9197 18.6707 21.3437 18.8664 21.8924 19.2602L22.4719 19.6759L22.0822 19.7518C21.8671 19.7931 21.3983 19.8604 21.0411 19.9017C20.2968 19.9876 19.8101 20.2963 19.8101 20.683C19.8101 21.1188 21.295 22.3664 22.7836 23.1809C23.4988 23.5722 24.1869 23.9577 24.3123 24.0382C24.6458 24.2522 24.7361 24.2263 24.65 23.9442C24.4697 23.3535 23.8593 22.7781 22.1641 21.5963C21.1696 20.903 21.1593 20.9287 22.4878 20.7969C23.4342 20.7038 23.912 20.5422 23.912 20.314C23.912 20.2096 23.4311 19.6551 22.8428 19.0832C21.922 18.1869 21.611 17.9639 20.597 17.4697C19.2158 16.7985 18.7124 16.2655 18.3942 15.1339C17.9195 13.4467 16.6426 11.4639 14.9452 9.78287C13.1936 8.04763 11.5208 7.08752 9.98813 6.93712C9.36504 6.87594 9.04276 6.7814 8.72047 6.56337C8.17493 6.19391 6.90778 5.77719 6.28888 5.76409L6.28929 5.76362ZM9.32074 8.83508C9.19524 8.827 9.08598 8.84377 9.01101 8.89502C8.73127 9.08634 8.76444 9.31967 9.09294 9.46454C9.24735 9.53264 9.4664 9.77299 9.58053 9.99809C9.96431 10.755 10.5524 10.2482 10.2899 9.3866C10.2072 9.115 9.69723 8.8592 9.32074 8.83507V8.83508Z" fill="black"/>
<path d="M6.28929 4.74037C5.48869 4.72339 5.1133 5.2769 5.27813 6.23108C5.33133 6.53863 5.60062 6.97817 6.18135 7.70583C6.82715 8.51472 7.08703 8.95671 7.36839 9.72202C7.81203 10.9283 8.01706 11.3335 8.3771 11.71C8.65744 12.0036 8.65744 12.0046 8.46919 12.6021C8.1778 13.5281 8.11743 15.3851 8.35153 16.2588C8.70144 17.5654 9.1332 18.1588 9.7348 18.1588C10.1635 18.1588 10.5155 17.7997 10.6413 17.2339C10.6853 17.0374 10.7671 16.7571 10.8234 16.6108C10.9206 16.3571 10.9472 16.3765 11.3289 16.9996C11.5498 17.3608 11.9724 17.8989 12.266 18.1946C12.9454 18.8791 13.8775 19.6495 13.945 19.584C13.9737 19.5564 13.7015 19.1523 13.3414 18.6847C12.9812 18.2171 12.3029 17.1305 11.8322 16.2711C11.2838 15.2674 10.9124 14.7067 10.7958 14.7057C10.4162 14.7037 10.0632 15.2991 9.8586 16.2885C9.62226 17.4283 9.20687 17.237 8.86923 15.8332C8.67484 15.0239 8.77613 13.9343 9.13934 12.9132C9.30406 12.4497 9.43912 12.02 9.43912 11.9606C9.43912 11.9013 9.17515 11.4041 8.85286 10.8557C8.53057 10.3062 8.15191 9.52865 8.01184 9.12655C7.67155 8.15048 7.51 7.86605 6.82685 7.03639C6.12303 6.18228 6.05643 5.78775 6.617 5.79144C7.05235 5.7944 7.75504 6.08764 8.461 6.56278C8.90913 6.86368 9.06056 6.90451 9.7788 6.90451C10.6802 6.90451 10.8736 6.97838 12.1249 7.8018C13.3976 8.64056 14.3471 9.42019 15.004 10.1681C15.5871 10.8321 15.9064 11.4102 17.6242 14.9318C18.2831 16.2834 18.8673 16.9362 19.6735 17.2155C20.9197 17.6472 21.3433 17.8426 21.8917 18.2366L22.4718 18.653L22.082 18.7287C21.8672 18.7696 21.3975 18.8371 21.0405 18.8781C20.2966 18.964 19.8096 19.273 19.8096 19.6597C19.8096 20.0956 21.2942 21.3428 22.7829 22.1572C23.4991 22.5491 24.1866 22.9348 24.3124 23.0146C24.646 23.2295 24.736 23.2029 24.6501 22.9215C24.469 22.3301 23.8592 21.7551 22.1639 20.5734C21.1694 19.8797 21.1591 19.9053 22.4872 19.7733C23.4346 19.6792 23.9124 19.5175 23.9124 19.2904C23.9124 19.186 23.4315 18.6315 22.8432 18.0596C21.9224 17.1623 21.6114 16.9402 20.5974 16.4461C19.2162 15.7749 18.7128 15.2418 18.3946 14.1102C17.9199 12.4221 16.643 10.4403 14.9456 8.75925C13.194 7.0235 11.5212 6.0638 9.98854 5.91339C9.36545 5.85221 9.04317 5.75767 8.72088 5.53964C8.17534 5.17019 6.90819 4.75347 6.28929 4.74037V4.74037ZM9.32043 7.81182C9.19561 7.80374 9.08614 7.82001 9.01145 7.87219C8.73111 8.06352 8.76487 8.29679 9.0933 8.44105C9.24779 8.5096 9.46674 8.75004 9.58031 8.97513C9.96399 9.73123 10.5523 9.22478 10.2904 8.36329C10.2075 8.09216 9.69695 7.83638 9.32043 7.81182V7.81182Z" fill="white"/>
<path opacity="0.1" d="M3.30382 1.5C2.58171 1.5 2 2.08171 2 2.80382V3.73486C2 3.01274 2.58171 2.43103 3.30382 2.43103H26.7659C27.4874 2.43103 28.0693 3.01274 28.0693 3.73486V2.80382C28.0693 2.08171 27.4874 1.5 26.7659 1.5H3.30382V1.5Z" fill="white"/>
<path opacity="0.2" d="M2 26.2655V27.1965C2 27.9181 2.58171 28.5 3.30382 28.5H26.7659C27.4874 28.5 28.0693 27.9181 28.0693 27.1965V26.2655C28.0693 26.9871 27.4874 27.569 26.7659 27.569H3.30382C2.58208 27.569 2.00037 26.9871 2.00037 26.2655H2Z" fill="black"/>
</svg>
