<svg width="170" height="30" viewBox="0 0 170 30" fill="none" xmlns="http://www.w3.org/2000/svg">
<path d="M153.069 6.30345V25.7655C153.069 27.4854 151.485 29.069 149.766 29.069H130.303C128.584 29.069 127 27.4854 127 25.7655V6.30345C127 4.58358 128.584 3.00001 130.303 3.00001H149.766C151.485 3.00001 153.069 4.58358 153.069 6.30345Z" fill="#3670A0"/>
<path opacity="0.2" d="M131.08 7.29312C130.256 7.27564 129.87 7.8451 130.039 8.82677C130.094 9.14318 130.371 9.59507 130.968 10.3445C131.633 11.177 131.9 11.6315 132.19 12.4189C132.646 13.6602 132.857 14.0765 133.228 14.4645C133.516 14.7659 133.516 14.7668 133.323 15.3815C133.022 16.3347 132.96 18.2453 133.201 19.1437C133.562 20.4883 134.005 21.0988 134.624 21.0988C135.066 21.0988 135.428 20.7294 135.557 20.1469C135.602 19.945 135.686 19.6563 135.744 19.5055C135.845 19.2452 135.872 19.2653 136.265 19.9064C136.492 20.2779 136.926 20.8312 137.229 21.1358C137.927 21.8395 138.886 22.6323 138.956 22.5646C138.985 22.5361 138.705 22.1207 138.335 21.6395C137.964 21.1583 137.266 20.0407 136.783 19.156C136.218 18.1241 135.836 17.547 135.716 17.5462C135.326 17.5436 134.962 18.1568 134.751 19.1745C134.509 20.3469 134.081 20.1504 133.734 18.7058C133.533 17.8733 133.638 16.7521 134.011 15.7021C134.181 15.2245 134.32 14.7824 134.32 14.7215C134.32 14.6605 134.049 14.1494 133.717 13.5846C133.386 13.0193 132.996 12.2193 132.852 11.8057C132.502 10.8015 132.336 10.5088 131.633 9.65518C130.909 8.77667 130.84 8.37068 131.417 8.37458C131.865 8.37753 132.588 8.67924 133.314 9.16815C133.775 9.47766 133.931 9.5197 134.669 9.5197C135.597 9.5197 135.797 9.5957 137.083 10.4428C138.393 11.3055 139.369 12.1073 140.046 12.8769C140.646 13.5605 140.974 14.1546 142.741 17.7781C143.419 19.169 144.02 19.8405 144.85 20.1279C146.131 20.572 146.568 20.7733 147.132 21.1785L147.728 21.6061L147.327 21.6842C147.106 21.7267 146.624 21.796 146.256 21.8384C145.491 21.9269 144.99 22.2445 144.99 22.6423C144.99 23.0906 146.518 24.3741 148.049 25.2121C148.785 25.6147 149.493 26.0113 149.622 26.0941C149.965 26.3143 150.058 26.2877 149.969 25.9975C149.784 25.3897 149.156 24.7977 147.412 23.5818C146.388 22.8686 146.378 22.8951 147.745 22.7595C148.718 22.6637 149.21 22.4974 149.21 22.2626C149.21 22.1553 148.715 21.5848 148.11 20.9964C147.163 20.0743 146.843 19.8448 145.799 19.3364C144.378 18.6459 143.861 18.0975 143.533 16.9333C143.045 15.1975 141.731 13.1576 139.985 11.4281C138.183 9.64292 136.462 8.65515 134.885 8.50042C134.244 8.43747 133.912 8.34021 133.581 8.1159C133.019 7.7358 131.716 7.30707 131.079 7.2936L131.08 7.29312ZM134.198 10.453C134.069 10.4447 133.957 10.462 133.88 10.5147C133.592 10.7115 133.626 10.9516 133.964 11.1006C134.123 11.1707 134.348 11.418 134.466 11.6496C134.86 12.4283 135.465 11.9069 135.195 11.0205C135.11 10.741 134.586 10.4779 134.198 10.453V10.453Z" fill="black"/>
<path d="M131.08 6.24038C130.256 6.22291 129.87 6.79237 130.039 7.77403C130.094 8.09045 130.371 8.54265 130.968 9.29126C131.633 10.1235 131.9 10.5782 132.19 11.3655C132.646 12.6066 132.857 13.0234 133.227 13.4108C133.516 13.7129 133.516 13.7139 133.322 14.3286C133.022 15.2812 132.96 17.1917 133.201 18.0907C133.561 19.4348 134.005 20.0453 134.624 20.0453C135.065 20.0453 135.427 19.6759 135.557 19.0938C135.602 18.8917 135.686 18.6033 135.744 18.4527C135.844 18.1917 135.872 18.2117 136.264 18.8527C136.492 19.2243 136.926 19.778 137.228 20.0822C137.927 20.7864 138.886 21.579 138.956 21.5116C138.985 21.4832 138.705 21.0674 138.335 20.5864C137.964 20.1053 137.266 18.9875 136.782 18.1033C136.218 17.0707 135.836 16.4938 135.716 16.4928C135.325 16.4907 134.962 17.1033 134.752 18.1212C134.509 19.2938 134.081 19.0969 133.734 17.6528C133.534 16.8202 133.638 15.6991 134.012 14.6486C134.181 14.1718 134.32 13.7297 134.32 13.6686C134.32 13.6076 134.049 13.096 133.717 12.5318C133.385 11.9666 132.996 11.1666 132.852 10.7529C132.502 9.74873 132.335 9.4561 131.633 8.60254C130.908 7.72382 130.84 7.31794 131.417 7.32173C131.865 7.32478 132.587 7.62646 133.314 8.11529C133.775 8.42486 133.931 8.46686 134.67 8.46686C135.597 8.46686 135.796 8.54286 137.083 9.39C138.393 10.2529 139.369 11.055 140.045 11.8245C140.645 12.5076 140.974 13.1023 142.741 16.7254C143.419 18.1159 144.02 18.7875 144.849 19.0748C146.131 19.519 146.567 19.7201 147.131 20.1253L147.728 20.5538L147.327 20.6317C147.106 20.6738 146.623 20.7432 146.256 20.7853C145.49 20.8738 144.989 21.1916 144.989 21.5895C144.989 22.0379 146.517 23.3211 148.048 24.1589C148.785 24.5621 149.492 24.9589 149.622 25.041C149.965 25.2621 150.058 25.2347 149.969 24.9452C149.783 24.3368 149.156 23.7453 147.411 22.5295C146.388 21.8158 146.378 21.8422 147.744 21.7064C148.719 21.6095 149.21 21.4432 149.21 21.2095C149.21 21.1022 148.716 20.5317 148.11 19.9432C147.163 19.0201 146.843 18.7917 145.8 18.2833C144.379 17.5928 143.861 17.0444 143.534 15.8802C143.045 14.1434 141.732 12.1045 139.985 10.375C138.183 8.58928 136.462 7.60193 134.885 7.4472C134.244 7.38425 133.913 7.28699 133.581 7.06268C133.02 6.68258 131.716 6.25385 131.08 6.24038V6.24038ZM134.198 9.40031C134.07 9.392 133.957 9.40873 133.88 9.46242C133.592 9.65925 133.626 9.89925 133.964 10.0477C134.123 10.1182 134.349 10.3656 134.465 10.5971C134.86 11.375 135.465 10.854 135.196 9.96767C135.111 9.68873 134.585 9.42558 134.198 9.40031V9.40031Z" fill="white"/>
<path opacity="0.1" d="M130.304 3C128.582 3 127 4.58171 127 6.30382V7.23486C127 5.51275 128.582 3.93103 130.304 3.93103H151.766C152.487 3.93103 153.069 4.51275 153.069 5.23486V4.30382C153.069 3.58171 152.487 3 151.766 3H130.304Z" fill="white"/>
<path opacity="0.2" d="M127 25.7655V26.6965C127 28.4181 128.582 30 130.304 30H149.766C151.487 30 153.069 28.4181 153.069 26.6965V25.7655C153.069 27.4871 151.487 29.069 149.766 29.069H130.304C128.582 29.069 127 27.4871 127 25.7655Z" fill="black"/>
<circle cx="101" cy="15" r="5" fill="black" fill-opacity="0.5"/>
</svg>
