<svg width="45" height="30" viewBox="0 0 45 30" fill="none" xmlns="http://www.w3.org/2000/svg">
<path d="M28.069 6.30345V25.7655C28.069 27.4854 26.4854 29.069 24.7655 29.069H5.30345C3.58358 29.069 2.00001 27.4854 2.00001 25.7655V6.30345C2.00001 4.58358 3.58358 3.00001 5.30345 3.00001H24.7655C26.4854 3.00001 28.069 4.58358 28.069 6.30345Z" fill="#3670A0"/>
<path opacity="0.2" d="M6.07953 7.29312C5.25586 7.27564 4.86966 7.8451 5.03924 8.82677C5.09397 9.14318 5.37102 9.59507 5.96848 10.3445C6.63291 11.177 6.90019 11.6315 7.18972 12.4189C7.64613 13.6602 7.8571 14.0765 8.22794 14.4645C8.51599 14.7659 8.51602 14.7668 8.3225 15.3815C8.02243 16.3347 7.96033 18.2453 8.20121 19.1437C8.56171 20.4883 9.00542 21.0988 9.62392 21.0988C10.0657 21.0988 10.4277 20.7294 10.5573 20.1469C10.6022 19.945 10.6862 19.6563 10.7444 19.5055C10.8447 19.2452 10.8717 19.2653 11.2645 19.9064C11.4922 20.2779 11.9262 20.8312 12.2287 21.1358C12.9274 21.8395 13.8865 22.6323 13.9556 22.5646C13.9848 22.5361 13.7051 22.1207 13.3348 21.6395C12.9644 21.1583 12.2662 20.0407 11.7826 19.156C11.2185 18.1241 10.8355 17.547 10.7155 17.5462C10.3256 17.5436 9.962 18.1568 9.75133 19.1745C9.50865 20.3469 9.08109 20.1504 8.73367 18.7058C8.53348 17.8733 8.63782 16.7521 9.01121 15.7021C9.18107 15.2245 9.3196 14.7824 9.3196 14.7215C9.3196 14.6605 9.04875 14.1494 8.71722 13.5846C8.38565 13.0193 7.99608 12.2193 7.85198 11.8057C7.50188 10.8015 7.33567 10.5088 6.63284 9.65518C5.90875 8.77667 5.84023 8.37068 6.41695 8.37458C6.86488 8.37753 7.58777 8.67924 8.31449 9.16815C8.77459 9.47766 8.93051 9.5197 9.6693 9.5197C10.5971 9.5197 10.7965 9.5957 12.0829 10.4428C13.3929 11.3055 14.3694 12.1073 15.0455 12.8769C15.6459 13.5605 15.9739 14.1546 17.7407 17.7781C18.4189 19.169 19.0205 19.8405 19.85 20.1279C21.1314 20.572 21.5676 20.7733 22.1321 21.1785L22.7283 21.6061L22.3274 21.6842C22.106 21.7267 21.6238 21.796 21.2563 21.8384C20.4906 21.9269 19.9899 22.2445 19.9899 22.6423C19.9899 23.0906 21.5175 24.3741 23.049 25.2121C23.7848 25.6147 24.4927 26.0113 24.6217 26.0941C24.9648 26.3143 25.0577 26.2877 24.9691 25.9975C24.7836 25.3897 24.1557 24.7977 22.4116 23.5818C21.3885 22.8686 21.3779 22.8951 22.7446 22.7595C23.7183 22.6637 24.2099 22.4974 24.2099 22.2626C24.2099 22.1553 23.7152 21.5848 23.1099 20.9964C22.1626 20.0743 21.8426 19.8448 20.7994 19.3364C19.3784 18.6459 18.8605 18.0975 18.5332 16.9333C18.0447 15.1975 16.7311 13.1576 14.9848 11.4281C13.1827 9.64292 11.4617 8.65515 9.88492 8.50042C9.24388 8.43747 8.91231 8.34021 8.58074 8.1159C8.01949 7.7358 6.71583 7.30707 6.07911 7.2936L6.07953 7.29312ZM9.1983 10.453C9.06919 10.4447 8.95678 10.462 8.87965 10.5147C8.59185 10.7115 8.62598 10.9516 8.96394 11.1006C9.1228 11.1707 9.34815 11.418 9.46557 11.6496C9.86041 12.4283 10.4654 11.9069 10.1954 11.0205C10.1103 10.741 9.58563 10.4779 9.1983 10.453V10.453Z" fill="black"/>
<path d="M6.07953 6.24038C5.25586 6.22291 4.86966 6.79237 5.03924 7.77403C5.09397 8.09045 5.37102 8.54265 5.96848 9.29126C6.63289 10.1235 6.90025 10.5782 7.18972 11.3655C7.64613 12.6066 7.85707 13.0234 8.22748 13.4108C8.5159 13.7129 8.5159 13.7139 8.32222 14.3286C8.02243 15.2812 7.96033 17.1917 8.20117 18.0907C8.56116 19.4348 9.00536 20.0453 9.62429 20.0453C10.0653 20.0453 10.4274 19.6759 10.5569 19.0938C10.6022 18.8917 10.6864 18.6033 10.7443 18.4527C10.8443 18.1917 10.8716 18.2117 11.2643 18.8527C11.4916 19.2243 11.9264 19.778 12.2284 20.0822C12.9274 20.7864 13.8863 21.579 13.9558 21.5116C13.9853 21.4832 13.7053 21.0674 13.3347 20.5864C12.9642 20.1053 12.2663 18.9875 11.7821 18.1033C11.2179 17.0707 10.8358 16.4938 10.7159 16.4928C10.3253 16.4907 9.96218 17.1033 9.75166 18.1212C9.50851 19.2938 9.08115 19.0969 8.73379 17.6528C8.53379 16.8202 8.638 15.6991 9.01168 14.6486C9.18115 14.1718 9.32009 13.7297 9.32009 13.6686C9.32009 13.6076 9.04852 13.096 8.71695 12.5318C8.38537 11.9666 7.9958 11.1666 7.8517 10.7529C7.5016 9.74873 7.3354 9.4561 6.63257 8.60254C5.90848 7.72382 5.83996 7.31794 6.41668 7.32173C6.86457 7.32478 7.5875 7.62646 8.3138 8.11529C8.77484 8.42486 8.93063 8.46686 9.66956 8.46686C10.5969 8.46686 10.7958 8.54286 12.0832 9.39C13.3926 10.2529 14.3695 11.055 15.0452 11.8245C15.6452 12.5076 15.9736 13.1023 17.741 16.7254C18.4188 18.1159 19.0199 18.7875 19.8493 19.0748C21.1314 19.519 21.5672 19.7201 22.1314 20.1253L22.7282 20.5538L22.3272 20.6317C22.1061 20.6738 21.623 20.7432 21.2556 20.7853C20.4904 20.8738 19.9893 21.1916 19.9893 21.5895C19.9893 22.0379 21.5167 23.3211 23.0482 24.1589C23.785 24.5621 24.4924 24.9589 24.6219 25.041C24.965 25.2621 25.0576 25.2347 24.9692 24.9452C24.7829 24.3368 24.1556 23.7453 22.4114 22.5295C21.3883 21.8158 21.3777 21.8422 22.744 21.7064C23.7187 21.6095 24.2103 21.4432 24.2103 21.2095C24.2103 21.1022 23.7156 20.5317 23.1103 19.9432C22.163 19.0201 21.843 18.7917 20.7998 18.2833C19.3788 17.5928 18.8609 17.0444 18.5336 15.8802C18.0452 14.1434 16.7315 12.1045 14.9852 10.375C13.1832 8.58928 11.4621 7.60193 9.88534 7.4472C9.2443 7.38425 8.91273 7.28699 8.58116 7.06268C8.01991 6.68258 6.71625 6.25385 6.07953 6.24038V6.24038ZM9.19799 9.40031C9.06957 9.392 8.95694 9.40873 8.8801 9.46242C8.59169 9.65925 8.62642 9.89925 8.96431 10.0477C9.12325 10.1182 9.34851 10.3656 9.46535 10.5971C9.86008 11.375 10.4653 10.854 10.1959 9.96767C10.1106 9.68873 9.58535 9.42558 9.19799 9.40031V9.40031Z" fill="white"/>
<path opacity="0.1" d="M5.30382 3C3.58171 3 2 4.58171 2 6.30382V7.23486C2 5.51275 3.58171 3.93103 5.30382 3.93103H26.7659C27.4874 3.93103 28.0693 4.51275 28.0693 5.23486V4.30382C28.0693 3.58171 27.4874 3 26.7659 3H5.30382Z" fill="white"/>
<path opacity="0.2" d="M2 25.7655V26.6965C2 28.4181 3.58171 30 5.30382 30H24.7659C26.4874 30 28.0693 28.4181 28.0693 26.6965V25.7655C28.0693 27.4871 26.4874 29.069 24.7659 29.069H5.30382C3.58208 29.069 2 27.4871 2 25.7655Z" fill="black"/>
</svg>
