<svg width="30" height="30" viewBox="0 0 30 30" fill="none" xmlns="http://www.w3.org/2000/svg">
<path d="M28.069 4.80345V24.2655C28.069 25.9854 26.4854 27.569 24.7655 27.569H5.30345C3.58358 27.569 2.00001 25.9854 2.00001 24.2655V4.80345C2.00001 3.08358 3.58358 1.50001 5.30345 1.50001H24.7655C26.4854 1.50001 28.069 3.08358 28.069 4.80345Z" fill="#3670A0"/>
<path opacity="0.2" d="M6.07953 5.79312C5.25586 5.77564 4.86966 6.3451 5.03924 7.32677C5.09397 7.64318 5.37102 8.09507 5.96848 8.84452C6.63291 9.67703 6.90019 10.1315 7.18972 10.9189C7.64613 12.1602 7.8571 12.5765 8.22794 12.9645C8.51599 13.2659 8.51602 13.2668 8.3225 13.8815C8.02243 14.8347 7.96033 16.7453 8.20121 17.6437C8.56171 18.9883 9.00542 19.5988 9.62392 19.5988C10.0657 19.5988 10.4277 19.2294 10.5573 18.6469C10.6022 18.445 10.6862 18.1563 10.7444 18.0055C10.8447 17.7452 10.8717 17.7653 11.2645 18.4064C11.4922 18.7779 11.9262 19.3312 12.2287 19.6358C12.9274 20.3395 13.8865 21.1323 13.9556 21.0646C13.9848 21.0361 13.7051 20.6207 13.3348 20.1395C12.9644 19.6583 12.2662 18.5407 11.7826 17.656C11.2185 16.6241 10.8355 16.047 10.7155 16.0462C10.3256 16.0436 9.962 16.6568 9.75133 17.6745C9.50865 18.8469 9.08109 18.6504 8.73367 17.2058C8.53348 16.3733 8.63782 15.2521 9.01121 14.2021C9.18107 13.7245 9.3196 13.2824 9.3196 13.2215C9.3196 13.1605 9.04875 12.6494 8.71722 12.0846C8.38565 11.5193 7.99608 10.7193 7.85198 10.3057C7.50188 9.30147 7.33567 9.00885 6.63284 8.15518C5.90875 7.27667 5.84023 6.87068 6.41695 6.87458C6.86488 6.87753 7.58777 7.17924 8.31449 7.66815C8.77459 7.97766 8.93051 8.0197 9.6693 8.0197C10.5971 8.0197 10.7965 8.0957 12.0829 8.94278C13.3929 9.80548 14.3694 10.6073 15.0455 11.3769C15.6459 12.0605 15.9739 12.6546 17.7407 16.2781C18.4189 17.669 19.0205 18.3405 19.85 18.6279C21.1314 19.072 21.5676 19.2733 22.1321 19.6785L22.7283 20.1061L22.3274 20.1842C22.106 20.2267 21.6238 20.296 21.2563 20.3384C20.4906 20.4269 19.9899 20.7445 19.9899 21.1423C19.9899 21.5906 21.5175 22.8741 23.049 23.7121C23.7848 24.1147 24.4927 24.5113 24.6217 24.5941C24.9648 24.8143 25.0577 24.7877 24.9691 24.4975C24.7836 23.8897 24.1557 23.2977 22.4116 22.0818C21.3885 21.3686 21.3779 21.3951 22.7446 21.2595C23.7183 21.1637 24.2099 20.9974 24.2099 20.7626C24.2099 20.6553 23.7152 20.0848 23.1099 19.4964C22.1626 18.5743 21.8426 18.3448 20.7994 17.8364C19.3784 17.1459 18.8605 16.5975 18.5332 15.4333C18.0447 13.6975 16.7311 11.6576 14.9848 9.92814C13.1827 8.14292 11.4617 7.15515 9.88492 7.00042C9.24388 6.93747 8.91231 6.84021 8.58074 6.6159C8.01949 6.2358 6.71583 5.80707 6.07911 5.7936L6.07953 5.79312ZM9.1983 8.95305C9.06919 8.94473 8.95678 8.96199 8.87965 9.01472C8.59185 9.21155 8.62598 9.45159 8.96394 9.60064C9.1228 9.6707 9.34815 9.91797 9.46557 10.1496C9.86041 10.9283 10.4654 10.4069 10.1954 9.52046C10.1103 9.24103 9.58563 8.97787 9.1983 8.95304V8.95305Z" fill="black"/>
<path d="M6.07953 4.74038C5.25586 4.72291 4.86966 5.29237 5.03924 6.27403C5.09397 6.59045 5.37102 7.04265 5.96848 7.79126C6.63289 8.62346 6.90025 9.07818 7.18972 9.86553C7.64613 11.1066 7.85707 11.5234 8.22748 11.9108C8.5159 12.2129 8.5159 12.2139 8.32222 12.8286C8.02243 13.7812 7.96033 15.6917 8.20117 16.5907C8.56116 17.9348 9.00536 18.5453 9.62429 18.5453C10.0653 18.5453 10.4274 18.1759 10.5569 17.5938C10.6022 17.3917 10.6864 17.1033 10.7443 16.9527C10.8443 16.6917 10.8716 16.7117 11.2643 17.3527C11.4916 17.7243 11.9264 18.278 12.2284 18.5822C12.9274 19.2864 13.8863 20.079 13.9558 20.0116C13.9853 19.9832 13.7053 19.5674 13.3347 19.0864C12.9642 18.6053 12.2663 17.4875 11.7821 16.6033C11.2179 15.5707 10.8358 14.9938 10.7159 14.9928C10.3253 14.9907 9.96218 15.6033 9.75166 16.6212C9.50851 17.7938 9.08115 17.5969 8.73379 16.1528C8.53379 15.3202 8.638 14.1991 9.01168 13.1486C9.18115 12.6718 9.32009 12.2297 9.32009 12.1686C9.32009 12.1076 9.04852 11.596 8.71695 11.0318C8.38537 10.4666 7.9958 9.66659 7.8517 9.25292C7.5016 8.24873 7.3354 7.9561 6.63257 7.10254C5.90848 6.22382 5.83996 5.81794 6.41668 5.82173C6.86457 5.82478 7.5875 6.12646 8.3138 6.61529C8.77484 6.92486 8.93063 6.96686 9.66956 6.96686C10.5969 6.96686 10.7958 7.04286 12.0832 7.89C13.3926 8.75293 14.3695 9.55501 15.0452 10.3245C15.6452 11.0076 15.9736 11.6023 17.741 15.2254C18.4188 16.6159 19.0199 17.2875 19.8493 17.5748C21.1314 18.019 21.5672 18.2201 22.1314 18.6253L22.7282 19.0538L22.3272 19.1317C22.1061 19.1738 21.623 19.2432 21.2556 19.2853C20.4904 19.3738 19.9893 19.6916 19.9893 20.0895C19.9893 20.5379 21.5167 21.8211 23.0482 22.6589C23.785 23.0621 24.4924 23.4589 24.6219 23.541C24.965 23.7621 25.0576 23.7347 24.9692 23.4452C24.7829 22.8368 24.1556 22.2453 22.4114 21.0295C21.3883 20.3158 21.3777 20.3422 22.744 20.2064C23.7187 20.1095 24.2103 19.9432 24.2103 19.7095C24.2103 19.6022 23.7156 19.0317 23.1103 18.4432C22.163 17.5201 21.843 17.2917 20.7998 16.7833C19.3788 16.0928 18.8609 15.5444 18.5336 14.3802C18.0452 12.6434 16.7315 10.6045 14.9852 8.87503C13.1832 7.08928 11.4621 6.10193 9.88534 5.9472C9.2443 5.88425 8.91273 5.78699 8.58116 5.56268C8.01991 5.18258 6.71625 4.75385 6.07953 4.74038V4.74038ZM9.19799 7.90031C9.06957 7.892 8.95694 7.90873 8.8801 7.96242C8.59169 8.15925 8.62642 8.39925 8.96431 8.54767C9.12325 8.61819 9.34851 8.86556 9.46535 9.09713C9.86008 9.87501 10.4653 9.35397 10.1959 8.46767C10.1106 8.18873 9.58535 7.92558 9.19799 7.90031V7.90031Z" fill="white"/>
<path opacity="0.1" d="M5.30382 1.5C3.58171 1.5 2 3.08171 2 4.80382V5.73486C2 4.01275 3.58171 2.43103 5.30382 2.43103H26.7659C27.4874 2.43103 28.0693 3.01275 28.0693 3.73486V2.80382C28.0693 2.08171 27.4874 1.5 26.7659 1.5H5.30382Z" fill="white"/>
<path opacity="0.2" d="M2 24.2655V25.1965C2 26.9181 3.58171 28.5 5.30382 28.5H24.7659C26.4874 28.5 28.0693 26.9181 28.0693 25.1965V24.2655C28.0693 25.9871 26.4874 27.569 24.7659 27.569H5.30382C3.58208 27.569 2 25.9871 2 24.2655Z" fill="black"/>
</svg>
