<svg width="30" height="30" viewBox="0 0 30 30" fill="none" xmlns="http://www.w3.org/2000/svg">
<path d="M22.5928 1.875H8.28467V28.125H27.8878V7.395L22.6575 1.9425L22.5928 1.875Z" fill="#070444"/>
<path d="M2.11218 3.27466H21.15V10.6284H2.11218V3.27466Z" fill="#5BC3F6"/>
<path d="M22.5928 1.875V7.395H27.8878L22.5928 1.875Z" fill="#5BC3F6"/>
<path d="M6.65625 4.67532C7.04007 4.60374 7.4303 4.57233 7.82063 4.58157C8.02137 4.56369 8.22365 4.58707 8.41503 4.65027C8.6064 4.71347 8.78282 4.81516 8.93344 4.94907C9.20871 5.2601 9.35285 5.66564 9.33563 6.08063C9.35624 6.49061 9.238 6.89555 9 7.23001C8.85304 7.39398 8.67106 7.52278 8.46755 7.60684C8.26404 7.69091 8.04421 7.72809 7.82437 7.71563C7.74729 7.7155 7.67028 7.7108 7.59375 7.70157V9.29532H6.65625V4.67532ZM7.59375 6.74345C7.66458 6.75319 7.73601 6.75789 7.8075 6.75751C7.89216 6.76093 7.97656 6.74584 8.05478 6.71327C8.13301 6.68071 8.20318 6.63146 8.26041 6.56897C8.31763 6.50648 8.36052 6.43225 8.38609 6.35147C8.41166 6.27068 8.41929 6.18529 8.40844 6.10126C8.41845 6.02675 8.41193 5.95094 8.38933 5.87924C8.36673 5.80753 8.32862 5.74169 8.27769 5.68638C8.22677 5.63107 8.16429 5.58766 8.09469 5.55923C8.02509 5.5308 7.95008 5.51805 7.875 5.52188C7.78043 5.51905 7.68589 5.5285 7.59375 5.55001V6.74345Z" fill="#070444"/>
<path d="M10.3903 8.04185C10.6614 8.22329 10.9782 8.32436 11.3043 8.33341C11.6278 8.33341 11.7853 8.18716 11.7853 7.95185C11.7853 7.71654 11.625 7.59372 11.2312 7.40622C10.942 7.30186 10.692 7.11082 10.5153 6.85916C10.3386 6.60749 10.2439 6.30746 10.244 5.99997C10.2297 5.80895 10.2558 5.61704 10.3206 5.43678C10.3854 5.25651 10.4874 5.09192 10.6201 4.95375C10.7528 4.81558 10.9131 4.70693 11.0906 4.63488C11.2681 4.56283 11.4588 4.529 11.6503 4.5356C11.9854 4.52615 12.3165 4.61023 12.6065 4.77841L12.4125 5.77872C12.1818 5.63552 11.9161 5.55865 11.6446 5.55654C11.3578 5.55654 11.2003 5.69529 11.2003 5.90341C11.2003 6.13966 11.3878 6.23622 11.8321 6.45841C12.1128 6.56788 12.3522 6.76222 12.5171 7.01431C12.682 7.26641 12.764 7.56369 12.7518 7.86466C12.7667 8.06544 12.738 8.26706 12.6679 8.45578C12.5978 8.64449 12.4878 8.81587 12.3454 8.95823C12.203 9.10059 12.0317 9.21059 11.8429 9.28073C11.6542 9.35086 11.4526 9.37949 11.2518 9.36466C10.8878 9.36388 10.5311 9.26301 10.2206 9.0731L10.3903 8.04185Z" fill="#070444"/>
<path d="M14.6437 8.41874H14.5499V5.3953H14.5631C14.7658 5.37243 14.9707 5.40925 15.1528 5.50124C15.2867 5.60838 15.3958 5.74337 15.4724 5.89687C15.555 6.0579 15.6026 6.23457 15.6121 6.4153C15.6215 6.63187 15.6121 6.80624 15.6121 6.95718C15.616 7.12625 15.605 7.29534 15.5793 7.46249C15.5491 7.63531 15.4929 7.80253 15.4124 7.95843C15.3218 8.10272 15.1993 8.22428 15.0543 8.31374C14.9328 8.39221 14.7889 8.42876 14.6446 8.4178L14.6437 8.41874ZM14.8246 4.53562C14.7149 4.53562 14.609 4.54405 14.534 4.54687L14.3024 4.55343H13.5337V9.29155H14.4374C14.7836 9.30116 15.1283 9.24255 15.4518 9.11905C15.713 9.01601 15.9444 8.84942 16.1249 8.63437C16.2997 8.41779 16.4252 8.16567 16.4924 7.89562C16.5701 7.58925 16.6079 7.27415 16.6049 6.95812C16.624 6.58533 16.595 6.21164 16.5187 5.84624C16.4454 5.577 16.3088 5.32918 16.1203 5.12343C15.9736 4.95643 15.7939 4.82171 15.5924 4.7278C15.4198 4.64762 15.2382 4.58845 15.0515 4.55155C14.9772 4.53924 14.9019 4.53359 14.8265 4.53468" fill="#070444"/>
<path d="M15 18.4228C14.7184 18.4307 14.4366 18.421 14.1563 18.3937V15.1219C14.2603 15.1069 14.625 15.0928 15.1313 15.0928C16.35 15.0928 16.8872 15.6047 16.8872 16.7719C16.8872 18.2306 16.0285 18.4228 15.001 18.4228H15ZM15.1313 13.7062C14.1431 13.7062 13.1672 13.7212 12.6731 13.7353C12.6085 13.7353 12.5953 13.7644 12.5953 13.8375V23.1469C12.5953 23.22 12.6216 23.249 12.6891 23.249H14.0625C14.1272 23.249 14.1563 23.22 14.1563 23.1319V19.8094H14.9625C16.8741 19.8094 18.4481 19.1925 18.4481 16.8731C18.435 15.1809 17.6813 13.7062 15.1313 13.7062" fill="#5BC3F6"/>
<path d="M21.6328 16.1419C21.3338 16.1056 21.0306 16.1333 20.7431 16.2231C20.4556 16.313 20.1906 16.4629 19.9655 16.663C19.7404 16.8631 19.5604 17.1088 19.4375 17.3838C19.3146 17.6587 19.2515 17.9566 19.2525 18.2578C19.2525 19.3228 19.7213 19.8919 21.06 20.5078C21.9975 20.9306 22.2309 21.15 22.2309 21.5288C22.2309 21.8494 22.0228 22.185 21.4247 22.185C20.6592 22.14 19.9251 21.8652 19.3181 21.3966C19.309 21.3894 19.2978 21.3855 19.2863 21.3853C19.2553 21.3853 19.2272 21.4153 19.2272 21.4697V22.8122C19.2242 22.8415 19.2301 22.8711 19.2439 22.8971C19.2578 22.9232 19.279 22.9445 19.305 22.9584C19.9079 23.3385 20.6079 23.5362 21.3206 23.5275C21.6336 23.5655 21.951 23.5349 22.251 23.4379C22.5509 23.3408 22.8261 23.1797 23.0575 22.9656C23.2889 22.7515 23.4709 22.4896 23.591 22.1981C23.711 21.9066 23.7661 21.5925 23.7525 21.2775C23.7525 20.2266 23.1806 19.6838 21.8409 19.0744C20.8659 18.6366 20.6963 18.4472 20.6963 18.0966C20.6963 17.8153 20.865 17.4834 21.5025 17.4834C22.1439 17.502 22.7684 17.6934 23.31 18.0375C23.3242 18.0479 23.3412 18.0537 23.3588 18.0544C23.3991 18.0544 23.4272 18.0141 23.4272 17.9494V16.755C23.4311 16.7197 23.4261 16.684 23.4124 16.6512C23.3988 16.6184 23.3771 16.5896 23.3494 16.5675C22.8292 16.2658 22.2336 16.1191 21.6328 16.1447" fill="#5BC3F6"/>
</svg>
