<svg width="170" height="30" viewBox="0 0 170 30" fill="none" xmlns="http://www.w3.org/2000/svg">
<g clip-path="url(#clip0_200_714)">
<path d="M147.593 4H133.285V30.25H152.888V9.52L147.657 4.0675L147.593 4Z" fill="#070444"/>
<path d="M127.112 5.39966H146.15V12.7534H127.112V5.39966Z" fill="#5BC3F6"/>
<path d="M147.593 4V9.52H152.888L147.593 4Z" fill="#5BC3F6"/>
<path d="M131.656 6.80032C132.04 6.72874 132.43 6.69733 132.821 6.70657C133.021 6.68869 133.224 6.71207 133.415 6.77527C133.606 6.83847 133.783 6.94016 133.933 7.07407C134.209 7.3851 134.353 7.79064 134.336 8.20563C134.356 8.61561 134.238 9.02055 134 9.35501C133.853 9.51898 133.671 9.64778 133.468 9.73184C133.264 9.81591 133.044 9.85309 132.824 9.84063C132.747 9.8405 132.67 9.8358 132.594 9.82657V11.4203H131.656V6.80032ZM132.594 8.86845C132.665 8.87819 132.736 8.88289 132.808 8.88251C132.892 8.88593 132.977 8.87084 133.055 8.83827C133.133 8.80571 133.203 8.75646 133.26 8.69397C133.318 8.63148 133.361 8.55725 133.386 8.47647C133.412 8.39568 133.419 8.31029 133.408 8.22626C133.418 8.15175 133.412 8.07594 133.389 8.00424C133.367 7.93253 133.329 7.86669 133.278 7.81138C133.227 7.75607 133.164 7.71266 133.095 7.68423C133.025 7.6558 132.95 7.64305 132.875 7.64688C132.78 7.64405 132.686 7.6535 132.594 7.67501V8.86845Z" fill="#070444"/>
<path d="M135.39 10.1668C135.661 10.3483 135.978 10.4494 136.304 10.4584C136.628 10.4584 136.785 10.3122 136.785 10.0768C136.785 9.84154 136.625 9.71872 136.231 9.53122C135.942 9.42686 135.692 9.23582 135.515 8.98416C135.339 8.73249 135.244 8.43246 135.244 8.12497C135.23 7.93395 135.256 7.74204 135.321 7.56178C135.385 7.38151 135.487 7.21692 135.62 7.07875C135.753 6.94058 135.913 6.83193 136.091 6.75988C136.268 6.68783 136.459 6.654 136.65 6.6606C136.985 6.65115 137.317 6.73523 137.607 6.90341L137.412 7.90372C137.182 7.76052 136.916 7.68365 136.645 7.68154C136.358 7.68154 136.2 7.82029 136.2 8.02841C136.2 8.26466 136.388 8.36122 136.832 8.58341C137.113 8.69288 137.352 8.88722 137.517 9.13931C137.682 9.39141 137.764 9.68869 137.752 9.98966C137.767 10.1904 137.738 10.3921 137.668 10.5808C137.598 10.7695 137.488 10.9409 137.345 11.0832C137.203 11.2256 137.032 11.3356 136.843 11.4057C136.654 11.4759 136.453 11.5045 136.252 11.4897C135.888 11.4889 135.531 11.388 135.221 11.1981L135.39 10.1668Z" fill="#070444"/>
<path d="M139.644 10.5437H139.55V7.5203H139.563C139.766 7.49743 139.971 7.53425 140.153 7.62624C140.287 7.73338 140.396 7.86837 140.472 8.02187C140.555 8.1829 140.603 8.35957 140.612 8.5403C140.622 8.75687 140.612 8.93124 140.612 9.08218C140.616 9.25125 140.605 9.42034 140.579 9.58749C140.549 9.76031 140.493 9.92753 140.412 10.0834C140.322 10.2277 140.199 10.3493 140.054 10.4387C139.933 10.5172 139.789 10.5538 139.645 10.5428L139.644 10.5437ZM139.825 6.66062C139.715 6.66062 139.609 6.66905 139.534 6.67187L139.302 6.67843H138.534V11.4166H139.437C139.784 11.4262 140.128 11.3676 140.452 11.2441C140.713 11.141 140.944 10.9744 141.125 10.7594C141.3 10.5428 141.425 10.2907 141.492 10.0206C141.57 9.71425 141.608 9.39915 141.605 9.08312C141.624 8.71033 141.595 8.33664 141.519 7.97124C141.445 7.702 141.309 7.45418 141.12 7.24843C140.974 7.08143 140.794 6.94671 140.592 6.8528C140.42 6.77262 140.238 6.71345 140.052 6.67655C139.977 6.66424 139.902 6.65859 139.827 6.65968" fill="#070444"/>
<path d="M140 20.5478C139.718 20.5557 139.437 20.546 139.156 20.5187V17.2469C139.26 17.2319 139.625 17.2178 140.131 17.2178C141.35 17.2178 141.887 17.7297 141.887 18.8969C141.887 20.3556 141.028 20.5478 140.001 20.5478H140ZM140.131 15.8312C139.143 15.8312 138.167 15.8462 137.673 15.8603C137.608 15.8603 137.595 15.8894 137.595 15.9625V25.2719C137.595 25.345 137.622 25.374 137.689 25.374H139.063C139.127 25.374 139.156 25.345 139.156 25.2569V21.9344H139.963C141.874 21.9344 143.448 21.3175 143.448 18.9981C143.435 17.3059 142.681 15.8312 140.131 15.8312" fill="#5BC3F6"/>
<path d="M146.633 18.2669C146.334 18.2306 146.031 18.2583 145.743 18.3481C145.456 18.438 145.191 18.5879 144.965 18.788C144.74 18.9881 144.56 19.2338 144.437 19.5088C144.315 19.7837 144.252 20.0816 144.252 20.3828C144.252 21.4478 144.721 22.0169 146.06 22.6328C146.998 23.0556 147.231 23.275 147.231 23.6538C147.231 23.9744 147.023 24.31 146.425 24.31C145.659 24.265 144.925 23.9902 144.318 23.5216C144.309 23.5144 144.298 23.5105 144.286 23.5103C144.255 23.5103 144.227 23.5403 144.227 23.5947V24.9372C144.224 24.9665 144.23 24.9961 144.244 25.0221C144.258 25.0482 144.279 25.0695 144.305 25.0834C144.908 25.4635 145.608 25.6612 146.321 25.6525C146.634 25.6905 146.951 25.6599 147.251 25.5629C147.551 25.4658 147.826 25.3047 148.058 25.0906C148.289 24.8765 148.471 24.6146 148.591 24.3231C148.711 24.0316 148.766 23.7175 148.753 23.4025C148.753 22.3516 148.181 21.8088 146.841 21.1994C145.866 20.7616 145.696 20.5722 145.696 20.2216C145.696 19.9403 145.865 19.6084 146.503 19.6084C147.144 19.627 147.768 19.8184 148.31 20.1625C148.324 20.1729 148.341 20.1787 148.359 20.1794C148.399 20.1794 148.427 20.1391 148.427 20.0744V18.88C148.431 18.8447 148.426 18.809 148.412 18.7762C148.399 18.7434 148.377 18.7146 148.349 18.6925C147.829 18.3908 147.234 18.2441 146.633 18.2697" fill="#5BC3F6"/>
<circle cx="101" cy="15" r="5" fill="black" fill-opacity="0.5"/>
</g>
<defs>
<clipPath id="clip0_200_714">
<rect width="170" height="30" fill="white"/>
</clipPath>
</defs>
</svg>
