<svg width="100" height="30" viewBox="0 0 100 30" fill="none" xmlns="http://www.w3.org/2000/svg">
<g clip-path="url(#clip0_200_714)">
<path d="M77.5928 4H63.2847V30.25H82.8878V9.52L77.6575 4.0675L77.5928 4Z" fill="#070444"/>
<path d="M57.1122 5.39966H76.15V12.7534H57.1122V5.39966Z" fill="#5BC3F6"/>
<path d="M77.5928 4V9.52H82.8878L77.5928 4Z" fill="#5BC3F6"/>
<path d="M61.6562 6.80032C62.0401 6.72874 62.4303 6.69733 62.8206 6.70657C63.0214 6.68869 63.2237 6.71207 63.415 6.77527C63.6064 6.83847 63.7828 6.94016 63.9334 7.07407C64.2087 7.3851 64.3528 7.79064 64.3356 8.20563C64.3562 8.61561 64.238 9.02055 64 9.35501C63.853 9.51898 63.6711 9.64778 63.4675 9.73184C63.264 9.81591 63.0442 9.85309 62.8244 9.84063C62.7473 9.8405 62.6703 9.8358 62.5938 9.82657V11.4203H61.6562V6.80032ZM62.5938 8.86845C62.6646 8.87819 62.736 8.88289 62.8075 8.88251C62.8922 8.88593 62.9766 8.87084 63.0548 8.83827C63.133 8.80571 63.2032 8.75646 63.2604 8.69397C63.3176 8.63148 63.3605 8.55725 63.3861 8.47647C63.4117 8.39568 63.4193 8.31029 63.4084 8.22626C63.4184 8.15175 63.4119 8.07594 63.3893 8.00424C63.3667 7.93253 63.3286 7.86669 63.2777 7.81138C63.2268 7.75607 63.1643 7.71266 63.0947 7.68423C63.0251 7.6558 62.9501 7.64305 62.875 7.64688C62.7804 7.64405 62.6859 7.6535 62.5938 7.67501V8.86845Z" fill="#070444"/>
<path d="M65.3903 10.1668C65.6614 10.3483 65.9782 10.4494 66.3043 10.4584C66.6278 10.4584 66.7853 10.3122 66.7853 10.0768C66.7853 9.84154 66.625 9.71872 66.2312 9.53122C65.942 9.42686 65.692 9.23582 65.5153 8.98416C65.3386 8.73249 65.2439 8.43246 65.244 8.12497C65.2297 7.93395 65.2558 7.74204 65.3206 7.56178C65.3854 7.38151 65.4874 7.21692 65.6201 7.07875C65.7528 6.94058 65.9131 6.83193 66.0906 6.75988C66.2681 6.68783 66.4588 6.654 66.6503 6.6606C66.9854 6.65115 67.3165 6.73523 67.6065 6.90341L67.4125 7.90372C67.1818 7.76052 66.9161 7.68365 66.6446 7.68154C66.3578 7.68154 66.2003 7.82029 66.2003 8.02841C66.2003 8.26466 66.3878 8.36122 66.8321 8.58341C67.1128 8.69288 67.3522 8.88722 67.5171 9.13931C67.682 9.39141 67.764 9.68869 67.7518 9.98966C67.7667 10.1904 67.738 10.3921 67.6679 10.5808C67.5978 10.7695 67.4878 10.9409 67.3454 11.0832C67.203 11.2256 67.0317 11.3356 66.8429 11.4057C66.6542 11.4759 66.4526 11.5045 66.2518 11.4897C65.8878 11.4889 65.5311 11.388 65.2206 11.1981L65.3903 10.1668Z" fill="#070444"/>
<path d="M69.6437 10.5437H69.5499V7.5203H69.5631C69.7658 7.49743 69.9707 7.53425 70.1528 7.62624C70.2867 7.73338 70.3958 7.86837 70.4724 8.02187C70.555 8.1829 70.6026 8.35957 70.6121 8.5403C70.6215 8.75687 70.6121 8.93124 70.6121 9.08218C70.616 9.25125 70.605 9.42034 70.5793 9.58749C70.5491 9.76031 70.4929 9.92753 70.4124 10.0834C70.3218 10.2277 70.1993 10.3493 70.0543 10.4387C69.9328 10.5172 69.7889 10.5538 69.6446 10.5428L69.6437 10.5437ZM69.8246 6.66062C69.7149 6.66062 69.609 6.66905 69.534 6.67187L69.3024 6.67843H68.5337V11.4166H69.4374C69.7836 11.4262 70.1283 11.3676 70.4518 11.2441C70.713 11.141 70.9444 10.9744 71.1249 10.7594C71.2997 10.5428 71.4252 10.2907 71.4924 10.0206C71.5701 9.71425 71.6079 9.39915 71.6049 9.08312C71.624 8.71033 71.595 8.33664 71.5187 7.97124C71.4454 7.702 71.3088 7.45418 71.1203 7.24843C70.9736 7.08143 70.7939 6.94671 70.5924 6.8528C70.4198 6.77262 70.2382 6.71345 70.0515 6.67655C69.9772 6.66424 69.9019 6.65859 69.8265 6.65968" fill="#070444"/>
<path d="M70 20.5478C69.7184 20.5557 69.4366 20.546 69.1563 20.5187V17.2469C69.2603 17.2319 69.625 17.2178 70.1313 17.2178C71.35 17.2178 71.8872 17.7297 71.8872 18.8969C71.8872 20.3556 71.0285 20.5478 70.001 20.5478H70ZM70.1313 15.8312C69.1431 15.8312 68.1672 15.8462 67.6731 15.8603C67.6085 15.8603 67.5953 15.8894 67.5953 15.9625V25.2719C67.5953 25.345 67.6216 25.374 67.6891 25.374H69.0625C69.1272 25.374 69.1563 25.345 69.1563 25.2569V21.9344H69.9625C71.8741 21.9344 73.4481 21.3175 73.4481 18.9981C73.435 17.3059 72.6813 15.8312 70.1313 15.8312" fill="#5BC3F6"/>
<path d="M76.6328 18.2669C76.3338 18.2306 76.0306 18.2583 75.7431 18.3481C75.4556 18.438 75.1906 18.5879 74.9655 18.788C74.7404 18.9881 74.5604 19.2338 74.4375 19.5088C74.3146 19.7837 74.2515 20.0816 74.2525 20.3828C74.2525 21.4478 74.7213 22.0169 76.06 22.6328C76.9975 23.0556 77.2309 23.275 77.2309 23.6538C77.2309 23.9744 77.0228 24.31 76.4247 24.31C75.6592 24.265 74.9251 23.9902 74.3181 23.5216C74.309 23.5144 74.2978 23.5105 74.2863 23.5103C74.2553 23.5103 74.2272 23.5403 74.2272 23.5947V24.9372C74.2242 24.9665 74.2301 24.9961 74.2439 25.0221C74.2578 25.0482 74.279 25.0695 74.305 25.0834C74.9079 25.4635 75.6079 25.6612 76.3206 25.6525C76.6336 25.6905 76.951 25.6599 77.251 25.5629C77.5509 25.4658 77.8261 25.3047 78.0575 25.0906C78.2889 24.8765 78.4709 24.6146 78.591 24.3231C78.711 24.0316 78.7661 23.7175 78.7525 23.4025C78.7525 22.3516 78.1806 21.8088 76.8409 21.1994C75.8659 20.7616 75.6963 20.5722 75.6963 20.2216C75.6963 19.9403 75.865 19.6084 76.5025 19.6084C77.1439 19.627 77.7684 19.8184 78.31 20.1625C78.3242 20.1729 78.3412 20.1787 78.3588 20.1794C78.3991 20.1794 78.4272 20.1391 78.4272 20.0744V18.88C78.4311 18.8447 78.4261 18.809 78.4124 18.7762C78.3988 18.7434 78.3771 18.7146 78.3494 18.6925C77.8292 18.3908 77.2336 18.2441 76.6328 18.2697" fill="#5BC3F6"/>
</g>
<defs>
<clipPath id="clip0_200_714">
<rect width="100" height="30" fill="white"/>
</clipPath>
</defs>
</svg>
