<svg width="45" height="30" viewBox="0 0 45 30" fill="none" xmlns="http://www.w3.org/2000/svg">
<g clip-path="url(#clip0_200_714)">
<path d="M22.5928 4H8.28467V30.25H27.8878V9.52L22.6575 4.0675L22.5928 4Z" fill="#070444"/>
<path d="M2.11218 5.39966H21.15V12.7534H2.11218V5.39966Z" fill="#5BC3F6"/>
<path d="M22.5928 4V9.52H27.8878L22.5928 4Z" fill="#5BC3F6"/>
<path d="M6.65625 6.80032C7.04007 6.72874 7.4303 6.69733 7.82063 6.70657C8.02137 6.68869 8.22365 6.71207 8.41503 6.77527C8.6064 6.83847 8.78282 6.94016 8.93344 7.07407C9.20871 7.3851 9.35285 7.79064 9.33563 8.20563C9.35624 8.61561 9.238 9.02055 9 9.35501C8.85304 9.51898 8.67106 9.64778 8.46755 9.73184C8.26404 9.81591 8.04421 9.85309 7.82437 9.84063C7.74729 9.8405 7.67028 9.8358 7.59375 9.82657V11.4203H6.65625V6.80032ZM7.59375 8.86845C7.66458 8.87819 7.73601 8.88289 7.8075 8.88251C7.89216 8.88593 7.97656 8.87084 8.05478 8.83827C8.13301 8.80571 8.20318 8.75646 8.26041 8.69397C8.31763 8.63148 8.36052 8.55725 8.38609 8.47647C8.41166 8.39568 8.41929 8.31029 8.40844 8.22626C8.41845 8.15175 8.41193 8.07594 8.38933 8.00424C8.36673 7.93253 8.32862 7.86669 8.27769 7.81138C8.22677 7.75607 8.16429 7.71266 8.09469 7.68423C8.02509 7.6558 7.95008 7.64305 7.875 7.64688C7.78043 7.64405 7.68589 7.6535 7.59375 7.67501V8.86845Z" fill="#070444"/>
<path d="M10.3903 10.1668C10.6614 10.3483 10.9782 10.4494 11.3043 10.4584C11.6278 10.4584 11.7853 10.3122 11.7853 10.0768C11.7853 9.84154 11.625 9.71872 11.2312 9.53122C10.942 9.42686 10.692 9.23582 10.5153 8.98416C10.3386 8.73249 10.2439 8.43246 10.244 8.12497C10.2297 7.93395 10.2558 7.74204 10.3206 7.56178C10.3854 7.38151 10.4874 7.21692 10.6201 7.07875C10.7528 6.94058 10.9131 6.83193 11.0906 6.75988C11.2681 6.68783 11.4588 6.654 11.6503 6.6606C11.9854 6.65115 12.3165 6.73523 12.6065 6.90341L12.4125 7.90372C12.1818 7.76052 11.9161 7.68365 11.6446 7.68154C11.3578 7.68154 11.2003 7.82029 11.2003 8.02841C11.2003 8.26466 11.3878 8.36122 11.8321 8.58341C12.1128 8.69288 12.3522 8.88722 12.5171 9.13931C12.682 9.39141 12.764 9.68869 12.7518 9.98966C12.7667 10.1904 12.738 10.3921 12.6679 10.5808C12.5978 10.7695 12.4878 10.9409 12.3454 11.0832C12.203 11.2256 12.0317 11.3356 11.8429 11.4057C11.6542 11.4759 11.4526 11.5045 11.2518 11.4897C10.8878 11.4889 10.5311 11.388 10.2206 11.1981L10.3903 10.1668Z" fill="#070444"/>
<path d="M14.6437 10.5437H14.5499V7.5203H14.5631C14.7658 7.49743 14.9707 7.53425 15.1528 7.62624C15.2867 7.73338 15.3958 7.86837 15.4724 8.02187C15.555 8.1829 15.6026 8.35957 15.6121 8.5403C15.6215 8.75687 15.6121 8.93124 15.6121 9.08218C15.616 9.25125 15.605 9.42034 15.5793 9.58749C15.5491 9.76031 15.4929 9.92753 15.4124 10.0834C15.3218 10.2277 15.1993 10.3493 15.0543 10.4387C14.9328 10.5172 14.7889 10.5538 14.6446 10.5428L14.6437 10.5437ZM14.8246 6.66062C14.7149 6.66062 14.609 6.66905 14.534 6.67187L14.3024 6.67843H13.5337V11.4166H14.4374C14.7836 11.4262 15.1283 11.3676 15.4518 11.2441C15.713 11.141 15.9444 10.9744 16.1249 10.7594C16.2997 10.5428 16.4252 10.2907 16.4924 10.0206C16.5701 9.71425 16.6079 9.39915 16.6049 9.08312C16.624 8.71033 16.595 8.33664 16.5187 7.97124C16.4454 7.702 16.3088 7.45418 16.1203 7.24843C15.9736 7.08143 15.7939 6.94671 15.5924 6.8528C15.4198 6.77262 15.2382 6.71345 15.0515 6.67655C14.9772 6.66424 14.9019 6.65859 14.8265 6.65968" fill="#070444"/>
<path d="M15 20.5478C14.7184 20.5557 14.4366 20.546 14.1563 20.5187V17.2469C14.2603 17.2319 14.625 17.2178 15.1313 17.2178C16.35 17.2178 16.8872 17.7297 16.8872 18.8969C16.8872 20.3556 16.0285 20.5478 15.001 20.5478H15ZM15.1313 15.8312C14.1431 15.8312 13.1672 15.8462 12.6731 15.8603C12.6085 15.8603 12.5953 15.8894 12.5953 15.9625V25.2719C12.5953 25.345 12.6216 25.374 12.6891 25.374H14.0625C14.1272 25.374 14.1563 25.345 14.1563 25.2569V21.9344H14.9625C16.8741 21.9344 18.4481 21.3175 18.4481 18.9981C18.435 17.3059 17.6813 15.8312 15.1313 15.8312" fill="#5BC3F6"/>
<path d="M21.6328 18.2669C21.3338 18.2306 21.0306 18.2583 20.7431 18.3481C20.4556 18.438 20.1906 18.5879 19.9655 18.788C19.7404 18.9881 19.5604 19.2338 19.4375 19.5088C19.3146 19.7837 19.2515 20.0816 19.2525 20.3828C19.2525 21.4478 19.7213 22.0169 21.06 22.6328C21.9975 23.0556 22.2309 23.275 22.2309 23.6538C22.2309 23.9744 22.0228 24.31 21.4247 24.31C20.6592 24.265 19.9251 23.9902 19.3181 23.5216C19.309 23.5144 19.2978 23.5105 19.2863 23.5103C19.2553 23.5103 19.2272 23.5403 19.2272 23.5947V24.9372C19.2242 24.9665 19.2301 24.9961 19.2439 25.0221C19.2578 25.0482 19.279 25.0695 19.305 25.0834C19.9079 25.4635 20.6079 25.6612 21.3206 25.6525C21.6336 25.6905 21.951 25.6599 22.251 25.5629C22.5509 25.4658 22.8261 25.3047 23.0575 25.0906C23.2889 24.8765 23.4709 24.6146 23.591 24.3231C23.711 24.0316 23.7661 23.7175 23.7525 23.4025C23.7525 22.3516 23.1806 21.8088 21.8409 21.1994C20.8659 20.7616 20.6963 20.5722 20.6963 20.2216C20.6963 19.9403 20.865 19.6084 21.5025 19.6084C22.1439 19.627 22.7684 19.8184 23.31 20.1625C23.3242 20.1729 23.3412 20.1787 23.3588 20.1794C23.3991 20.1794 23.4272 20.1391 23.4272 20.0744V18.88C23.4311 18.8447 23.4261 18.809 23.4124 18.7762C23.3988 18.7434 23.3771 18.7146 23.3494 18.6925C22.8292 18.3908 22.2336 18.2441 21.6328 18.2697" fill="#5BC3F6"/>
</g>
<defs>
<clipPath id="clip0_200_714">
<rect width="45" height="30" fill="white"/>
</clipPath>
</defs>
</svg>
