<svg width="100" height="30" viewBox="0 0 100 30" fill="none" xmlns="http://www.w3.org/2000/svg">
<path d="M61.4565 3.52701C61.4565 3.52701 61.3599 3.68047 61.4517 3.90763C61.5073 4.0478 61.6765 4.21696 61.8625 4.39579C61.8625 4.39579 63.814 6.30009 64.0532 6.57558C65.1346 7.82377 65.6047 9.05262 65.6482 10.7479C65.6748 11.8354 65.4657 12.7923 64.9558 13.9052C64.0423 15.8977 62.1163 18.0956 59.1438 20.5388L59.5788 20.3938C59.8604 20.1848 60.241 19.9601 61.14 19.4683C63.2098 18.3373 65.5334 17.2957 68.3886 16.2227C72.4957 14.6797 79.2514 12.8685 83.0962 12.28L83.4962 12.2184L83.4357 12.1217C83.0829 11.5756 82.8437 11.2385 82.5537 10.8808C81.7115 9.83803 80.6905 8.98737 79.4399 8.28776C77.7216 7.32474 75.4923 6.57679 72.6733 6.01614C71.7934 5.85067 70.9108 5.69961 70.0259 5.56302C68.443 5.32026 66.8625 5.06248 65.2845 4.7897C64.7709 4.69908 64.0037 4.57099 63.495 4.46104C63.1027 4.37769 62.7151 4.27363 62.3338 4.14929C62.01 4.02242 61.5544 3.89917 61.4565 3.52701ZM62.5875 4.62537C62.5911 4.62295 62.6636 4.64591 62.7531 4.67612C62.9174 4.7317 63.1349 4.79695 63.3886 4.86824C63.565 4.91657 63.7596 4.96974 63.9674 5.02169C64.2308 5.08936 64.4495 5.14736 64.452 5.15098C64.481 5.18361 64.9244 6.59854 65.0754 7.14107C65.1334 7.3489 65.1769 7.52169 65.1733 7.52532C65.1312 7.47292 65.0947 7.41622 65.0646 7.35615C64.5522 6.45475 63.739 5.53764 62.8002 4.79937C62.7272 4.74398 62.6563 4.68595 62.5875 4.62537ZM64.7504 5.22227C64.8299 5.22987 64.9087 5.2436 64.986 5.26336C65.734 5.42769 67.0704 5.68627 67.9283 5.83126C68.0721 5.85543 68.1893 5.8796 68.1893 5.88805C68.1543 5.91947 68.1142 5.9448 68.0708 5.96297C67.9271 6.03547 67.3434 6.38467 67.1489 6.51517C66.7045 6.80701 66.2879 7.13908 65.9043 7.50719C65.827 7.58653 65.7476 7.66389 65.6663 7.73919C65.6456 7.68537 65.629 7.63002 65.6168 7.57365C65.4116 6.83768 65.149 6.11895 64.8314 5.42406C64.7995 5.35907 64.7708 5.29253 64.7456 5.22469C64.7456 5.22469 64.7456 5.22227 64.7504 5.22227ZM68.553 5.94485C68.5771 5.9533 68.6255 6.10193 68.7088 6.433C68.9014 7.21369 68.9639 8.02081 68.8937 8.82184L68.8792 8.86775L68.6533 8.79525C68.0274 8.59918 67.3981 8.41388 66.7659 8.23943C66.5374 8.18096 66.3116 8.11242 66.0892 8.03402C66.0892 8.00743 66.6317 7.4649 66.8649 7.25828C67.3108 6.86437 68.5107 5.93155 68.553 5.94485ZM68.855 5.98834C68.8683 5.97626 70.6723 6.28801 71.4916 6.44509C72.103 6.56229 72.9863 6.74716 73.0394 6.77012C73.066 6.77979 72.9742 6.83054 72.6806 6.96345C71.5206 7.48544 70.6603 7.95427 69.8048 8.5258C69.58 8.67563 69.3927 8.79888 69.3891 8.79888C69.3843 8.79888 69.3819 8.67321 69.3819 8.52097C69.3819 7.68723 69.2139 6.84504 68.9094 6.13334C68.8868 6.08681 68.8686 6.03826 68.855 5.98834ZM73.5191 6.9115C73.5324 6.92479 73.4732 7.28124 73.4225 7.49148C73.263 8.14397 72.8401 9.11546 72.3181 10.0277C72.2632 10.1306 72.2019 10.2299 72.1344 10.325C72.0425 10.286 71.954 10.2395 71.8698 10.186C71.3599 9.88757 70.7823 9.60603 70.1479 9.34383C70.0344 9.2992 69.9224 9.25084 69.812 9.19883C69.783 9.17225 71.1931 8.23822 71.9411 7.78994C72.5392 7.43107 73.5022 6.89458 73.5191 6.9115ZM73.8526 6.96345C73.8925 6.96345 74.6924 7.18095 75.1056 7.3054C76.1363 7.61352 77.3253 8.04731 78.0962 8.39772L78.4164 8.54272L78.1905 8.59467C76.3043 9.02967 74.6864 9.5287 73.13 10.1606C73.0008 10.2138 72.8884 10.2573 72.8799 10.2573C72.9019 10.1797 72.9322 10.1047 72.9705 10.0338C73.4394 9.03933 73.7415 7.99535 73.82 7.10966C73.8272 7.0287 73.8417 6.96345 73.8526 6.96345ZM65.9019 8.79042C65.914 8.77834 66.523 8.92092 66.8553 9.01396C67.3543 9.15412 68.4164 9.50937 68.4164 9.53716C68.4164 9.54199 68.2992 9.6447 68.1566 9.76432C67.5396 10.2831 66.9419 10.8244 66.3647 11.3871C66.2453 11.5068 66.1211 11.6216 65.9925 11.7315C65.9841 11.7315 65.9805 11.7037 65.9853 11.671C66.0856 10.9328 66.0638 9.98544 65.9249 9.02121C65.9112 8.94538 65.9031 8.86865 65.9007 8.79163L65.9019 8.79042ZM78.7221 8.8025C78.7306 8.81217 78.4394 9.2677 78.2581 9.52749C77.9923 9.9069 77.6093 10.4047 76.7344 11.5055L75.5817 12.9579C75.4764 13.0945 75.3681 13.2286 75.2567 13.3603C75.2531 13.3603 75.1963 13.2805 75.1322 13.1838C74.6383 12.4468 74.04 11.7854 73.356 11.2203C73.2488 11.1306 73.1401 11.0428 73.0298 10.9569C72.9972 10.935 72.9672 10.9095 72.9403 10.8808C72.9403 10.8687 73.6859 10.5497 74.255 10.3177C75.3575 9.87456 76.4773 9.4755 77.6117 9.1215C78.1457 8.95838 78.7137 8.79525 78.7221 8.8025ZM79.058 8.89071C79.1461 8.92049 79.2301 8.96107 79.3081 9.01154C80.3735 9.62192 81.359 10.3622 82.2419 11.2155C82.4763 11.4451 83.0479 12.0408 83.0394 12.0456L82.6008 12.0807C80.7521 12.2196 78.3886 12.6123 76.1122 13.1597C75.9575 13.1959 75.8246 13.2273 75.8149 13.2273C75.8065 13.2273 75.9756 13.0582 76.1907 12.8503C77.5283 11.5659 78.1373 10.7551 78.855 9.30516C78.9614 9.09008 79.052 8.90279 79.0556 8.89192H79.058V8.89071ZM69.2852 9.89361C69.3468 9.90569 69.9171 10.1715 70.3473 10.3866C70.74 10.5836 71.3357 10.9013 71.3659 10.9291C71.3695 10.9328 71.1605 11.0415 70.8995 11.172C70.1252 11.5565 69.3681 11.9745 68.6303 12.425C68.4188 12.5543 68.2436 12.6594 68.2376 12.6594C68.2195 12.6594 68.2255 12.6437 68.3439 12.4286C68.752 11.6676 69.0521 10.8534 69.2357 10.0096C69.2526 9.93469 69.2719 9.88877 69.2852 9.8924V9.89361ZM68.7112 9.99511C68.7233 10.0072 68.5759 10.5509 68.4817 10.8409C68.2264 11.6039 67.888 12.3365 67.4727 13.0256L67.364 13.2032L67.1187 12.9651C66.88 12.7219 66.6043 12.518 66.3019 12.361C66.227 12.3272 66.1558 12.2859 66.0892 12.2377C66.0892 12.2015 66.8384 11.5212 67.4159 11.0318C67.8304 10.6814 68.7016 9.98423 68.7112 9.99511ZM72.2009 11.4306L72.4147 11.5695C72.9065 11.8885 73.4877 12.3175 73.9312 12.686C74.1801 12.8938 74.6622 13.3264 74.7613 13.4303L74.8144 13.4871L74.4592 13.5862C72.6428 14.0816 70.8488 14.6557 69.0822 15.3068C68.9547 15.3557 68.8257 15.4009 68.6955 15.4422C68.6702 15.4422 68.6448 15.4651 69.0979 15.0483C70.2579 13.9813 71.2813 12.8056 72.0462 11.6626L72.2009 11.4306ZM71.2837 11.6602C71.2946 11.671 70.6893 12.5181 70.3304 12.9966C69.9002 13.5681 69.1342 14.5251 68.6073 15.1473C68.4728 15.3114 68.3334 15.4714 68.1893 15.627C68.1772 15.6307 68.1711 15.5666 68.1699 15.4663C68.1699 14.9347 68.0346 14.3668 67.7978 13.8859C67.6975 13.6829 67.6806 13.6345 67.7011 13.6152C67.7833 13.5403 69.0629 12.8105 69.8688 12.3791C70.4234 12.0819 71.2741 11.6493 71.2837 11.6602ZM65.7376 13.0195C66.0887 13.1877 66.4182 13.3979 66.7187 13.6454C66.7284 13.6515 66.6136 13.7457 66.465 13.8532C66.0481 14.1541 65.4138 14.6314 65.0476 14.9238C64.661 15.2319 64.6477 15.2416 64.6912 15.1739C64.9812 14.7305 65.1262 14.4804 65.2784 14.1589C65.415 13.8738 65.5491 13.5355 65.6458 13.2406C65.6657 13.1627 65.6959 13.0882 65.7376 13.0195ZM67.2154 14.1795C67.2359 14.1759 67.2637 14.2133 67.3833 14.3909C67.6334 14.7655 67.8256 15.2633 67.8751 15.6693L67.8848 15.7575L67.2842 15.9895C66.3618 16.3441 65.4488 16.7229 64.5462 17.1254C64.3589 17.2124 64.029 17.3694 63.8128 17.4782C63.5965 17.5869 63.4201 17.6715 63.4201 17.6667C63.4201 17.6618 63.5554 17.5591 63.7221 17.4395C65.0356 16.4849 66.169 15.441 67.0232 14.3958C67.1139 14.2846 67.1972 14.1879 67.2081 14.1807C67.2103 14.1794 67.2128 14.1786 67.2154 14.1783V14.1795ZM66.5339 14.3487C66.552 14.3656 66.0493 14.9335 65.711 15.2791C64.8937 16.1189 63.9785 16.8577 62.9851 17.4794C62.8546 17.5628 62.7361 17.6365 62.7192 17.6461C62.6914 17.6631 62.7289 17.6196 63.1856 17.1217C63.4732 16.8088 63.6931 16.549 63.9445 16.224C64.0603 16.0563 64.2092 15.914 64.3819 15.8059C65.0307 15.3371 66.517 14.3305 66.5339 14.3474V14.3487ZM67.741 0.500192C67.6443 0.488109 66.0844 1.04997 65.0827 1.45597C63.7258 2.00816 62.6709 2.5362 62.0208 2.99294C61.7792 3.1621 61.4747 3.46781 61.4312 3.58501C61.414 3.63267 61.4054 3.68299 61.4058 3.73363L61.9955 4.28946L63.3947 4.73653L66.7284 5.33344L70.5382 5.98834L70.5769 5.6621L70.5431 5.65606L70.0416 5.57631L69.9389 5.39748C69.421 4.48387 68.9464 3.54639 68.5167 2.58815C68.2659 2.01226 68.052 1.42101 67.8763 0.817978C67.7941 0.524358 67.7857 0.506233 67.741 0.500192ZM67.6673 0.724938H67.6733C67.6769 0.728563 67.6939 0.85181 67.712 0.996808C67.7869 1.61063 67.9246 2.20512 68.1397 2.84553C68.3016 3.32885 68.304 3.30106 68.1107 3.24668C67.6636 3.12223 65.6554 2.77786 64.203 2.57607C64.0588 2.55768 63.915 2.53633 63.7717 2.51203C63.7535 2.49391 64.8193 1.93567 65.2917 1.71455C65.8971 1.43422 67.5476 0.747896 67.6673 0.724938ZM63.4358 2.69207L63.6061 2.75007C64.5389 3.06665 66.8758 3.51372 68.1675 3.62005C68.3125 3.63214 68.4358 3.64543 68.4394 3.64905C68.443 3.65268 68.3185 3.71913 68.1639 3.79647C67.5416 4.10821 66.8553 4.48883 66.3804 4.78607C66.2415 4.87307 66.1146 4.94315 66.0965 4.94195C66.0278 4.93228 65.9593 4.92141 65.891 4.90932L65.7171 4.88153L65.276 4.45258C64.5015 3.70343 63.8973 3.12344 63.6629 2.90594L63.4358 2.69207ZM63.263 2.82982L63.8804 3.60072C64.2212 4.02363 64.5619 4.44533 64.6368 4.53595C64.7129 4.62658 64.7709 4.7027 64.7673 4.70512C64.7504 4.71841 63.8732 4.54804 63.408 4.4405C63.0806 4.37091 62.7568 4.28542 62.4377 4.18433L62.196 4.107L62.1972 4.0478C62.2009 3.75176 62.5742 3.31435 63.2074 2.86848L63.263 2.82982ZM68.5215 3.87984C68.5397 3.88105 68.5602 3.91851 68.6146 4.03813C68.7644 4.36679 69.2308 5.25611 69.3432 5.42769C69.3794 5.48448 69.4399 5.4881 68.82 5.38781C67.3338 5.14857 66.8517 5.06761 66.8517 5.05794C66.8819 5.03168 66.9157 5.00972 66.9519 4.9927C67.4261 4.72667 67.8739 4.41636 68.2895 4.06592L68.501 3.8883C68.5083 3.88226 68.5155 3.87863 68.5215 3.87984ZM73.7282 14.0393L67.9186 15.934L62.8679 18.1645L61.4541 18.5391C60.705 19.2474 59.9279 19.9254 59.1245 20.5715C58.7071 20.9167 58.3217 21.2989 57.973 21.7133C57.5718 22.2136 57.2577 22.7452 57.1223 23.1548C56.8807 23.8919 56.9979 24.6386 57.4667 25.3274C58.0648 26.207 59.255 27.1012 60.6385 27.7102C61.3454 28.0195 62.5356 28.4207 63.4297 28.6454C64.9196 29.0224 67.7966 29.4308 69.3819 29.4912C69.7033 29.5033 70.131 29.5033 70.1516 29.4888C70.1854 29.4658 70.4331 28.9994 70.7195 28.4134C71.6934 26.4245 72.3978 24.5589 72.7772 22.9663C73.0068 22.0009 73.1856 20.7153 73.3016 19.1904C73.3373 18.4119 73.3438 17.6324 73.321 16.8535C73.2908 16.1624 73.217 15.4739 73.0998 14.7921C73.0845 14.733 73.0796 14.6717 73.0853 14.6109C73.1023 14.5988 73.1566 14.5806 73.8707 14.3728L73.7282 14.0393ZM72.399 14.8187C72.4534 14.8187 72.5923 16.1647 72.6298 17.0178C72.6371 17.2003 72.6358 17.3163 72.625 17.3163C72.5911 17.3163 71.8819 16.8994 71.378 16.584C70.9025 16.2845 70.4343 15.9735 69.9739 15.6512C69.9316 15.6174 69.9365 15.6162 70.2953 15.4929C70.9055 15.2827 72.3543 14.8187 72.4002 14.8187H72.399ZM69.4411 15.789C69.4773 15.789 69.58 15.8458 69.8217 15.9968C70.7279 16.5647 71.9556 17.2474 72.48 17.477C72.6443 17.5495 72.6624 17.5205 72.2866 17.7754C71.4867 18.3192 70.4911 18.8532 69.2695 19.397C69.1375 19.4573 69.0042 19.5145 68.8695 19.5686C68.8785 19.4864 68.8959 19.4054 68.9215 19.3269C69.2175 18.2334 69.3843 17.1278 69.3891 16.2409C69.3915 15.8035 69.3915 15.801 69.4338 15.7902H69.4411V15.789ZM68.8321 16.0222C68.8575 16.0487 68.8393 17.0299 68.8079 17.2981C68.7159 18.0534 68.5467 18.7971 68.3028 19.5178C68.2859 19.5384 67.6854 18.9523 67.486 18.7203C67.1703 18.3623 66.8989 17.9676 66.6777 17.5446C66.5786 17.3489 66.4191 16.9598 66.4336 16.9489C66.5012 16.9006 68.8152 16.0065 68.8321 16.0222ZM65.9623 17.1531C65.9672 17.1531 65.972 17.1544 65.9744 17.158C66.0012 17.2088 66.0238 17.2618 66.0421 17.3163C66.2285 17.7802 66.4729 18.2187 66.7695 18.6212C67.1273 19.095 67.5398 19.5249 67.9983 19.9021C68.0261 19.9262 68.0346 19.9214 67.3193 20.1921C66.4035 20.5373 65.4793 20.8597 64.5474 21.1587C64.1523 21.2868 63.8176 21.3943 63.8043 21.4004C63.7644 21.4137 63.7765 21.3895 63.8925 21.2094C64.4085 20.4047 65.189 18.8291 65.6264 17.715C65.7013 17.5217 65.7738 17.3284 65.7871 17.2849C65.8053 17.222 65.8246 17.2003 65.8838 17.1737C65.9081 17.1609 65.9349 17.1539 65.9623 17.1531ZM65.0827 17.5156C65.0948 17.5265 64.8724 17.9965 64.6525 18.4231C64.1864 19.3247 63.6812 20.2055 63.1385 21.0632L62.9186 21.4112C62.8969 21.4439 62.8872 21.433 62.8195 21.2977C62.6616 20.9753 62.5478 20.633 62.4812 20.2803C62.4191 19.8456 62.4272 19.4037 62.5054 18.9717C62.5622 18.6974 62.5597 18.7034 62.689 18.6382C63.2473 18.3518 65.0646 17.4999 65.0827 17.5156ZM72.6564 17.8238V18.0098C72.6439 19.2209 72.5409 20.4294 72.3483 21.6251C71.5515 21.3952 70.7824 21.0783 70.0549 20.6802C69.6272 20.4458 69.0097 20.0676 69.0278 20.0495C69.0315 20.0446 69.2139 19.9492 69.4314 19.8356C70.2941 19.3885 71.117 18.9052 71.8335 18.4267C72.1018 18.2479 72.5041 17.9567 72.5936 17.8781L72.6564 17.8238ZM61.7671 19.1203C61.7852 19.1203 61.7804 19.1541 61.7526 19.3148C61.7286 19.471 61.7121 19.6283 61.703 19.7861C61.6668 20.4289 61.7719 20.9025 62.0897 21.5502C62.1791 21.7314 62.2492 21.8813 62.2456 21.8837C62.2129 21.9115 59.3094 22.7609 58.3959 23.011L57.8703 23.156C57.8377 23.1657 57.8352 23.1585 57.8461 23.0835C57.9464 22.4395 58.4382 21.5949 59.1245 20.8844C59.5812 20.4132 59.9462 20.1328 60.5684 19.7788C60.9639 19.552 61.3635 19.3324 61.7671 19.1203ZM68.617 20.3467C68.6194 20.3443 68.727 20.4011 68.855 20.476C69.7939 21.0185 71.1025 21.5272 72.2178 21.7822L72.3193 21.8064L72.1803 21.8825C71.5979 22.2063 69.6779 23.005 67.7168 23.7397C67.5099 23.817 67.3033 23.8951 67.0969 23.9741C67.0656 23.9895 67.0322 24.0004 66.9979 24.0067C66.9979 24.0019 67.0788 23.8472 67.1779 23.6611C67.7289 22.6316 68.2775 21.381 68.5602 20.5135C68.588 20.4253 68.6134 20.3503 68.617 20.3467ZM67.9186 20.5763C67.8977 20.6459 67.8722 20.7142 67.8425 20.7805C67.3967 21.8332 66.8879 22.8581 66.3188 23.8496C66.2222 24.0268 66.1206 24.2013 66.0143 24.3728C66.0083 24.3728 65.8765 24.2931 65.7195 24.1976C64.7891 23.6273 63.965 22.9265 63.4237 22.2438L63.3463 22.1471L63.7475 22.0371C65.0625 21.6854 66.3506 21.24 67.602 20.7044C67.7736 20.6319 67.9162 20.5727 67.9186 20.5763ZM72.2564 22.0903C72.2564 22.0903 72.2589 22.0915 72.2589 22.0939C72.2589 22.1906 72.0377 23.0944 71.8529 23.7493C71.6982 24.2967 71.5677 24.7256 71.3272 25.4857C71.2659 25.6907 71.1982 25.8938 71.1242 26.0947C69.8839 25.8826 68.6691 25.5421 67.4993 25.0785C67.2371 24.9758 66.9794 24.8617 66.7272 24.7365C66.72 24.7281 66.9846 24.6036 67.3144 24.4586C69.3142 23.5874 71.3852 22.5942 72.0933 22.1676C72.1428 22.1326 72.198 22.1064 72.2564 22.0903ZM62.2432 22.4323C62.254 22.4431 61.6946 23.243 60.914 24.3366L60.2047 25.331C60.0875 25.499 59.9087 25.7636 59.8072 25.9207L59.6223 26.2058L59.4266 26.0403C59.1335 25.7831 58.8601 25.5044 58.6086 25.2065C58.2316 24.7365 57.9766 24.2423 57.8751 23.788C57.8292 23.5777 57.8268 23.4714 57.8715 23.4581C58.6494 23.2705 59.4284 23.0872 60.2084 22.9083L61.7792 22.5398C62.0317 22.4794 62.2407 22.4311 62.2432 22.4323ZM62.805 22.6473L62.9464 22.8056C63.5368 23.476 64.2332 24.045 65.0078 24.49C65.0922 24.5319 65.1713 24.5839 65.2434 24.6447C63.5044 25.2751 61.7604 25.8914 60.0114 26.4934C59.9814 26.4755 59.9524 26.4562 59.9244 26.4354L59.8434 26.3774L59.9703 26.1937C60.3811 25.598 60.8983 24.9431 62.0305 23.5814L62.805 22.6473ZM66.3091 25.1522C66.3127 25.1485 66.5085 25.2174 66.7465 25.3068C67.3181 25.5207 67.7663 25.6597 68.3741 25.8119C69.1197 25.9992 70.1987 26.1865 70.8367 26.2397C70.9333 26.2469 70.9841 26.259 70.9696 26.2687C70.9394 26.288 70.2929 26.5031 69.8181 26.6529C67.956 27.2193 66.0887 27.7683 64.2163 28.2998C64.174 28.3083 64.0266 28.2696 64.0266 28.2515C64.0266 28.2406 64.1317 28.1077 64.2598 27.9542C64.8987 27.1892 65.4942 26.3888 66.0433 25.557C66.1314 25.4217 66.22 25.2868 66.3091 25.1522ZM65.5334 25.1739C65.5394 25.18 65.2277 25.679 64.6803 26.5417C64.4483 26.9054 64.1861 27.3211 64.0967 27.4625C64.0061 27.605 63.8744 27.8225 63.8043 27.9458L63.675 28.1693L63.6098 28.1524C63.4527 28.1101 62.3422 27.7174 62.0498 27.6014C61.7008 27.4634 61.3595 27.3065 61.0276 27.1314C60.6784 26.9429 60.2361 26.6626 60.27 26.6517L61.6052 26.2868C63.5288 25.7624 64.5933 25.4615 65.2905 25.2428C65.4222 25.2029 65.5322 25.1715 65.5334 25.1739ZM70.9986 26.4559H71.0058C71.024 26.5019 70.3111 28.4738 70.0513 29.0997C69.9921 29.2399 69.9715 29.2749 69.9401 29.2725C69.3619 29.1995 68.7847 29.1189 68.2086 29.0309C67.1139 28.8641 65.2809 28.5439 64.8181 28.4388L64.7105 28.4146L65.3666 28.2672C66.7731 27.9506 67.4486 27.7802 68.1337 27.57C69.0168 27.2982 69.88 26.9655 70.717 26.5744C70.8087 26.5298 70.9026 26.4902 70.9986 26.4559Z" fill="#8A979C"/>
<path fill-rule="evenodd" clip-rule="evenodd" d="M61.4517 3.90765C61.5073 4.04782 61.6764 4.21698 61.8625 4.39581C61.8625 4.39581 63.8139 6.30011 64.0532 6.57561C65.1346 7.82379 65.6046 9.05265 65.6481 10.7479C65.6747 11.8354 65.4657 12.7924 64.9558 13.9052C64.0423 15.8977 62.1162 18.0957 59.1438 20.5389L60.5684 19.7788C60.9639 19.552 61.3635 19.3324 61.767 19.1203C63.8369 17.9893 65.5334 17.2957 68.3886 16.2228C72.4956 14.6798 79.2513 12.8685 83.0962 12.28L83.4961 12.2184L83.4357 12.1218C83.0829 11.5756 82.8436 11.2385 82.5536 10.8808C81.7114 9.83805 80.6904 8.9874 79.4398 8.28779C77.7216 7.32476 75.4923 6.57682 72.6733 6.01616C71.7933 5.85069 70.9107 5.69963 70.0259 5.56304C68.443 5.32029 66.8624 5.0625 65.2844 4.78972C64.7709 4.6991 64.0036 4.57102 63.4949 4.46106C63.1026 4.37771 62.8189 4.30869 62.4377 4.18436L62.196 4.10703L61.4517 3.90765ZM62.753 4.67614C62.6636 4.64593 62.5911 4.62297 62.5875 4.62539C62.6562 4.68597 62.7272 4.74401 62.8002 4.79939C63.739 5.53767 64.5522 6.45478 65.0645 7.35618C65.0947 7.41624 65.1312 7.47294 65.1733 7.52534C65.1769 7.52172 65.1334 7.34893 65.0754 7.1411C64.9244 6.59856 64.4809 5.18363 64.4519 5.15101C64.4495 5.14738 64.2308 5.08938 63.9674 5.02172C63.7596 4.96976 63.565 4.91659 63.3886 4.86826C63.1349 4.79697 62.9174 4.73172 62.753 4.67614ZM64.986 5.26338C64.9086 5.24362 64.8299 5.22989 64.7504 5.2223C64.7756 5.29014 64.7994 5.3591 64.8313 5.42409C65.1489 6.11897 65.4115 6.83771 65.6167 7.57367C65.629 7.63004 65.6455 7.68539 65.6663 7.73921C65.7476 7.66391 65.8269 7.58656 65.9043 7.50722C66.2879 7.13911 66.7045 6.80703 67.1489 6.51519C67.3434 6.38469 67.927 6.03549 68.0708 5.96299C68.1142 5.94482 68.1542 5.9195 68.1892 5.88808C68.1892 5.87962 68.072 5.85545 67.9282 5.83129C67.0703 5.68629 65.7339 5.42771 64.986 5.26338ZM68.7088 6.43303C68.6254 6.10195 68.5771 5.95333 68.5529 5.94487C68.5106 5.93158 67.3108 6.86439 66.8649 7.2583C66.6317 7.46492 66.0892 8.00746 66.0892 8.03404C66.3116 8.11244 66.5374 8.18098 66.7658 8.23945C67.3981 8.4139 68.0273 8.5992 68.6532 8.79528L68.8792 8.86777L68.8937 8.82186C68.9638 8.02083 68.9014 7.21372 68.7088 6.43303ZM71.4915 6.44511C70.6723 6.28803 68.8683 5.97628 68.855 5.98837C68.8686 6.03829 68.8868 6.08683 68.9094 6.13336C69.2139 6.84506 69.3818 7.68725 69.3818 8.52099C69.3818 8.67324 69.3842 8.7989 69.3891 8.7989C69.3927 8.7989 69.58 8.67565 69.8047 8.52582C70.6602 7.95429 71.5205 7.48547 72.6805 6.96347C72.9741 6.83056 73.066 6.77981 73.0394 6.77015C72.9862 6.74719 72.1029 6.56232 71.4915 6.44511ZM73.4224 7.49151C73.4732 7.28126 73.5324 6.92481 73.5191 6.91152C73.5022 6.8946 72.5391 7.43109 71.941 7.78996C71.1931 8.23824 69.783 9.17227 69.812 9.19885C69.9223 9.25087 70.0344 9.29923 70.1479 9.34385C70.7823 9.60605 71.3598 9.88759 71.8697 10.186C71.954 10.2396 72.0425 10.286 72.1344 10.325C72.2019 10.2299 72.2632 10.1307 72.318 10.0278C72.84 9.11548 73.2629 8.144 73.4224 7.49151ZM75.1056 7.30543C74.6924 7.18097 73.8925 6.96347 73.8526 6.96347C73.8417 6.96347 73.8272 7.02872 73.82 7.10968C73.7414 7.99537 73.4393 9.03935 72.9705 10.0338C72.9322 10.1048 72.9018 10.1797 72.8799 10.2573C72.8883 10.2573 73.0007 10.2138 73.13 10.1607C74.6863 9.52872 76.3042 9.02969 78.1904 8.5947L78.4164 8.54274L78.0962 8.39774C77.3253 8.04733 76.1363 7.61355 75.1056 7.30543ZM66.8552 9.01398C66.523 8.92094 65.914 8.77836 65.9019 8.79044L65.9007 8.79165C65.9031 8.86867 65.9111 8.94541 65.9248 9.02123C66.0638 9.98546 66.0856 10.9328 65.9853 11.6711C65.9804 11.7037 65.9841 11.7315 65.9925 11.7315C66.1211 11.6217 66.2452 11.5068 66.3647 11.3871C66.9419 10.8244 67.5396 10.2831 68.1566 9.76434C68.2992 9.64472 68.4164 9.54201 68.4164 9.53718C68.4164 9.50939 67.3543 9.15414 66.8552 9.01398ZM78.2581 9.52751C78.4393 9.26773 78.7305 8.81219 78.7221 8.80252C78.7136 8.79528 78.1457 8.9584 77.6116 9.12152C76.4773 9.47552 75.3575 9.87458 74.2549 10.3177C73.6858 10.5497 72.9403 10.8687 72.9403 10.8808C72.9671 10.9095 72.9971 10.9351 73.0297 10.9569C73.14 11.0428 73.2488 11.1306 73.356 11.2204C74.04 11.7854 74.6383 12.4468 75.1322 13.1839C75.1962 13.2805 75.253 13.3603 75.2566 13.3603C75.368 13.2286 75.4764 13.0945 75.5817 12.9579L76.7344 11.5055C77.6092 10.4047 77.9923 9.90692 78.2581 9.52751ZM79.3081 9.01156C79.2301 8.9611 79.146 8.92172 79.058 8.89194H79.0556C79.0519 8.90282 78.9613 9.0901 78.855 9.30518C78.1373 10.7552 77.5283 11.5659 76.1907 12.8504C75.9756 13.0582 75.8064 13.2274 75.8149 13.2274C75.8236 13.2274 75.933 13.2017 76.0681 13.17C78.3446 12.6226 80.752 12.2196 82.6008 12.0807L83.0394 12.0456C83.0478 12.0408 82.4763 11.4451 82.2419 11.2155C81.359 10.3623 80.3735 9.62194 79.3081 9.01156ZM70.3473 10.3866C69.9171 10.1715 69.3468 9.90571 69.2852 9.89363C69.2719 9.89001 69.2525 9.93471 69.2356 10.0096C69.052 10.8534 68.7519 11.6676 68.3439 12.4287C68.2255 12.6437 68.2194 12.6595 68.2376 12.6595C68.2436 12.6595 68.4188 12.5543 68.6303 12.425C69.3681 11.9745 70.1252 11.5565 70.8995 11.172C71.1605 11.0415 71.3695 10.9328 71.3659 10.9292C71.3357 10.9014 70.74 10.5836 70.3473 10.3866ZM68.4816 10.8409C68.5759 10.551 68.7233 10.0072 68.7112 9.99513C68.7015 9.98425 67.8304 10.6814 67.4159 11.0319C66.8383 11.5212 66.0892 12.2015 66.0892 12.2378C66.1557 12.2859 66.227 12.3272 66.3018 12.361C66.6043 12.518 66.88 12.7219 67.1187 12.9652L67.3639 13.2032L67.4727 13.0256C67.888 12.3365 68.2263 11.6039 68.4816 10.8409ZM72.4147 11.5696L72.2008 11.4306L72.0462 11.6626C71.2813 12.8057 70.2579 13.9813 69.0979 15.0483C68.6684 15.4434 68.6688 15.4434 68.6916 15.4423C68.8218 15.401 68.9546 15.3557 69.0822 15.3069C70.8487 14.6557 72.6428 14.0816 74.4592 13.5862L74.8144 13.4872L74.7612 13.4304C74.6622 13.3264 74.18 12.8939 73.9311 12.686C73.4877 12.3175 72.9065 11.8886 72.4147 11.5696ZM70.3304 12.9966C70.6892 12.5181 71.2946 11.6711 71.2837 11.6602C71.274 11.6493 70.4234 12.0819 69.8688 12.3791C69.0628 12.8105 67.7832 13.5403 67.7011 13.6152C67.6805 13.6346 67.6974 13.6829 67.7977 13.8859C68.0346 14.3668 68.1699 14.9347 68.1699 15.4664C68.1711 15.5667 68.1771 15.6307 68.1892 15.6271C68.3334 15.4714 68.4728 15.3114 68.6073 15.1474C69.1341 14.5251 69.9002 13.5681 70.3304 12.9966ZM66.7187 13.6454C66.4181 13.3979 66.0887 13.1878 65.7376 13.0195C65.6958 13.0883 65.6657 13.1628 65.6457 13.2407C65.5491 13.5355 65.4149 13.8738 65.2784 14.159C65.1262 14.4804 64.9812 14.7305 64.6912 15.174C64.6477 15.2416 64.661 15.232 65.0476 14.9238C65.4137 14.6314 66.0481 14.1541 66.465 13.8533C66.6136 13.7457 66.7284 13.6515 66.7187 13.6454ZM67.3833 14.391C67.2637 14.2133 67.2359 14.1759 67.2153 14.1795C67.2044 14.1868 67.1138 14.2846 67.0232 14.3958C66.1689 15.441 65.0355 16.485 63.7221 17.4395C63.5553 17.5592 63.42 17.6619 63.42 17.6667C63.42 17.6715 63.5964 17.587 63.8127 17.4782C64.029 17.3695 64.3589 17.2124 64.5462 17.1254C65.4487 16.7229 66.3617 16.3441 67.2842 15.9896L67.8847 15.7576L67.8751 15.6694C67.8255 15.2634 67.6334 14.7655 67.3833 14.391ZM65.711 15.2791C66.0493 14.9335 66.552 14.3644 66.5338 14.3475C66.5169 14.3306 65.0307 15.3371 64.3818 15.8059C64.2091 15.9141 64.0603 16.0563 63.9444 16.224C63.6931 16.549 63.4732 16.8088 63.1856 17.1218C62.7289 17.6196 62.6914 17.6631 62.7192 17.6462C62.7361 17.6365 62.8545 17.5628 62.985 17.4794C63.9784 16.8577 64.8936 16.119 65.711 15.2791Z" fill="#C91414"/>
</svg>
