<svg width="30" height="30" viewBox="0 0 30 30" fill="none" xmlns="http://www.w3.org/2000/svg">
<path d="M6.45654 3.52701C6.45654 3.52701 6.35988 3.68047 6.45171 3.90763C6.50729 4.0478 6.67646 4.21696 6.86254 4.39579C6.86254 4.39579 8.81396 6.30009 9.05321 6.57558C10.1346 7.82377 10.6047 9.05262 10.6482 10.7479C10.6748 11.8354 10.4657 12.7923 9.95582 13.9052C9.04233 15.8977 7.11628 18.0956 4.14384 20.5388L4.57883 20.3938C4.86036 20.1848 5.24098 19.9601 6.13997 19.4683C8.20981 18.3373 10.5334 17.2957 13.3886 16.2227C17.4957 14.6797 24.2514 12.8685 28.0962 12.28L28.4962 12.2184L28.4357 12.1217C28.0829 11.5756 27.8437 11.2385 27.5537 10.8808C26.7115 9.83803 25.6905 8.98737 24.4399 8.28776C22.7216 7.32474 20.4923 6.57679 17.6733 6.01614C16.7934 5.85067 15.9108 5.69961 15.0259 5.56302C13.443 5.32026 11.8625 5.06248 10.2845 4.7897C9.77094 4.69908 9.00367 4.57099 8.49497 4.46104C8.10267 4.37769 7.71507 4.27363 7.33378 4.14929C7.00995 4.02242 6.55442 3.89917 6.45654 3.52701ZM7.58752 4.62537C7.59115 4.62295 7.66365 4.64591 7.75306 4.67612C7.91739 4.7317 8.13489 4.79695 8.38864 4.86824C8.56505 4.91657 8.75959 4.96974 8.96742 5.02169C9.23083 5.08936 9.44953 5.14736 9.45195 5.15098C9.48095 5.18361 9.9244 6.59854 10.0754 7.14107C10.1334 7.3489 10.1769 7.52169 10.1733 7.52532C10.1312 7.47292 10.0947 7.41622 10.0646 7.35615C9.55224 6.45475 8.73905 5.53764 7.80019 4.79937C7.7272 4.74398 7.65626 4.68595 7.58752 4.62537ZM9.7504 5.22227C9.82989 5.22987 9.90866 5.2436 9.98602 5.26336C10.734 5.42769 12.0704 5.68627 12.9283 5.83126C13.0721 5.85543 13.1893 5.8796 13.1893 5.88805C13.1543 5.91947 13.1142 5.9448 13.0708 5.96297C12.9271 6.03547 12.3434 6.38467 12.1489 6.51517C11.7045 6.80701 11.2879 7.13908 10.9043 7.50719C10.827 7.58653 10.7476 7.66389 10.6663 7.73919C10.6456 7.68537 10.629 7.63002 10.6168 7.57365C10.4116 6.83768 10.149 6.11895 9.83136 5.42406C9.79947 5.35907 9.77083 5.29253 9.74557 5.22469C9.74557 5.22469 9.74557 5.22227 9.7504 5.22227ZM13.553 5.94485C13.5771 5.9533 13.6255 6.10193 13.7088 6.433C13.9014 7.21369 13.9639 8.02081 13.8937 8.82184L13.8792 8.86775L13.6533 8.79525C13.0274 8.59918 12.3981 8.41388 11.7659 8.23943C11.5374 8.18096 11.3116 8.11242 11.0892 8.03402C11.0892 8.00743 11.6317 7.4649 11.8649 7.25828C12.3108 6.86437 13.5107 5.93155 13.553 5.94485ZM13.855 5.98834C13.8683 5.97626 15.6723 6.28801 16.4916 6.44509C17.103 6.56229 17.9863 6.74716 18.0394 6.77012C18.066 6.77979 17.9742 6.83054 17.6806 6.96345C16.5206 7.48544 15.6603 7.95427 14.8048 8.5258C14.58 8.67563 14.3927 8.79888 14.3891 8.79888C14.3843 8.79888 14.3819 8.67321 14.3819 8.52097C14.3819 7.68723 14.2139 6.84504 13.9094 6.13334C13.8868 6.08681 13.8686 6.03826 13.855 5.98834ZM18.5191 6.9115C18.5324 6.92479 18.4732 7.28124 18.4225 7.49148C18.263 8.14397 17.8401 9.11546 17.3181 10.0277C17.2632 10.1306 17.2019 10.2299 17.1344 10.325C17.0425 10.286 16.954 10.2395 16.8698 10.186C16.3599 9.88757 15.7823 9.60603 15.1479 9.34383C15.0344 9.2992 14.9224 9.25084 14.812 9.19883C14.783 9.17225 16.1931 8.23822 16.9411 7.78994C17.5392 7.43107 18.5022 6.89458 18.5191 6.9115ZM18.8526 6.96345C18.8925 6.96345 19.6924 7.18095 20.1056 7.3054C21.1363 7.61352 22.3253 8.04731 23.0962 8.39772L23.4164 8.54272L23.1905 8.59467C21.3043 9.02967 19.6864 9.5287 18.13 10.1606C18.0008 10.2138 17.8884 10.2573 17.8799 10.2573C17.9019 10.1797 17.9322 10.1047 17.9705 10.0338C18.4394 9.03933 18.7415 7.99535 18.82 7.10966C18.8272 7.0287 18.8417 6.96345 18.8526 6.96345ZM10.9019 8.79042C10.914 8.77834 11.523 8.92092 11.8553 9.01396C12.3543 9.15412 13.4164 9.50937 13.4164 9.53716C13.4164 9.54199 13.2992 9.6447 13.1566 9.76432C12.5396 10.2831 11.9419 10.8244 11.3647 11.3871C11.2453 11.5068 11.1211 11.6216 10.9925 11.7315C10.9841 11.7315 10.9805 11.7037 10.9853 11.671C11.0856 10.9328 11.0638 9.98544 10.9249 9.02121C10.9112 8.94538 10.9031 8.86865 10.9007 8.79163L10.9019 8.79042ZM23.7221 8.8025C23.7306 8.81217 23.4394 9.2677 23.2581 9.52749C22.9923 9.9069 22.6093 10.4047 21.7344 11.5055L20.5817 12.9579C20.4764 13.0945 20.3681 13.2286 20.2567 13.3603C20.2531 13.3603 20.1963 13.2805 20.1322 13.1838C19.6383 12.4468 19.04 11.7854 18.356 11.2203C18.2488 11.1306 18.1401 11.0428 18.0298 10.9569C17.9972 10.935 17.9672 10.9095 17.9403 10.8808C17.9403 10.8687 18.6859 10.5497 19.255 10.3177C20.3575 9.87456 21.4773 9.4755 22.6117 9.1215C23.1457 8.95838 23.7137 8.79525 23.7221 8.8025ZM24.058 8.89071C24.1461 8.92049 24.2301 8.96107 24.3081 9.01154C25.3735 9.62192 26.359 10.3622 27.2419 11.2155C27.4763 11.4451 28.0479 12.0408 28.0394 12.0456L27.6008 12.0807C25.7521 12.2196 23.3886 12.6123 21.1122 13.1597C20.9575 13.1959 20.8246 13.2273 20.8149 13.2273C20.8065 13.2273 20.9756 13.0582 21.1907 12.8503C22.5283 11.5659 23.1373 10.7551 23.855 9.30516C23.9614 9.09008 24.052 8.90279 24.0556 8.89192H24.058V8.89071ZM14.2852 9.89361C14.3468 9.90569 14.9171 10.1715 15.3473 10.3866C15.74 10.5836 16.3357 10.9013 16.3659 10.9291C16.3695 10.9328 16.1605 11.0415 15.8995 11.172C15.1252 11.5565 14.3681 11.9745 13.6303 12.425C13.4188 12.5543 13.2436 12.6594 13.2376 12.6594C13.2195 12.6594 13.2255 12.6437 13.3439 12.4286C13.752 11.6676 14.0521 10.8534 14.2357 10.0096C14.2526 9.93469 14.2719 9.88877 14.2852 9.8924V9.89361ZM13.7112 9.99511C13.7233 10.0072 13.5759 10.5509 13.4817 10.8409C13.2264 11.6039 12.888 12.3365 12.4727 13.0256L12.364 13.2032L12.1187 12.9651C11.88 12.7219 11.6043 12.518 11.3019 12.361C11.227 12.3272 11.1558 12.2859 11.0892 12.2377C11.0892 12.2015 11.8384 11.5212 12.4159 11.0318C12.8304 10.6814 13.7016 9.98423 13.7112 9.99511ZM17.2009 11.4306L17.4147 11.5695C17.9065 11.8885 18.4877 12.3175 18.9312 12.686C19.1801 12.8938 19.6622 13.3264 19.7613 13.4303L19.8144 13.4871L19.4592 13.5862C17.6428 14.0816 15.8488 14.6557 14.0822 15.3068C13.9547 15.3557 13.8257 15.4009 13.6955 15.4422C13.6702 15.4422 13.6448 15.4651 14.0979 15.0483C15.2579 13.9813 16.2813 12.8056 17.0462 11.6626L17.2009 11.4306ZM16.2837 11.6602C16.2946 11.671 15.6893 12.5181 15.3304 12.9966C14.9002 13.5681 14.1342 14.5251 13.6073 15.1473C13.4728 15.3114 13.3334 15.4714 13.1893 15.627C13.1772 15.6307 13.1711 15.5666 13.1699 15.4663C13.1699 14.9347 13.0346 14.3668 12.7978 13.8859C12.6975 13.6829 12.6806 13.6345 12.7011 13.6152C12.7833 13.5403 14.0629 12.8105 14.8688 12.3791C15.4234 12.0819 16.2741 11.6493 16.2837 11.6602ZM10.7376 13.0195C11.0887 13.1877 11.4182 13.3979 11.7187 13.6454C11.7284 13.6515 11.6136 13.7457 11.465 13.8532C11.0481 14.1541 10.4138 14.6314 10.0476 14.9238C9.66099 15.2319 9.6477 15.2416 9.6912 15.1739C9.98119 14.7305 10.1262 14.4804 10.2784 14.1589C10.415 13.8738 10.5491 13.5355 10.6458 13.2406C10.6657 13.1627 10.6959 13.0882 10.7376 13.0195ZM12.2154 14.1795C12.2359 14.1759 12.2637 14.2133 12.3833 14.3909C12.6334 14.7655 12.8256 15.2633 12.8751 15.6693L12.8848 15.7575L12.2842 15.9895C11.3618 16.3441 10.4488 16.7229 9.5462 17.1254C9.35891 17.2124 9.02904 17.3694 8.81275 17.4782C8.59647 17.5869 8.42005 17.6715 8.42005 17.6667C8.42005 17.6618 8.55538 17.5591 8.72213 17.4395C10.0356 16.4849 11.169 15.441 12.0232 14.3958C12.1139 14.2846 12.1972 14.1879 12.2081 14.1807C12.2103 14.1794 12.2128 14.1786 12.2154 14.1783V14.1795ZM11.5339 14.3487C11.552 14.3656 11.0493 14.9335 10.711 15.2791C9.89367 16.1189 8.97848 16.8577 7.98506 17.4794C7.85456 17.5628 7.73615 17.6365 7.71923 17.6461C7.69144 17.6631 7.7289 17.6196 8.18564 17.1217C8.47322 16.8088 8.69313 16.549 8.94446 16.224C9.06031 16.0563 9.20915 15.914 9.38187 15.8059C10.0307 15.3371 11.517 14.3305 11.5339 14.3474V14.3487ZM12.741 0.500192C12.6443 0.488109 11.0844 1.04997 10.0827 1.45597C8.72575 2.00816 7.6709 2.5362 7.02083 2.99294C6.77916 3.1621 6.47467 3.46781 6.43117 3.58501C6.41403 3.63267 6.40544 3.68299 6.4058 3.73363L6.99545 4.28946L8.39468 4.73653L11.7284 5.33344L15.5382 5.98834L15.5769 5.6621L15.5431 5.65606L15.0416 5.57631L14.9389 5.39748C14.421 4.48387 13.9464 3.54639 13.5167 2.58815C13.2659 2.01226 13.052 1.42101 12.8763 0.817978C12.7941 0.524358 12.7857 0.506233 12.741 0.500192ZM12.6673 0.724938H12.6733C12.6769 0.728563 12.6939 0.85181 12.712 0.996808C12.7869 1.61063 12.9246 2.20512 13.1397 2.84553C13.3016 3.32885 13.304 3.30106 13.1107 3.24668C12.6636 3.12223 10.6554 2.77786 9.20304 2.57607C9.05883 2.55768 8.91501 2.53633 8.77167 2.51203C8.75355 2.49391 9.81928 1.93567 10.2917 1.71455C10.8971 1.43422 12.5476 0.747896 12.6673 0.724938ZM8.43576 2.69207L8.60613 2.75007C9.53895 3.06665 11.8758 3.51372 13.1675 3.62005C13.3125 3.63214 13.4358 3.64543 13.4394 3.64905C13.443 3.65268 13.3185 3.71913 13.1639 3.79647C12.5416 4.10821 11.8553 4.48883 11.3804 4.78607C11.2415 4.87307 11.1146 4.94315 11.0965 4.94195C11.0278 4.93228 10.9593 4.92141 10.891 4.90932L10.7171 4.88153L10.276 4.45258C9.50149 3.70343 8.89734 3.12344 8.66292 2.90594L8.43576 2.69207ZM8.26297 2.82982L8.88042 3.60072C9.22116 4.02363 9.56191 4.44533 9.63682 4.53595C9.71295 4.62658 9.77095 4.7027 9.76732 4.70512C9.7504 4.71841 8.87317 4.54804 8.40797 4.4405C8.08058 4.37091 7.75677 4.28542 7.43769 4.18433L7.19603 4.107L7.19724 4.0478C7.20086 3.75176 7.57423 3.31435 8.20739 2.86848L8.26297 2.82982ZM13.5215 3.87984C13.5397 3.88105 13.5602 3.91851 13.6146 4.03813C13.7644 4.36679 14.2308 5.25611 14.3432 5.42769C14.3794 5.48448 14.4399 5.4881 13.82 5.38781C12.3338 5.14857 11.8517 5.06761 11.8517 5.05794C11.8819 5.03168 11.9157 5.00972 11.9519 4.9927C12.4261 4.72667 12.8739 4.41636 13.2895 4.06592L13.501 3.8883C13.5083 3.88226 13.5155 3.87863 13.5215 3.87984ZM18.7282 14.0393L12.9186 15.934L7.86785 18.1645L6.45413 18.5391C5.70502 19.2474 4.92785 19.9254 4.1245 20.5715C3.70713 20.9167 3.32173 21.2989 2.97298 21.7133C2.57182 22.2136 2.25766 22.7452 2.12233 23.1548C1.88067 23.8919 1.99787 24.6386 2.4667 25.3274C3.06481 26.207 4.255 27.1012 5.63852 27.7102C6.34538 28.0195 7.53557 28.4207 8.42972 28.6454C9.91957 29.0224 12.7966 29.4308 14.3819 29.4912C14.7033 29.5033 15.131 29.5033 15.1516 29.4888C15.1854 29.4658 15.4331 28.9994 15.7195 28.4134C16.6934 26.4245 17.3978 24.5589 17.7772 22.9663C18.0068 22.0009 18.1856 20.7153 18.3016 19.1904C18.3373 18.4119 18.3438 17.6324 18.321 16.8535C18.2908 16.1624 18.217 15.4739 18.0998 14.7921C18.0845 14.733 18.0796 14.6717 18.0853 14.6109C18.1023 14.5988 18.1566 14.5806 18.8707 14.3728L18.7282 14.0393ZM17.399 14.8187C17.4534 14.8187 17.5923 16.1647 17.6298 17.0178C17.6371 17.2003 17.6358 17.3163 17.625 17.3163C17.5911 17.3163 16.8819 16.8994 16.378 16.584C15.9025 16.2845 15.4343 15.9735 14.9739 15.6512C14.9316 15.6174 14.9365 15.6162 15.2953 15.4929C15.9055 15.2827 17.3543 14.8187 17.4002 14.8187H17.399ZM14.4411 15.789C14.4773 15.789 14.58 15.8458 14.8217 15.9968C15.7279 16.5647 16.9556 17.2474 17.48 17.477C17.6443 17.5495 17.6624 17.5205 17.2866 17.7754C16.4867 18.3192 15.4911 18.8532 14.2695 19.397C14.1375 19.4573 14.0042 19.5145 13.8695 19.5686C13.8785 19.4864 13.8959 19.4054 13.9215 19.3269C14.2175 18.2334 14.3843 17.1278 14.3891 16.2409C14.3915 15.8035 14.3915 15.801 14.4338 15.7902H14.4411V15.789ZM13.8321 16.0222C13.8575 16.0487 13.8393 17.0299 13.8079 17.2981C13.7159 18.0534 13.5467 18.7971 13.3028 19.5178C13.2859 19.5384 12.6854 18.9523 12.486 18.7203C12.1703 18.3623 11.8989 17.9676 11.6777 17.5446C11.5786 17.3489 11.4191 16.9598 11.4336 16.9489C11.5012 16.9006 13.8152 16.0065 13.8321 16.0222ZM10.9623 17.1531C10.9672 17.1531 10.972 17.1544 10.9744 17.158C11.0012 17.2088 11.0238 17.2618 11.0421 17.3163C11.2285 17.7802 11.4729 18.2187 11.7695 18.6212C12.1273 19.095 12.5398 19.5249 12.9983 19.9021C13.0261 19.9262 13.0346 19.9214 12.3193 20.1921C11.4035 20.5373 10.4793 20.8597 9.54741 21.1587C9.15229 21.2868 8.81759 21.3943 8.8043 21.4004C8.76442 21.4137 8.7765 21.3895 8.8925 21.2094C9.40845 20.4047 10.189 18.8291 10.6264 17.715C10.7013 17.5217 10.7738 17.3284 10.7871 17.2849C10.8053 17.222 10.8246 17.2003 10.8838 17.1737C10.9081 17.1609 10.9349 17.1539 10.9623 17.1531ZM10.0827 17.5156C10.0948 17.5265 9.87244 17.9965 9.65253 18.4231C9.18636 19.3247 8.68121 20.2055 8.13852 21.0632L7.9186 21.4112C7.89685 21.4439 7.88719 21.433 7.81952 21.2977C7.66155 20.9753 7.54775 20.633 7.48119 20.2803C7.41906 19.8456 7.42722 19.4037 7.50536 18.9717C7.56215 18.6974 7.55973 18.7034 7.68902 18.6382C8.24726 18.3518 10.0646 17.4999 10.0827 17.5156ZM17.6564 17.8238V18.0098C17.6439 19.2209 17.5409 20.4294 17.3483 21.6251C16.5515 21.3952 15.7824 21.0783 15.0549 20.6802C14.6272 20.4458 14.0097 20.0676 14.0278 20.0495C14.0315 20.0446 14.2139 19.9492 14.4314 19.8356C15.2941 19.3885 16.117 18.9052 16.8335 18.4267C17.1018 18.2479 17.5041 17.9567 17.5936 17.8781L17.6564 17.8238ZM6.76708 19.1203C6.78521 19.1203 6.78037 19.1541 6.75258 19.3148C6.72863 19.471 6.7121 19.6283 6.70304 19.7861C6.66679 20.4289 6.77191 20.9025 7.0897 21.5502C7.17912 21.7314 7.2492 21.8813 7.24557 21.8837C7.21295 21.9115 4.30937 22.7609 3.39589 23.011L2.87028 23.156C2.83765 23.1657 2.83523 23.1585 2.84611 23.0835C2.9464 22.4395 3.43818 21.5949 4.1245 20.8844C4.58124 20.4132 4.94616 20.1328 5.56844 19.7788C5.96391 19.552 6.36353 19.3324 6.76708 19.1203ZM13.617 20.3467C13.6194 20.3443 13.727 20.4011 13.855 20.476C14.7939 21.0185 16.1025 21.5272 17.2178 21.7822L17.3193 21.8064L17.1803 21.8825C16.5979 22.2063 14.6779 23.005 12.7168 23.7397C12.5099 23.817 12.3033 23.8951 12.0969 23.9741C12.0656 23.9895 12.0322 24.0004 11.9979 24.0067C11.9979 24.0019 12.0788 23.8472 12.1779 23.6611C12.7289 22.6316 13.2775 21.381 13.5602 20.5135C13.588 20.4253 13.6134 20.3503 13.617 20.3467ZM12.9186 20.5763C12.8977 20.6459 12.8722 20.7142 12.8425 20.7805C12.3967 21.8332 11.8879 22.8581 11.3188 23.8496C11.2222 24.0268 11.1206 24.2013 11.0143 24.3728C11.0083 24.3728 10.8765 24.2931 10.7195 24.1976C9.78907 23.6273 8.965 22.9265 8.42368 22.2438L8.34634 22.1471L8.7475 22.0371C10.0625 21.6854 11.3506 21.24 12.602 20.7044C12.7736 20.6319 12.9162 20.5727 12.9186 20.5763ZM17.2564 22.0903C17.2564 22.0903 17.2589 22.0915 17.2589 22.0939C17.2589 22.1906 17.0377 23.0944 16.8529 23.7493C16.6982 24.2967 16.5677 24.7256 16.3272 25.4857C16.2659 25.6907 16.1982 25.8938 16.1242 26.0947C14.8839 25.8826 13.6691 25.5421 12.4993 25.0785C12.2371 24.9758 11.9794 24.8617 11.7272 24.7365C11.72 24.7281 11.9846 24.6036 12.3144 24.4586C14.3142 23.5874 16.3852 22.5942 17.0933 22.1676C17.1428 22.1326 17.198 22.1064 17.2564 22.0903ZM7.24316 22.4323C7.25403 22.4431 6.69458 23.243 5.91401 24.3366L5.20473 25.331C5.08753 25.499 4.9087 25.7636 4.8072 25.9207L4.62233 26.2058L4.42658 26.0403C4.13352 25.7831 3.86008 25.5044 3.60855 25.2065C3.23156 24.7365 2.97661 24.2423 2.87511 23.788C2.82919 23.5777 2.82678 23.4714 2.87148 23.4581C3.6494 23.2705 4.42837 23.0872 5.20836 22.9083L6.77916 22.5398C7.0317 22.4794 7.24074 22.4311 7.24316 22.4323ZM7.80502 22.6473L7.94639 22.8056C8.53684 23.476 9.2332 24.045 10.0078 24.49C10.0922 24.5319 10.1713 24.5839 10.2434 24.6447C8.50444 25.2751 6.76039 25.8914 5.0114 26.4934C4.98145 26.4755 4.95241 26.4562 4.92441 26.4354L4.84345 26.3774L4.97032 26.1937C5.38115 25.598 5.89831 24.9431 7.03049 23.5814L7.80502 22.6473ZM11.3091 25.1522C11.3127 25.1485 11.5085 25.2174 11.7465 25.3068C12.3181 25.5207 12.7663 25.6597 13.3741 25.8119C14.1197 25.9992 15.1987 26.1865 15.8367 26.2397C15.9333 26.2469 15.9841 26.259 15.9696 26.2687C15.9394 26.288 15.2929 26.5031 14.8181 26.6529C12.956 27.2193 11.0887 27.7683 9.21633 28.2998C9.17404 28.3083 9.02662 28.2696 9.02662 28.2515C9.02662 28.2406 9.13175 28.1077 9.25983 27.9542C9.89874 27.1892 10.4942 26.3888 11.0433 25.557C11.1314 25.4217 11.22 25.2868 11.3091 25.1522ZM10.5334 25.1739C10.5394 25.18 10.2277 25.679 9.68032 26.5417C9.44833 26.9054 9.18612 27.3211 9.09671 27.4625C9.00608 27.605 8.87438 27.8225 8.8043 27.9458L8.67501 28.1693L8.60976 28.1524C8.45268 28.1101 7.34224 27.7174 7.04983 27.6014C6.70079 27.4634 6.35954 27.3065 6.02759 27.1314C5.67839 26.9429 5.23615 26.6626 5.26998 26.6517L6.60517 26.2868C8.5288 25.7624 9.59332 25.4615 10.2905 25.2428C10.4222 25.2029 10.5322 25.1715 10.5334 25.1739ZM15.9986 26.4559H16.0058C16.024 26.5019 15.3111 28.4738 15.0513 29.0997C14.9921 29.2399 14.9715 29.2749 14.9401 29.2725C14.3619 29.1995 13.7847 29.1189 13.2086 29.0309C12.1139 28.8641 10.2809 28.5439 9.81807 28.4388L9.71053 28.4146L10.3666 28.2672C11.7731 27.9506 12.4486 27.7802 13.1337 27.57C14.0168 27.2982 14.88 26.9655 15.717 26.5744C15.8087 26.5298 15.9026 26.4902 15.9986 26.4559Z" fill="#8A979C"/>
<path fill-rule="evenodd" clip-rule="evenodd" d="M6.45167 3.90765C6.50726 4.04782 6.67642 4.21698 6.8625 4.39581C6.8625 4.39581 8.81393 6.30011 9.05317 6.57561C10.1346 7.82379 10.6046 9.05265 10.6481 10.7479C10.6747 11.8354 10.4657 12.7924 9.95578 13.9052C9.0423 15.8977 7.11625 18.0957 4.1438 20.5389L5.5684 19.7788C5.96388 19.552 6.36349 19.3324 6.76704 19.1203C8.83688 17.9893 10.5334 17.2957 13.3886 16.2228C17.4956 14.6798 24.2513 12.8685 28.0962 12.28L28.4961 12.2184L28.4357 12.1218C28.0829 11.5756 27.8436 11.2385 27.5536 10.8808C26.7114 9.83805 25.6904 8.9874 24.4398 8.28779C22.7216 7.32476 20.4923 6.57682 17.6733 6.01616C16.7933 5.85069 15.9107 5.69963 15.0259 5.56304C13.443 5.32029 11.8624 5.0625 10.2844 4.78972C9.77091 4.6991 9.00363 4.57102 8.49493 4.46106C8.10264 4.37771 7.81895 4.30869 7.43766 4.18436L7.196 4.10703L6.45167 3.90765ZM7.75303 4.67614C7.66361 4.64593 7.59111 4.62297 7.58749 4.62539C7.65623 4.68597 7.72716 4.74401 7.80015 4.79939C8.73901 5.53767 9.5522 6.45478 10.0645 7.35618C10.0947 7.41624 10.1312 7.47294 10.1733 7.52534C10.1769 7.52172 10.1334 7.34893 10.0754 7.1411C9.92436 6.59856 9.48091 5.18363 9.45191 5.15101C9.4495 5.14738 9.23079 5.08938 8.96738 5.02172C8.75955 4.96976 8.56501 4.91659 8.3886 4.86826C8.13485 4.79697 7.91736 4.73172 7.75303 4.67614ZM9.98599 5.26338C9.90863 5.24362 9.82985 5.22989 9.75037 5.2223C9.77563 5.29014 9.79943 5.3591 9.83132 5.42409C10.1489 6.11897 10.4115 6.83771 10.6167 7.57367C10.629 7.63004 10.6455 7.68539 10.6663 7.73921C10.7476 7.66391 10.8269 7.58656 10.9043 7.50722C11.2879 7.13911 11.7045 6.80703 12.1489 6.51519C12.3434 6.38469 12.927 6.03549 13.0708 5.96299C13.1142 5.94482 13.1542 5.9195 13.1892 5.88808C13.1892 5.87962 13.072 5.85545 12.9282 5.83129C12.0703 5.68629 10.7339 5.42771 9.98599 5.26338ZM13.7088 6.43303C13.6254 6.10195 13.5771 5.95333 13.5529 5.94487C13.5106 5.93158 12.3108 6.86439 11.8649 7.2583C11.6317 7.46492 11.0892 8.00746 11.0892 8.03404C11.3116 8.11244 11.5374 8.18098 11.7658 8.23945C12.3981 8.4139 13.0273 8.5992 13.6532 8.79528L13.8792 8.86777L13.8937 8.82186C13.9638 8.02083 13.9014 7.21372 13.7088 6.43303ZM16.4915 6.44511C15.6723 6.28803 13.8683 5.97628 13.855 5.98837C13.8686 6.03829 13.8868 6.08683 13.9094 6.13336C14.2139 6.84506 14.3818 7.68725 14.3818 8.52099C14.3818 8.67324 14.3842 8.7989 14.3891 8.7989C14.3927 8.7989 14.58 8.67565 14.8047 8.52582C15.6602 7.95429 16.5205 7.48547 17.6805 6.96347C17.9741 6.83056 18.066 6.77981 18.0394 6.77015C17.9862 6.74719 17.1029 6.56232 16.4915 6.44511ZM18.4224 7.49151C18.4732 7.28126 18.5324 6.92481 18.5191 6.91152C18.5022 6.8946 17.5391 7.43109 16.941 7.78996C16.1931 8.23824 14.783 9.17227 14.812 9.19885C14.9223 9.25087 15.0344 9.29923 15.1479 9.34385C15.7823 9.60605 16.3598 9.88759 16.8697 10.186C16.954 10.2396 17.0425 10.286 17.1344 10.325C17.2019 10.2299 17.2632 10.1307 17.318 10.0278C17.84 9.11548 18.2629 8.144 18.4224 7.49151ZM20.1056 7.30543C19.6924 7.18097 18.8925 6.96347 18.8526 6.96347C18.8417 6.96347 18.8272 7.02872 18.82 7.10968C18.7414 7.99537 18.4393 9.03935 17.9705 10.0338C17.9322 10.1048 17.9018 10.1797 17.8799 10.2573C17.8883 10.2573 18.0007 10.2138 18.13 10.1607C19.6863 9.52872 21.3042 9.02969 23.1904 8.5947L23.4164 8.54274L23.0962 8.39774C22.3253 8.04733 21.1363 7.61355 20.1056 7.30543ZM11.8552 9.01398C11.523 8.92094 10.914 8.77836 10.9019 8.79044L10.9007 8.79165C10.9031 8.86867 10.9111 8.94541 10.9248 9.02123C11.0638 9.98546 11.0856 10.9328 10.9853 11.6711C10.9804 11.7037 10.9841 11.7315 10.9925 11.7315C11.1211 11.6217 11.2452 11.5068 11.3647 11.3871C11.9419 10.8244 12.5396 10.2831 13.1566 9.76434C13.2992 9.64472 13.4164 9.54201 13.4164 9.53718C13.4164 9.50939 12.3543 9.15414 11.8552 9.01398ZM23.2581 9.52751C23.4393 9.26773 23.7305 8.81219 23.7221 8.80252C23.7136 8.79528 23.1457 8.9584 22.6116 9.12152C21.4773 9.47552 20.3575 9.87458 19.2549 10.3177C18.6858 10.5497 17.9403 10.8687 17.9403 10.8808C17.9671 10.9095 17.9971 10.9351 18.0297 10.9569C18.14 11.0428 18.2488 11.1306 18.356 11.2204C19.04 11.7854 19.6383 12.4468 20.1322 13.1839C20.1962 13.2805 20.253 13.3603 20.2566 13.3603C20.368 13.2286 20.4764 13.0945 20.5817 12.9579L21.7344 11.5055C22.6092 10.4047 22.9923 9.90692 23.2581 9.52751ZM24.3081 9.01156C24.2301 8.9611 24.146 8.92172 24.058 8.89194H24.0556C24.0519 8.90282 23.9613 9.0901 23.855 9.30518C23.1373 10.7552 22.5283 11.5659 21.1907 12.8504C20.9756 13.0582 20.8064 13.2274 20.8149 13.2274C20.8236 13.2274 20.933 13.2017 21.0681 13.17C23.3446 12.6226 25.752 12.2196 27.6008 12.0807L28.0394 12.0456C28.0478 12.0408 27.4763 11.4451 27.2419 11.2155C26.359 10.3623 25.3735 9.62194 24.3081 9.01156ZM15.3473 10.3866C14.9171 10.1715 14.3468 9.90571 14.2852 9.89363C14.2719 9.89001 14.2525 9.93471 14.2356 10.0096C14.052 10.8534 13.7519 11.6676 13.3439 12.4287C13.2255 12.6437 13.2194 12.6595 13.2376 12.6595C13.2436 12.6595 13.4188 12.5543 13.6303 12.425C14.3681 11.9745 15.1252 11.5565 15.8995 11.172C16.1605 11.0415 16.3695 10.9328 16.3659 10.9292C16.3357 10.9014 15.74 10.5836 15.3473 10.3866ZM13.4816 10.8409C13.5759 10.551 13.7233 10.0072 13.7112 9.99513C13.7015 9.98425 12.8304 10.6814 12.4159 11.0319C11.8383 11.5212 11.0892 12.2015 11.0892 12.2378C11.1557 12.2859 11.227 12.3272 11.3018 12.361C11.6043 12.518 11.88 12.7219 12.1187 12.9652L12.3639 13.2032L12.4727 13.0256C12.888 12.3365 13.2263 11.6039 13.4816 10.8409ZM17.4147 11.5696L17.2008 11.4306L17.0462 11.6626C16.2813 12.8057 15.2579 13.9813 14.0979 15.0483C13.6684 15.4434 13.6688 15.4434 13.6916 15.4423C13.8218 15.401 13.9546 15.3557 14.0822 15.3069C15.8487 14.6557 17.6428 14.0816 19.4592 13.5862L19.8144 13.4872L19.7612 13.4304C19.6622 13.3264 19.18 12.8939 18.9311 12.686C18.4877 12.3175 17.9065 11.8886 17.4147 11.5696ZM15.3304 12.9966C15.6892 12.5181 16.2946 11.6711 16.2837 11.6602C16.274 11.6493 15.4234 12.0819 14.8688 12.3791C14.0628 12.8105 12.7832 13.5403 12.7011 13.6152C12.6805 13.6346 12.6974 13.6829 12.7977 13.8859C13.0346 14.3668 13.1699 14.9347 13.1699 15.4664C13.1711 15.5667 13.1771 15.6307 13.1892 15.6271C13.3334 15.4714 13.4728 15.3114 13.6073 15.1474C14.1341 14.5251 14.9002 13.5681 15.3304 12.9966ZM11.7187 13.6454C11.4181 13.3979 11.0887 13.1878 10.7376 13.0195C10.6958 13.0883 10.6657 13.1628 10.6457 13.2407C10.5491 13.5355 10.4149 13.8738 10.2784 14.159C10.1262 14.4804 9.98115 14.7305 9.69116 15.174C9.64766 15.2416 9.66095 15.232 10.0476 14.9238C10.4137 14.6314 11.0481 14.1541 11.465 13.8533C11.6136 13.7457 11.7284 13.6515 11.7187 13.6454ZM12.3833 14.391C12.2637 14.2133 12.2359 14.1759 12.2153 14.1795C12.2044 14.1868 12.1138 14.2846 12.0232 14.3958C11.1689 15.441 10.0355 16.485 8.72209 17.4395C8.55535 17.5592 8.42002 17.6619 8.42002 17.6667C8.42002 17.6715 8.59643 17.587 8.81272 17.4782C9.029 17.3695 9.35887 17.2124 9.54616 17.1254C10.4487 16.7229 11.3617 16.3441 12.2842 15.9896L12.8847 15.7576L12.8751 15.6694C12.8255 15.2634 12.6334 14.7655 12.3833 14.391ZM10.711 15.2791C11.0493 14.9335 11.552 14.3644 11.5338 14.3475C11.5169 14.3306 10.0307 15.3371 9.38183 15.8059C9.20911 15.9141 9.06028 16.0563 8.94442 16.224C8.69309 16.549 8.47318 16.8088 8.1856 17.1218C7.72886 17.6196 7.6914 17.6631 7.71919 17.6462C7.73611 17.6365 7.85453 17.5628 7.98502 17.4794C8.97844 16.8577 9.89364 16.119 10.711 15.2791Z" fill="#C91414"/>
</svg>
