<svg width="170" height="30" viewBox="0 0 170 30" fill="none" xmlns="http://www.w3.org/2000/svg">
<path d="M131.457 3.52701C131.457 3.52701 131.36 3.68047 131.452 3.90763C131.507 4.0478 131.676 4.21696 131.863 4.39579C131.863 4.39579 133.814 6.30009 134.053 6.57558C135.135 7.82377 135.605 9.05262 135.648 10.7479C135.675 11.8354 135.466 12.7923 134.956 13.9052C134.042 15.8977 132.116 18.0956 129.144 20.5388L129.579 20.3938C129.86 20.1848 130.241 19.9601 131.14 19.4683C133.21 18.3373 135.533 17.2957 138.389 16.2227C142.496 14.6797 149.251 12.8685 153.096 12.28L153.496 12.2184L153.436 12.1217C153.083 11.5756 152.844 11.2385 152.554 10.8808C151.711 9.83803 150.69 8.98737 149.44 8.28776C147.722 7.32474 145.492 6.57679 142.673 6.01614C141.793 5.85067 140.911 5.69961 140.026 5.56302C138.443 5.32026 136.862 5.06248 135.284 4.7897C134.771 4.69908 134.004 4.57099 133.495 4.46104C133.103 4.37769 132.715 4.27363 132.334 4.14929C132.01 4.02242 131.554 3.89917 131.457 3.52701ZM132.588 4.62537C132.591 4.62295 132.664 4.64591 132.753 4.67612C132.917 4.7317 133.135 4.79695 133.389 4.86824C133.565 4.91657 133.76 4.96974 133.967 5.02169C134.231 5.08936 134.45 5.14736 134.452 5.15098C134.481 5.18361 134.924 6.59854 135.075 7.14107C135.133 7.3489 135.177 7.52169 135.173 7.52532C135.131 7.47292 135.095 7.41622 135.065 7.35615C134.552 6.45475 133.739 5.53764 132.8 4.79937C132.727 4.74398 132.656 4.68595 132.588 4.62537ZM134.75 5.22227C134.83 5.22987 134.909 5.2436 134.986 5.26336C135.734 5.42769 137.07 5.68627 137.928 5.83126C138.072 5.85543 138.189 5.8796 138.189 5.88805C138.154 5.91947 138.114 5.9448 138.071 5.96297C137.927 6.03547 137.343 6.38467 137.149 6.51517C136.705 6.80701 136.288 7.13908 135.904 7.50719C135.827 7.58653 135.748 7.66389 135.666 7.73919C135.646 7.68537 135.629 7.63002 135.617 7.57365C135.412 6.83768 135.149 6.11895 134.831 5.42406C134.799 5.35907 134.771 5.29253 134.746 5.22469C134.746 5.22469 134.746 5.22227 134.75 5.22227ZM138.553 5.94485C138.577 5.9533 138.625 6.10193 138.709 6.433C138.901 7.21369 138.964 8.02081 138.894 8.82184L138.879 8.86775L138.653 8.79525C138.027 8.59918 137.398 8.41388 136.766 8.23943C136.537 8.18096 136.312 8.11242 136.089 8.03402C136.089 8.00743 136.632 7.4649 136.865 7.25828C137.311 6.86437 138.511 5.93155 138.553 5.94485ZM138.855 5.98834C138.868 5.97626 140.672 6.28801 141.492 6.44509C142.103 6.56229 142.986 6.74716 143.039 6.77012C143.066 6.77979 142.974 6.83054 142.681 6.96345C141.521 7.48544 140.66 7.95427 139.805 8.5258C139.58 8.67563 139.393 8.79888 139.389 8.79888C139.384 8.79888 139.382 8.67321 139.382 8.52097C139.382 7.68723 139.214 6.84504 138.909 6.13334C138.887 6.08681 138.869 6.03826 138.855 5.98834ZM143.519 6.9115C143.532 6.92479 143.473 7.28124 143.422 7.49148C143.263 8.14397 142.84 9.11546 142.318 10.0277C142.263 10.1306 142.202 10.2299 142.134 10.325C142.043 10.286 141.954 10.2395 141.87 10.186C141.36 9.88757 140.782 9.60603 140.148 9.34383C140.034 9.2992 139.922 9.25084 139.812 9.19883C139.783 9.17225 141.193 8.23822 141.941 7.78994C142.539 7.43107 143.502 6.89458 143.519 6.9115ZM143.853 6.96345C143.892 6.96345 144.692 7.18095 145.106 7.3054C146.136 7.61352 147.325 8.04731 148.096 8.39772L148.416 8.54272L148.19 8.59467C146.304 9.02967 144.686 9.5287 143.13 10.1606C143.001 10.2138 142.888 10.2573 142.88 10.2573C142.902 10.1797 142.932 10.1047 142.971 10.0338C143.439 9.03933 143.741 7.99535 143.82 7.10966C143.827 7.0287 143.842 6.96345 143.853 6.96345ZM135.902 8.79042C135.914 8.77834 136.523 8.92092 136.855 9.01396C137.354 9.15412 138.416 9.50937 138.416 9.53716C138.416 9.54199 138.299 9.6447 138.157 9.76432C137.54 10.2831 136.942 10.8244 136.365 11.3871C136.245 11.5068 136.121 11.6216 135.993 11.7315C135.984 11.7315 135.98 11.7037 135.985 11.671C136.086 10.9328 136.064 9.98544 135.925 9.02121C135.911 8.94538 135.903 8.86865 135.901 8.79163L135.902 8.79042ZM148.722 8.8025C148.731 8.81217 148.439 9.2677 148.258 9.52749C147.992 9.9069 147.609 10.4047 146.734 11.5055L145.582 12.9579C145.476 13.0945 145.368 13.2286 145.257 13.3603C145.253 13.3603 145.196 13.2805 145.132 13.1838C144.638 12.4468 144.04 11.7854 143.356 11.2203C143.249 11.1306 143.14 11.0428 143.03 10.9569C142.997 10.935 142.967 10.9095 142.94 10.8808C142.94 10.8687 143.686 10.5497 144.255 10.3177C145.358 9.87456 146.477 9.4755 147.612 9.1215C148.146 8.95838 148.714 8.79525 148.722 8.8025ZM149.058 8.89071C149.146 8.92049 149.23 8.96107 149.308 9.01154C150.374 9.62192 151.359 10.3622 152.242 11.2155C152.476 11.4451 153.048 12.0408 153.039 12.0456L152.601 12.0807C150.752 12.2196 148.389 12.6123 146.112 13.1597C145.957 13.1959 145.825 13.2273 145.815 13.2273C145.806 13.2273 145.976 13.0582 146.191 12.8503C147.528 11.5659 148.137 10.7551 148.855 9.30516C148.961 9.09008 149.052 8.90279 149.056 8.89192H149.058V8.89071ZM139.285 9.89361C139.347 9.90569 139.917 10.1715 140.347 10.3866C140.74 10.5836 141.336 10.9013 141.366 10.9291C141.37 10.9328 141.16 11.0415 140.9 11.172C140.125 11.5565 139.368 11.9745 138.63 12.425C138.419 12.5543 138.244 12.6594 138.238 12.6594C138.219 12.6594 138.226 12.6437 138.344 12.4286C138.752 11.6676 139.052 10.8534 139.236 10.0096C139.253 9.93469 139.272 9.88877 139.285 9.8924V9.89361ZM138.711 9.99511C138.723 10.0072 138.576 10.5509 138.482 10.8409C138.226 11.6039 137.888 12.3365 137.473 13.0256L137.364 13.2032L137.119 12.9651C136.88 12.7219 136.604 12.518 136.302 12.361C136.227 12.3272 136.156 12.2859 136.089 12.2377C136.089 12.2015 136.838 11.5212 137.416 11.0318C137.83 10.6814 138.702 9.98423 138.711 9.99511ZM142.201 11.4306L142.415 11.5695C142.907 11.8885 143.488 12.3175 143.931 12.686C144.18 12.8938 144.662 13.3264 144.761 13.4303L144.814 13.4871L144.459 13.5862C142.643 14.0816 140.849 14.6557 139.082 15.3068C138.955 15.3557 138.826 15.4009 138.696 15.4422C138.67 15.4422 138.645 15.4651 139.098 15.0483C140.258 13.9813 141.281 12.8056 142.046 11.6626L142.201 11.4306ZM141.284 11.6602C141.295 11.671 140.689 12.5181 140.33 12.9966C139.9 13.5681 139.134 14.5251 138.607 15.1473C138.473 15.3114 138.333 15.4714 138.189 15.627C138.177 15.6307 138.171 15.5666 138.17 15.4663C138.17 14.9347 138.035 14.3668 137.798 13.8859C137.697 13.6829 137.681 13.6345 137.701 13.6152C137.783 13.5403 139.063 12.8105 139.869 12.3791C140.423 12.0819 141.274 11.6493 141.284 11.6602ZM135.738 13.0195C136.089 13.1877 136.418 13.3979 136.719 13.6454C136.728 13.6515 136.614 13.7457 136.465 13.8532C136.048 14.1541 135.414 14.6314 135.048 14.9238C134.661 15.2319 134.648 15.2416 134.691 15.1739C134.981 14.7305 135.126 14.4804 135.278 14.1589C135.415 13.8738 135.549 13.5355 135.646 13.2406C135.666 13.1627 135.696 13.0882 135.738 13.0195ZM137.215 14.1795C137.236 14.1759 137.264 14.2133 137.383 14.3909C137.633 14.7655 137.826 15.2633 137.875 15.6693L137.885 15.7575L137.284 15.9895C136.362 16.3441 135.449 16.7229 134.546 17.1254C134.359 17.2124 134.029 17.3694 133.813 17.4782C133.596 17.5869 133.42 17.6715 133.42 17.6667C133.42 17.6618 133.555 17.5591 133.722 17.4395C135.036 16.4849 136.169 15.441 137.023 14.3958C137.114 14.2846 137.197 14.1879 137.208 14.1807C137.21 14.1794 137.213 14.1786 137.215 14.1783V14.1795ZM136.534 14.3487C136.552 14.3656 136.049 14.9335 135.711 15.2791C134.894 16.1189 133.978 16.8577 132.985 17.4794C132.855 17.5628 132.736 17.6365 132.719 17.6461C132.691 17.6631 132.729 17.6196 133.186 17.1217C133.473 16.8088 133.693 16.549 133.944 16.224C134.06 16.0563 134.209 15.914 134.382 15.8059C135.031 15.3371 136.517 14.3305 136.534 14.3474V14.3487ZM137.741 0.500192C137.644 0.488109 136.084 1.04997 135.083 1.45597C133.726 2.00816 132.671 2.5362 132.021 2.99294C131.779 3.1621 131.475 3.46781 131.431 3.58501C131.414 3.63267 131.405 3.68299 131.406 3.73363L131.995 4.28946L133.395 4.73653L136.728 5.33344L140.538 5.98834L140.577 5.6621L140.543 5.65606L140.042 5.57631L139.939 5.39748C139.421 4.48387 138.946 3.54639 138.517 2.58815C138.266 2.01226 138.052 1.42101 137.876 0.817978C137.794 0.524358 137.786 0.506233 137.741 0.500192ZM137.667 0.724938H137.673C137.677 0.728563 137.694 0.85181 137.712 0.996808C137.787 1.61063 137.925 2.20512 138.14 2.84553C138.302 3.32885 138.304 3.30106 138.111 3.24668C137.664 3.12223 135.655 2.77786 134.203 2.57607C134.059 2.55768 133.915 2.53633 133.772 2.51203C133.754 2.49391 134.819 1.93567 135.292 1.71455C135.897 1.43422 137.548 0.747896 137.667 0.724938ZM133.436 2.69207L133.606 2.75007C134.539 3.06665 136.876 3.51372 138.168 3.62005C138.313 3.63214 138.436 3.64543 138.439 3.64905C138.443 3.65268 138.319 3.71913 138.164 3.79647C137.542 4.10821 136.855 4.48883 136.38 4.78607C136.241 4.87307 136.115 4.94315 136.096 4.94195C136.028 4.93228 135.959 4.92141 135.891 4.90932L135.717 4.88153L135.276 4.45258C134.501 3.70343 133.897 3.12344 133.663 2.90594L133.436 2.69207ZM133.263 2.82982L133.88 3.60072C134.221 4.02363 134.562 4.44533 134.637 4.53595C134.713 4.62658 134.771 4.7027 134.767 4.70512C134.75 4.71841 133.873 4.54804 133.408 4.4405C133.081 4.37091 132.757 4.28542 132.438 4.18433L132.196 4.107L132.197 4.0478C132.201 3.75176 132.574 3.31435 133.207 2.86848L133.263 2.82982ZM138.522 3.87984C138.54 3.88105 138.56 3.91851 138.615 4.03813C138.764 4.36679 139.231 5.25611 139.343 5.42769C139.379 5.48448 139.44 5.4881 138.82 5.38781C137.334 5.14857 136.852 5.06761 136.852 5.05794C136.882 5.03168 136.916 5.00972 136.952 4.9927C137.426 4.72667 137.874 4.41636 138.29 4.06592L138.501 3.8883C138.508 3.88226 138.516 3.87863 138.522 3.87984ZM143.728 14.0393L137.919 15.934L132.868 18.1645L131.454 18.5391C130.705 19.2474 129.928 19.9254 129.125 20.5715C128.707 20.9167 128.322 21.2989 127.973 21.7133C127.572 22.2136 127.258 22.7452 127.122 23.1548C126.881 23.8919 126.998 24.6386 127.467 25.3274C128.065 26.207 129.255 27.1012 130.639 27.7102C131.345 28.0195 132.536 28.4207 133.43 28.6454C134.92 29.0224 137.797 29.4308 139.382 29.4912C139.703 29.5033 140.131 29.5033 140.152 29.4888C140.185 29.4658 140.433 28.9994 140.719 28.4134C141.693 26.4245 142.398 24.5589 142.777 22.9663C143.007 22.0009 143.186 20.7153 143.302 19.1904C143.337 18.4119 143.344 17.6324 143.321 16.8535C143.291 16.1624 143.217 15.4739 143.1 14.7921C143.085 14.733 143.08 14.6717 143.085 14.6109C143.102 14.5988 143.157 14.5806 143.871 14.3728L143.728 14.0393ZM142.399 14.8187C142.453 14.8187 142.592 16.1647 142.63 17.0178C142.637 17.2003 142.636 17.3163 142.625 17.3163C142.591 17.3163 141.882 16.8994 141.378 16.584C140.902 16.2845 140.434 15.9735 139.974 15.6512C139.932 15.6174 139.936 15.6162 140.295 15.4929C140.906 15.2827 142.354 14.8187 142.4 14.8187H142.399ZM139.441 15.789C139.477 15.789 139.58 15.8458 139.822 15.9968C140.728 16.5647 141.956 17.2474 142.48 17.477C142.644 17.5495 142.662 17.5205 142.287 17.7754C141.487 18.3192 140.491 18.8532 139.269 19.397C139.138 19.4573 139.004 19.5145 138.87 19.5686C138.878 19.4864 138.896 19.4054 138.921 19.3269C139.218 18.2334 139.384 17.1278 139.389 16.2409C139.392 15.8035 139.392 15.801 139.434 15.7902H139.441V15.789ZM138.832 16.0222C138.857 16.0487 138.839 17.0299 138.808 17.2981C138.716 18.0534 138.547 18.7971 138.303 19.5178C138.286 19.5384 137.685 18.9523 137.486 18.7203C137.17 18.3623 136.899 17.9676 136.678 17.5446C136.579 17.3489 136.419 16.9598 136.434 16.9489C136.501 16.9006 138.815 16.0065 138.832 16.0222ZM135.962 17.1531C135.967 17.1531 135.972 17.1544 135.974 17.158C136.001 17.2088 136.024 17.2618 136.042 17.3163C136.228 17.7802 136.473 18.2187 136.769 18.6212C137.127 19.095 137.54 19.5249 137.998 19.9021C138.026 19.9262 138.035 19.9214 137.319 20.1921C136.404 20.5373 135.479 20.8597 134.547 21.1587C134.152 21.2868 133.818 21.3943 133.804 21.4004C133.764 21.4137 133.777 21.3895 133.893 21.2094C134.408 20.4047 135.189 18.8291 135.626 17.715C135.701 17.5217 135.774 17.3284 135.787 17.2849C135.805 17.222 135.825 17.2003 135.884 17.1737C135.908 17.1609 135.935 17.1539 135.962 17.1531ZM135.083 17.5156C135.095 17.5265 134.872 17.9965 134.653 18.4231C134.186 19.3247 133.681 20.2055 133.139 21.0632L132.919 21.4112C132.897 21.4439 132.887 21.433 132.82 21.2977C132.662 20.9753 132.548 20.633 132.481 20.2803C132.419 19.8456 132.427 19.4037 132.505 18.9717C132.562 18.6974 132.56 18.7034 132.689 18.6382C133.247 18.3518 135.065 17.4999 135.083 17.5156ZM142.656 17.8238V18.0098C142.644 19.2209 142.541 20.4294 142.348 21.6251C141.551 21.3952 140.782 21.0783 140.055 20.6802C139.627 20.4458 139.01 20.0676 139.028 20.0495C139.031 20.0446 139.214 19.9492 139.431 19.8356C140.294 19.3885 141.117 18.9052 141.834 18.4267C142.102 18.2479 142.504 17.9567 142.594 17.8781L142.656 17.8238ZM131.767 19.1203C131.785 19.1203 131.78 19.1541 131.753 19.3148C131.729 19.471 131.712 19.6283 131.703 19.7861C131.667 20.4289 131.772 20.9025 132.09 21.5502C132.179 21.7314 132.249 21.8813 132.246 21.8837C132.213 21.9115 129.309 22.7609 128.396 23.011L127.87 23.156C127.838 23.1657 127.835 23.1585 127.846 23.0835C127.946 22.4395 128.438 21.5949 129.125 20.8844C129.581 20.4132 129.946 20.1328 130.568 19.7788C130.964 19.552 131.364 19.3324 131.767 19.1203ZM138.617 20.3467C138.619 20.3443 138.727 20.4011 138.855 20.476C139.794 21.0185 141.102 21.5272 142.218 21.7822L142.319 21.8064L142.18 21.8825C141.598 22.2063 139.678 23.005 137.717 23.7397C137.51 23.817 137.303 23.8951 137.097 23.9741C137.066 23.9895 137.032 24.0004 136.998 24.0067C136.998 24.0019 137.079 23.8472 137.178 23.6611C137.729 22.6316 138.277 21.381 138.56 20.5135C138.588 20.4253 138.613 20.3503 138.617 20.3467ZM137.919 20.5763C137.898 20.6459 137.872 20.7142 137.842 20.7805C137.397 21.8332 136.888 22.8581 136.319 23.8496C136.222 24.0268 136.121 24.2013 136.014 24.3728C136.008 24.3728 135.877 24.2931 135.719 24.1976C134.789 23.6273 133.965 22.9265 133.424 22.2438L133.346 22.1471L133.748 22.0371C135.062 21.6854 136.351 21.24 137.602 20.7044C137.774 20.6319 137.916 20.5727 137.919 20.5763ZM142.256 22.0903C142.256 22.0903 142.259 22.0915 142.259 22.0939C142.259 22.1906 142.038 23.0944 141.853 23.7493C141.698 24.2967 141.568 24.7256 141.327 25.4857C141.266 25.6907 141.198 25.8938 141.124 26.0947C139.884 25.8826 138.669 25.5421 137.499 25.0785C137.237 24.9758 136.979 24.8617 136.727 24.7365C136.72 24.7281 136.985 24.6036 137.314 24.4586C139.314 23.5874 141.385 22.5942 142.093 22.1676C142.143 22.1326 142.198 22.1064 142.256 22.0903ZM132.243 22.4323C132.254 22.4431 131.695 23.243 130.914 24.3366L130.205 25.331C130.088 25.499 129.909 25.7636 129.807 25.9207L129.622 26.2058L129.427 26.0403C129.134 25.7831 128.86 25.5044 128.609 25.2065C128.232 24.7365 127.977 24.2423 127.875 23.788C127.829 23.5777 127.827 23.4714 127.871 23.4581C128.649 23.2705 129.428 23.0872 130.208 22.9083L131.779 22.5398C132.032 22.4794 132.241 22.4311 132.243 22.4323ZM132.805 22.6473L132.946 22.8056C133.537 23.476 134.233 24.045 135.008 24.49C135.092 24.5319 135.171 24.5839 135.243 24.6447C133.504 25.2751 131.76 25.8914 130.011 26.4934C129.981 26.4755 129.952 26.4562 129.924 26.4354L129.843 26.3774L129.97 26.1937C130.381 25.598 130.898 24.9431 132.03 23.5814L132.805 22.6473ZM136.309 25.1522C136.313 25.1485 136.508 25.2174 136.747 25.3068C137.318 25.5207 137.766 25.6597 138.374 25.8119C139.12 25.9992 140.199 26.1865 140.837 26.2397C140.933 26.2469 140.984 26.259 140.97 26.2687C140.939 26.288 140.293 26.5031 139.818 26.6529C137.956 27.2193 136.089 27.7683 134.216 28.2998C134.174 28.3083 134.027 28.2696 134.027 28.2515C134.027 28.2406 134.132 28.1077 134.26 27.9542C134.899 27.1892 135.494 26.3888 136.043 25.557C136.131 25.4217 136.22 25.2868 136.309 25.1522ZM135.533 25.1739C135.539 25.18 135.228 25.679 134.68 26.5417C134.448 26.9054 134.186 27.3211 134.097 27.4625C134.006 27.605 133.874 27.8225 133.804 27.9458L133.675 28.1693L133.61 28.1524C133.453 28.1101 132.342 27.7174 132.05 27.6014C131.701 27.4634 131.36 27.3065 131.028 27.1314C130.678 26.9429 130.236 26.6626 130.27 26.6517L131.605 26.2868C133.529 25.7624 134.593 25.4615 135.291 25.2428C135.422 25.2029 135.532 25.1715 135.533 25.1739ZM140.999 26.4559H141.006C141.024 26.5019 140.311 28.4738 140.051 29.0997C139.992 29.2399 139.972 29.2749 139.94 29.2725C139.362 29.1995 138.785 29.1189 138.209 29.0309C137.114 28.8641 135.281 28.5439 134.818 28.4388L134.711 28.4146L135.367 28.2672C136.773 27.9506 137.449 27.7802 138.134 27.57C139.017 27.2982 139.88 26.9655 140.717 26.5744C140.809 26.5298 140.903 26.4902 140.999 26.4559Z" fill="#8A979C"/>
<path fill-rule="evenodd" clip-rule="evenodd" d="M131.452 3.90765C131.507 4.04782 131.676 4.21698 131.862 4.39581C131.862 4.39581 133.814 6.30011 134.053 6.57561C135.135 7.82379 135.605 9.05265 135.648 10.7479C135.675 11.8354 135.466 12.7924 134.956 13.9052C134.042 15.8977 132.116 18.0957 129.144 20.5389L130.568 19.7788C130.964 19.552 131.363 19.3324 131.767 19.1203C133.837 17.9893 135.533 17.2957 138.389 16.2228C142.496 14.6798 149.251 12.8685 153.096 12.28L153.496 12.2184L153.436 12.1218C153.083 11.5756 152.844 11.2385 152.554 10.8808C151.711 9.83805 150.69 8.9874 149.44 8.28779C147.722 7.32476 145.492 6.57682 142.673 6.01616C141.793 5.85069 140.911 5.69963 140.026 5.56304C138.443 5.32029 136.862 5.0625 135.284 4.78972C134.771 4.6991 134.004 4.57102 133.495 4.46106C133.103 4.37771 132.819 4.30869 132.438 4.18436L132.196 4.10703L131.452 3.90765ZM132.753 4.67614C132.664 4.64593 132.591 4.62297 132.587 4.62539C132.656 4.68597 132.727 4.74401 132.8 4.79939C133.739 5.53767 134.552 6.45478 135.064 7.35618C135.095 7.41624 135.131 7.47294 135.173 7.52534C135.177 7.52172 135.133 7.34893 135.075 7.1411C134.924 6.59856 134.481 5.18363 134.452 5.15101C134.449 5.14738 134.231 5.08938 133.967 5.02172C133.76 4.96976 133.565 4.91659 133.389 4.86826C133.135 4.79697 132.917 4.73172 132.753 4.67614ZM134.986 5.26338C134.909 5.24362 134.83 5.22989 134.75 5.2223C134.776 5.29014 134.799 5.3591 134.831 5.42409C135.149 6.11897 135.412 6.83771 135.617 7.57367C135.629 7.63004 135.645 7.68539 135.666 7.73921C135.748 7.66391 135.827 7.58656 135.904 7.50722C136.288 7.13911 136.704 6.80703 137.149 6.51519C137.343 6.38469 137.927 6.03549 138.071 5.96299C138.114 5.94482 138.154 5.9195 138.189 5.88808C138.189 5.87962 138.072 5.85545 137.928 5.83129C137.07 5.68629 135.734 5.42771 134.986 5.26338ZM138.709 6.43303C138.625 6.10195 138.577 5.95333 138.553 5.94487C138.511 5.93158 137.311 6.86439 136.865 7.2583C136.632 7.46492 136.089 8.00746 136.089 8.03404C136.312 8.11244 136.537 8.18098 136.766 8.23945C137.398 8.4139 138.027 8.5992 138.653 8.79528L138.879 8.86777L138.894 8.82186C138.964 8.02083 138.901 7.21372 138.709 6.43303ZM141.492 6.44511C140.672 6.28803 138.868 5.97628 138.855 5.98837C138.869 6.03829 138.887 6.08683 138.909 6.13336C139.214 6.84506 139.382 7.68725 139.382 8.52099C139.382 8.67324 139.384 8.7989 139.389 8.7989C139.393 8.7989 139.58 8.67565 139.805 8.52582C140.66 7.95429 141.521 7.48547 142.68 6.96347C142.974 6.83056 143.066 6.77981 143.039 6.77015C142.986 6.74719 142.103 6.56232 141.492 6.44511ZM143.422 7.49151C143.473 7.28126 143.532 6.92481 143.519 6.91152C143.502 6.8946 142.539 7.43109 141.941 7.78996C141.193 8.23824 139.783 9.17227 139.812 9.19885C139.922 9.25087 140.034 9.29923 140.148 9.34385C140.782 9.60605 141.36 9.88759 141.87 10.186C141.954 10.2396 142.042 10.286 142.134 10.325C142.202 10.2299 142.263 10.1307 142.318 10.0278C142.84 9.11548 143.263 8.144 143.422 7.49151ZM145.106 7.30543C144.692 7.18097 143.892 6.96347 143.853 6.96347C143.842 6.96347 143.827 7.02872 143.82 7.10968C143.741 7.99537 143.439 9.03935 142.97 10.0338C142.932 10.1048 142.902 10.1797 142.88 10.2573C142.888 10.2573 143.001 10.2138 143.13 10.1607C144.686 9.52872 146.304 9.02969 148.19 8.5947L148.416 8.54274L148.096 8.39774C147.325 8.04733 146.136 7.61355 145.106 7.30543ZM136.855 9.01398C136.523 8.92094 135.914 8.77836 135.902 8.79044L135.901 8.79165C135.903 8.86867 135.911 8.94541 135.925 9.02123C136.064 9.98546 136.086 10.9328 135.985 11.6711C135.98 11.7037 135.984 11.7315 135.992 11.7315C136.121 11.6217 136.245 11.5068 136.365 11.3871C136.942 10.8244 137.54 10.2831 138.157 9.76434C138.299 9.64472 138.416 9.54201 138.416 9.53718C138.416 9.50939 137.354 9.15414 136.855 9.01398ZM148.258 9.52751C148.439 9.26773 148.731 8.81219 148.722 8.80252C148.714 8.79528 148.146 8.9584 147.612 9.12152C146.477 9.47552 145.357 9.87458 144.255 10.3177C143.686 10.5497 142.94 10.8687 142.94 10.8808C142.967 10.9095 142.997 10.9351 143.03 10.9569C143.14 11.0428 143.249 11.1306 143.356 11.2204C144.04 11.7854 144.638 12.4468 145.132 13.1839C145.196 13.2805 145.253 13.3603 145.257 13.3603C145.368 13.2286 145.476 13.0945 145.582 12.9579L146.734 11.5055C147.609 10.4047 147.992 9.90692 148.258 9.52751ZM149.308 9.01156C149.23 8.9611 149.146 8.92172 149.058 8.89194H149.056C149.052 8.90282 148.961 9.0901 148.855 9.30518C148.137 10.7552 147.528 11.5659 146.191 12.8504C145.976 13.0582 145.806 13.2274 145.815 13.2274C145.824 13.2274 145.933 13.2017 146.068 13.17C148.345 12.6226 150.752 12.2196 152.601 12.0807L153.039 12.0456C153.048 12.0408 152.476 11.4451 152.242 11.2155C151.359 10.3623 150.373 9.62194 149.308 9.01156ZM140.347 10.3866C139.917 10.1715 139.347 9.90571 139.285 9.89363C139.272 9.89001 139.253 9.93471 139.236 10.0096C139.052 10.8534 138.752 11.6676 138.344 12.4287C138.225 12.6437 138.219 12.6595 138.238 12.6595C138.244 12.6595 138.419 12.5543 138.63 12.425C139.368 11.9745 140.125 11.5565 140.899 11.172C141.16 11.0415 141.369 10.9328 141.366 10.9292C141.336 10.9014 140.74 10.5836 140.347 10.3866ZM138.482 10.8409C138.576 10.551 138.723 10.0072 138.711 9.99513C138.702 9.98425 137.83 10.6814 137.416 11.0319C136.838 11.5212 136.089 12.2015 136.089 12.2378C136.156 12.2859 136.227 12.3272 136.302 12.361C136.604 12.518 136.88 12.7219 137.119 12.9652L137.364 13.2032L137.473 13.0256C137.888 12.3365 138.226 11.6039 138.482 10.8409ZM142.415 11.5696L142.201 11.4306L142.046 11.6626C141.281 12.8057 140.258 13.9813 139.098 15.0483C138.668 15.4434 138.669 15.4434 138.692 15.4423C138.822 15.401 138.955 15.3557 139.082 15.3069C140.849 14.6557 142.643 14.0816 144.459 13.5862L144.814 13.4872L144.761 13.4304C144.662 13.3264 144.18 12.8939 143.931 12.686C143.488 12.3175 142.906 11.8886 142.415 11.5696ZM140.33 12.9966C140.689 12.5181 141.295 11.6711 141.284 11.6602C141.274 11.6493 140.423 12.0819 139.869 12.3791C139.063 12.8105 137.783 13.5403 137.701 13.6152C137.68 13.6346 137.697 13.6829 137.798 13.8859C138.035 14.3668 138.17 14.9347 138.17 15.4664C138.171 15.5667 138.177 15.6307 138.189 15.6271C138.333 15.4714 138.473 15.3114 138.607 15.1474C139.134 14.5251 139.9 13.5681 140.33 12.9966ZM136.719 13.6454C136.418 13.3979 136.089 13.1878 135.738 13.0195C135.696 13.0883 135.666 13.1628 135.646 13.2407C135.549 13.5355 135.415 13.8738 135.278 14.159C135.126 14.4804 134.981 14.7305 134.691 15.174C134.648 15.2416 134.661 15.232 135.048 14.9238C135.414 14.6314 136.048 14.1541 136.465 13.8533C136.614 13.7457 136.728 13.6515 136.719 13.6454ZM137.383 14.391C137.264 14.2133 137.236 14.1759 137.215 14.1795C137.204 14.1868 137.114 14.2846 137.023 14.3958C136.169 15.441 135.035 16.485 133.722 17.4395C133.555 17.5592 133.42 17.6619 133.42 17.6667C133.42 17.6715 133.596 17.587 133.813 17.4782C134.029 17.3695 134.359 17.2124 134.546 17.1254C135.449 16.7229 136.362 16.3441 137.284 15.9896L137.885 15.7576L137.875 15.6694C137.825 15.2634 137.633 14.7655 137.383 14.391ZM135.711 15.2791C136.049 14.9335 136.552 14.3644 136.534 14.3475C136.517 14.3306 135.031 15.3371 134.382 15.8059C134.209 15.9141 134.06 16.0563 133.944 16.224C133.693 16.549 133.473 16.8088 133.186 17.1218C132.729 17.6196 132.691 17.6631 132.719 17.6462C132.736 17.6365 132.854 17.5628 132.985 17.4794C133.978 16.8577 134.894 16.119 135.711 15.2791Z" fill="#C91414"/>
<circle cx="101" cy="15" r="5" fill="black" fill-opacity="0.5"/>
</svg>
